<?xml version="1.0" encoding="utf-8"?>
<!-- Generator: Adobe Illustrator 25.1.0, SVG Export Plug-In . SVG Version: 6.00 Build 0)  -->
<svg version="1.1" id="Layer_1" xmlns="http://www.w3.org/2000/svg" xmlns:xlink="http://www.w3.org/1999/xlink" x="0px" y="0px"
	 viewBox="0 0 1150.57 320.46" style="enable-background:new 0 0 1150.57 320.46;" xml:space="preserve">
<g>
	<g>
		<path d="M350.79,17.74h-19.63v13.54h18.93v7.99h-18.93v26.81h-8.5V9.75h28.13V17.74z"/>
		<path d="M377.85,42.08l17.44,24.01h-10.4l-16.09-23.06h-1.53v23.06h-8.5V9.75h9.96c7.44,0,12.82,1.4,16.12,4.2
			c3.65,3.11,5.47,7.22,5.47,12.33c0,3.99-1.14,7.42-3.43,10.29C384.62,39.44,381.6,41.27,377.85,42.08z M367.27,35.62h2.7
			c8.05,0,12.08-3.08,12.08-9.23c0-5.76-3.92-8.65-11.75-8.65h-3.03V35.62z"/>
		<path d="M434.98,52.4h-24.11l-6.27,13.68h-9.16L423.3,6.22l26.89,59.87h-9.3L434.98,52.4z M431.51,44.41l-8.35-19.15l-8.76,19.15
			H431.51z"/>
		<path d="M453.39,66.08l11.86-60.56l19.34,43.78l20.03-43.78l10.65,60.56h-8.72l-5.44-34l-16.67,36.59l-16.2-36.63l-6.06,34.04
			H453.39z"/>
		<path d="M556.41,17.74h-22.58v13.54h21.93v7.99h-21.93v18.82h22.58v7.99h-31.08V9.75h31.08V17.74z"/>
		<path d="M628.52,12.78v10.07c-4.91-4.11-10-6.17-15.25-6.17c-5.79,0-10.67,2.08-14.63,6.24c-3.99,4.13-5.98,9.19-5.98,15.18
			c0,5.91,1.99,10.9,5.98,14.96c3.99,4.06,8.88,6.09,14.67,6.09c2.99,0,5.53-0.49,7.62-1.46c1.17-0.49,2.38-1.14,3.63-1.97
			c1.25-0.83,2.57-1.82,3.96-2.99v10.25c-4.86,2.75-9.97,4.12-15.32,4.12c-8.05,0-14.92-2.81-20.61-8.43
			c-5.67-5.67-8.5-12.5-8.5-20.5c0-7.17,2.37-13.57,7.11-19.19c5.84-6.88,13.39-10.32,22.66-10.32
			C618.91,8.66,623.8,10.03,628.52,12.78z"/>
		<path d="M671.82,52.4H647.7l-6.27,13.68h-9.16l27.87-59.87l26.89,59.87h-9.3L671.82,52.4z M668.35,44.41L660,25.26l-8.76,19.15
			H668.35z"/>
		<path d="M724.05,18.14l-6.89,4.09c-1.29-2.24-2.52-3.7-3.68-4.38c-1.22-0.78-2.79-1.17-4.71-1.17c-2.36,0-4.32,0.67-5.87,2.01
			c-1.56,1.31-2.33,2.97-2.33,4.96c0,2.75,2.04,4.96,6.13,6.64l5.62,2.3c4.57,1.85,7.92,4.1,10.03,6.77
			c2.12,2.66,3.17,5.93,3.17,9.8c0,5.18-1.73,9.46-5.18,12.84c-3.48,3.41-7.79,5.11-12.95,5.11c-4.89,0-8.93-1.45-12.11-4.34
			c-3.14-2.89-5.1-6.97-5.87-12.22l8.61-1.9c0.39,3.31,1.07,5.59,2.04,6.86c1.75,2.43,4.3,3.65,7.66,3.65c2.65,0,4.85-0.89,6.6-2.66
			c1.75-1.77,2.63-4.02,2.63-6.75c0-1.09-0.15-2.1-0.46-3.01c-0.3-0.91-0.78-1.75-1.42-2.52c-0.65-0.77-1.48-1.48-2.5-2.15
			c-1.02-0.67-2.24-1.31-3.65-1.92l-5.44-2.26c-7.71-3.26-11.57-8.03-11.57-14.3c0-4.23,1.62-7.77,4.85-10.62
			c3.23-2.87,7.26-4.31,12.08-4.31C715.33,8.66,720.4,11.82,724.05,18.14z"/>
		<path d="M764.98,17.74H742.4v13.54h21.93v7.99H742.4v18.82h22.58v7.99H733.9V9.75h31.08V17.74z"/>
		<path d="M807.43,58.09h20.98v7.99h-37.83l19.55-23.68c1.92-2.36,3.53-4.4,4.83-6.13c1.3-1.73,2.29-3.17,2.97-4.34
			c1.39-2.29,2.08-4.34,2.08-6.17c0-2.63-0.92-4.83-2.77-6.6c-1.85-1.77-4.14-2.66-6.86-2.66c-5.69,0-8.95,3.37-9.78,10.11h-8.46
			c1.36-11.87,7.36-17.8,17.99-17.8c5.13,0,9.44,1.63,12.91,4.89c3.5,3.26,5.25,7.3,5.25,12.11c0,3.06-0.82,6.07-2.44,9.01
			c-0.83,1.53-2.04,3.35-3.63,5.45c-1.59,2.1-3.61,4.59-6.04,7.46L807.43,58.09z"/>
	</g>
	<g>
		<path d="M28.19,259.8L59.72,98.76l51.41,116.41l53.26-116.41l28.33,161.04h-23.19l-14.45-90.41l-44.33,97.3l-43.07-97.4
			l-16.1,90.51H28.19z"/>
		<path d="M284.96,165.31h21.92v94.49h-21.92v-9.89c-8.99,8.41-18.66,12.61-29.01,12.61c-13.06,0-23.86-4.72-32.4-14.16
			c-8.47-9.64-12.71-21.67-12.71-36.09c0-14.16,4.23-25.97,12.71-35.41c8.47-9.44,19.08-14.16,31.82-14.16
			c10.99,0,20.86,4.53,29.59,13.58V165.31z M233.15,212.27c0,9.05,2.43,16.43,7.28,22.12c4.98,5.76,11.25,8.63,18.82,8.63
			c8.08,0,14.62-2.78,19.6-8.34c4.98-5.76,7.47-13.06,7.47-21.92c0-8.86-2.49-16.17-7.47-21.92c-4.98-5.63-11.45-8.44-19.4-8.44
			c-7.5,0-13.78,2.85-18.82,8.54C235.64,196.68,233.15,203.79,233.15,212.27z"/>
		<path d="M420.85,257.57c0,4.46-0.15,8.39-0.44,11.79s-0.7,6.39-1.21,8.97c-1.55,7.11-4.59,13.23-9.12,18.33
			c-8.54,9.83-20.27,14.75-35.21,14.75c-12.61,0-22.99-3.39-31.14-10.19c-8.41-6.98-13.26-16.65-14.55-29.01h21.92
			c0.84,4.66,2.23,8.25,4.17,10.77c4.53,5.88,11.12,8.83,19.79,8.83c15.97,0,23.96-9.8,23.96-29.39v-13.19
			c-8.67,8.86-18.66,13.29-29.98,13.29c-12.87,0-23.41-4.66-31.62-13.97c-8.28-9.44-12.42-21.25-12.42-35.41
			c0-13.78,3.85-25.48,11.54-35.12c8.28-10.22,19.21-15.33,32.79-15.33c11.9,0,21.79,4.43,29.69,13.29v-10.67h21.83V257.57z
			 M399.89,212.75c0-9.18-2.46-16.52-7.37-22.02c-4.98-5.63-11.35-8.44-19.11-8.44c-8.28,0-14.81,3.07-19.6,9.22
			c-4.33,5.5-6.5,12.61-6.5,21.34c0,8.6,2.17,15.65,6.5,21.15c4.72,6.01,11.25,9.02,19.6,9.02s14.94-3.04,19.79-9.12
			C397.66,228.4,399.89,221.35,399.89,212.75z"/>
		<path d="M532.29,132.33l-18.33,10.87c-3.43-5.95-6.69-9.83-9.8-11.64c-3.23-2.07-7.41-3.1-12.51-3.1
			c-6.27,0-11.48,1.78-15.62,5.34c-4.14,3.49-6.21,7.89-6.21,13.19c0,7.31,5.43,13.19,16.3,17.66l14.94,6.11
			c12.16,4.92,21.05,10.91,26.68,18c5.63,7.08,8.44,15.76,8.44,26.05c0,13.78-4.59,25.16-13.78,34.15
			c-9.25,9.06-20.73,13.58-34.44,13.58c-13,0-23.74-3.85-32.21-11.54c-8.34-7.7-13.55-18.53-15.62-32.5l22.89-5.04
			c1.03,8.8,2.85,14.88,5.43,18.24c4.66,6.47,11.45,9.7,20.37,9.7c7.05,0,12.9-2.36,17.56-7.08c4.66-4.72,6.98-10.7,6.98-17.95
			c0-2.91-0.4-5.58-1.21-8c-0.81-2.43-2.07-4.66-3.78-6.69c-1.71-2.04-3.93-3.94-6.65-5.72c-2.72-1.78-5.95-3.48-9.7-5.09
			l-14.45-6.01c-20.5-8.67-30.75-21.34-30.75-38.03c0-11.25,4.3-20.66,12.9-28.23c8.6-7.63,19.3-11.45,32.11-11.45
			C509.11,107.11,522.59,115.52,532.29,132.33z"/>
		<path d="M623.94,165.31h21.92v94.49h-21.92v-9.89c-8.99,8.41-18.66,12.61-29.01,12.61c-13.06,0-23.86-4.72-32.4-14.16
			c-8.47-9.64-12.71-21.67-12.71-36.09c0-14.16,4.23-25.97,12.71-35.41c8.47-9.44,19.08-14.16,31.82-14.16
			c10.99,0,20.86,4.53,29.59,13.58V165.31z M572.14,212.27c0,9.05,2.43,16.43,7.27,22.12c4.98,5.76,11.25,8.63,18.82,8.63
			c8.08,0,14.62-2.78,19.6-8.34c4.98-5.76,7.47-13.06,7.47-21.92c0-8.86-2.49-16.17-7.47-21.92c-4.98-5.63-11.45-8.44-19.4-8.44
			c-7.5,0-13.78,2.85-18.82,8.54C574.63,196.68,572.14,203.79,572.14,212.27z"/>
		<path d="M691.06,185.68v74.12h-21.92v-74.12h-7.76v-20.37h7.76v-36.48c0-11.9,2.07-20.31,6.21-25.22
			c5.69-6.85,13.97-10.28,24.83-10.28c3.88,0,8.76,1.13,14.65,3.4v22.31l-2.23-1.16c-4.72-2.39-8.6-3.59-11.64-3.59
			c-3.88,0-6.5,1.39-7.86,4.17c-1.36,2.72-2.04,7.95-2.04,15.72v31.14h23.77v20.37H691.06z"/>
		<path d="M811.52,217.7h-67.71c0.58,7.76,3.1,13.94,7.57,18.53c4.46,4.53,10.19,6.79,17.17,6.79c5.43,0,9.93-1.29,13.48-3.88
			c3.49-2.59,7.47-7.37,11.93-14.36l18.43,10.28c-2.85,4.85-5.85,9.01-9.02,12.47c-3.17,3.46-6.57,6.31-10.19,8.54
			c-3.62,2.23-7.53,3.86-11.74,4.9c-4.21,1.03-8.76,1.55-13.68,1.55c-14.1,0-25.42-4.53-33.95-13.58
			c-8.54-9.12-12.81-21.21-12.81-36.28c0-14.94,4.14-27.03,12.42-36.28c8.34-9.12,19.4-13.68,33.18-13.68
			c13.9,0,24.9,4.43,32.98,13.29c8.02,8.8,12.03,20.99,12.03,36.57L811.52,217.7z M789.11,199.85
			c-3.04-11.64-10.38-17.46-22.02-17.46c-2.65,0-5.14,0.4-7.47,1.21s-4.45,1.97-6.35,3.49c-1.91,1.52-3.54,3.35-4.9,5.48
			c-1.36,2.13-2.39,4.56-3.1,7.28H789.11z"/>
		<path d="M978.92,223.42H914.8l-16.69,36.38h-24.35l74.11-159.19l71.5,159.19h-24.74L978.92,223.42z M969.7,202.18l-22.21-50.93
			l-23.28,50.93H969.7z"/>
		<path d="M1025.66,126.02c0-3.82,1.39-7.11,4.17-9.9c2.78-2.78,6.11-4.17,9.99-4.17c3.94,0,7.31,1.39,10.09,4.17
			c2.78,2.72,4.17,6.05,4.17,9.99c0,3.95-1.39,7.31-4.17,10.09c-2.72,2.78-6.05,4.17-9.99,4.17c-3.95,0-7.31-1.39-10.09-4.17
			C1027.05,133.43,1025.66,130.04,1025.66,126.02z M1050.78,165.31v94.49h-21.83v-94.49H1050.78z"/>
		<path d="M1073.47,165.31h21.83v8.44c4.01-4.2,7.57-7.08,10.67-8.63c3.17-1.62,6.92-2.43,11.25-2.43c5.76,0,11.77,1.88,18.04,5.63
			l-9.99,19.98c-4.14-2.97-8.18-4.46-12.13-4.46c-11.9,0-17.85,8.99-17.85,26.97v48.99h-21.83V165.31z"/>
	</g>
</g>
</svg>
