<?xml version="1.0" encoding="utf-8"?>
<!-- Generator: Adobe Illustrator 25.1.0, SVG Export Plug-In . SVG Version: 6.00 Build 0)  -->
<svg version="1.1" id="Layer_1" xmlns="http://www.w3.org/2000/svg" xmlns:xlink="http://www.w3.org/1999/xlink" x="0px" y="0px"
	 viewBox="0 0 806.64 260.47" style="enable-background:new 0 0 806.64 260.47;" xml:space="preserve">
<style type="text/css">
	.st0{fill:#FFFFFF;}
</style>
<g>
	<path class="st0" d="M152.72,112.88v26.77c-13.06-10.93-26.58-16.39-40.55-16.39c-15.39,0-28.36,5.53-38.9,16.59
		c-10.61,11-15.91,24.45-15.91,40.36c0,15.72,5.3,28.97,15.91,39.77c10.61,10.8,23.6,16.2,39,16.2c7.96,0,14.71-1.29,20.27-3.88
		c3.1-1.29,6.32-3.04,9.65-5.24c3.33-2.2,6.84-4.85,10.53-7.95v27.26c-12.94,7.31-26.52,10.96-40.74,10.96
		c-21.41,0-39.68-7.47-54.81-22.41c-15.07-15.07-22.6-33.24-22.6-54.52c0-19.08,6.31-36.09,18.92-51.03
		c15.52-18.3,35.6-27.45,60.24-27.45C127.17,101.92,140.17,105.57,152.72,112.88z"/>
	<path class="st0" d="M193.93,90.76v163.85H172.1V90.76H193.93z"/>
	<path class="st0" d="M286.26,160.12h21.92v94.49h-21.92v-9.89c-8.99,8.41-18.66,12.61-29.01,12.61c-13.06,0-23.86-4.72-32.4-14.16
		c-8.47-9.64-12.71-21.67-12.71-36.09c0-14.16,4.23-25.97,12.71-35.41c8.47-9.44,19.08-14.16,31.82-14.16
		c10.99,0,20.86,4.53,29.59,13.58V160.12z M234.46,207.07c0,9.05,2.43,16.43,7.28,22.12c4.98,5.76,11.25,8.63,18.82,8.63
		c8.08,0,14.62-2.78,19.6-8.34c4.98-5.76,7.47-13.06,7.47-21.92c0-8.86-2.49-16.17-7.47-21.92c-4.98-5.63-11.45-8.44-19.4-8.44
		c-7.5,0-13.78,2.85-18.82,8.54C236.95,191.49,234.46,198.6,234.46,207.07z"/>
	<path class="st0" d="M385.68,176.22l-18.04,9.6c-2.85-5.82-6.37-8.73-10.57-8.73c-2.01,0-3.72,0.66-5.14,1.99
		c-1.42,1.33-2.13,3.02-2.13,5.09c0,3.62,4.2,7.21,12.61,10.77c11.58,4.98,19.37,9.57,23.38,13.77c4.01,4.21,6.01,9.86,6.01,16.98
		c0,9.12-3.36,16.75-10.09,22.89c-6.53,5.82-14.42,8.73-23.67,8.73c-15.85,0-27.07-7.73-33.66-23.18l18.63-8.63
		c2.59,4.53,4.56,7.41,5.92,8.63c2.65,2.46,5.82,3.69,9.51,3.69c7.37,0,11.06-3.36,11.06-10.09c0-3.88-2.85-7.5-8.54-10.87
		c-2.2-1.1-4.4-2.17-6.6-3.2c-2.2-1.03-4.43-2.1-6.69-3.2c-6.34-3.1-10.8-6.21-13.39-9.31c-3.3-3.94-4.95-9.02-4.95-15.23
		c0-8.21,2.81-15,8.44-20.37c5.76-5.37,12.74-8.05,20.95-8.05C370.8,157.5,379.79,163.74,385.68,176.22z"/>
	<path class="st0" d="M461.32,176.22l-18.04,9.6c-2.85-5.82-6.37-8.73-10.57-8.73c-2,0-3.72,0.66-5.14,1.99
		c-1.42,1.33-2.13,3.02-2.13,5.09c0,3.62,4.2,7.21,12.61,10.77c11.58,4.98,19.37,9.57,23.38,13.77c4.01,4.21,6.02,9.86,6.02,16.98
		c0,9.12-3.36,16.75-10.09,22.89c-6.53,5.82-14.42,8.73-23.67,8.73c-15.85,0-27.06-7.73-33.66-23.18l18.62-8.63
		c2.59,4.53,4.56,7.41,5.92,8.63c2.65,2.46,5.82,3.69,9.51,3.69c7.37,0,11.06-3.36,11.06-10.09c0-3.88-2.85-7.5-8.54-10.87
		c-2.2-1.1-4.4-2.17-6.6-3.2c-2.2-1.03-4.43-2.1-6.69-3.2c-6.34-3.1-10.8-6.21-13.39-9.31c-3.3-3.94-4.95-9.02-4.95-15.23
		c0-8.21,2.81-15,8.44-20.37c5.76-5.37,12.74-8.05,20.96-8.05C446.45,157.5,455.44,163.74,461.32,176.22z"/>
	<path class="st0" d="M478.77,120.83c0-3.82,1.39-7.11,4.17-9.9c2.78-2.78,6.11-4.17,9.99-4.17c3.94,0,7.31,1.39,10.09,4.17
		c2.78,2.72,4.17,6.05,4.17,9.99c0,3.95-1.39,7.31-4.17,10.09c-2.72,2.78-6.05,4.17-9.99,4.17c-3.95,0-7.31-1.39-10.09-4.17
		C480.16,128.24,478.77,124.84,478.77,120.83z M503.89,160.12v94.49h-21.83v-94.49H503.89z"/>
	<path class="st0" d="M600.11,164.2v29c-4.98-6.08-9.44-10.25-13.39-12.51c-3.88-2.33-8.44-3.49-13.68-3.49
		c-8.21,0-15.04,2.88-20.47,8.63c-5.43,5.76-8.15,12.97-8.15,21.63c0,8.86,2.62,16.14,7.86,21.83c5.3,5.69,12.06,8.54,20.28,8.54
		c5.24,0,9.86-1.13,13.87-3.4c3.88-2.2,8.44-6.47,13.68-12.81v28.81c-8.86,4.59-17.72,6.89-26.58,6.89
		c-14.62,0-26.84-4.72-36.67-14.16c-9.83-9.51-14.75-21.31-14.75-35.41c0-14.1,4.98-26,14.94-35.7c9.96-9.7,22.18-14.55,36.67-14.55
		C583.03,157.5,591.83,159.73,600.11,164.2z"/>
	<path class="st0" d="M708.62,233.36h55.78v21.25H663.8l52-62.96c5.11-6.27,9.39-11.71,12.85-16.3c3.46-4.59,6.09-8.44,7.91-11.54
		c3.69-6.08,5.53-11.54,5.53-16.39c0-6.98-2.46-12.84-7.37-17.56c-4.92-4.72-11-7.08-18.24-7.08c-15.13,0-23.8,8.96-26,26.87h-22.51
		c3.62-31.56,19.56-47.34,47.83-47.34c13.64,0,25.09,4.33,34.34,13c9.31,8.67,13.97,19.4,13.97,32.21c0,8.15-2.17,16.14-6.5,23.96
		c-2.2,4.07-5.42,8.91-9.65,14.5c-4.24,5.59-9.59,12.21-16.05,19.84L708.62,233.36z"/>
</g>
<g>
	<g>
		<path class="st0" d="M400.21,3.66l-12.8,36.71h4.52l4.46-12.71h10.85l4.44,12.71h4.52L403.36,3.66H400.21z M405.69,23.2h-7.77
			l3.89-11.46L405.69,23.2z"/>
		<polygon class="st0" points="444.25,40.37 444.25,3.66 440.88,3.66 431.06,22.57 422.15,3.66 418.8,3.66 418.8,40.37 
			423.28,40.37 423.28,15.05 428.99,27.66 433.05,27.66 439.79,14.75 439.79,40.37 		"/>
		<polygon class="st0" points="470.89,35.91 452.44,35.91 452.44,24.25 470.89,24.25 470.89,19.79 452.44,19.79 452.44,8.15 
			470.89,8.15 470.89,3.69 447.99,3.69 447.99,40.34 470.89,40.34 		"/>
		<path class="st0" d="M357.78,59.66c0.42-0.75,0.76-1.57,1.01-2.44c0.25-0.88,0.38-1.78,0.38-2.68c0-1.86-0.45-3.58-1.34-5.13
			c-0.81-1.4-1.91-2.53-3.27-3.36c-1.27-0.79-2.6-1.26-3.95-1.41l-0.36-0.04c-0.94-0.11-1.91-0.21-3.22-0.21l-11.64,0.02v36.71
			l11.66-0.02c1.08,0,2.28-0.07,3.56-0.21c1.34-0.14,2.67-0.62,3.94-1.4c1.36-0.83,2.46-1.96,3.28-3.36
			c0.89-1.57,1.34-3.31,1.34-5.17c0-0.9-0.13-1.79-0.38-2.65c-0.25-0.85-0.59-1.67-1.01-2.4c-0.39-0.72-0.88-1.38-1.45-1.94
			c-0.44-0.44-0.91-0.83-1.46-1.18c0.52-0.35,1.01-0.75,1.46-1.19C356.91,61.03,357.4,60.38,357.78,59.66z M351.26,59.15
			c-0.56,0.33-1.16,0.54-1.79,0.62c-0.67,0.09-1.46,0.13-2.34,0.13c-2.21-0.02-3.9-0.01-6.03,0.01v-9.74l2.8,0
			c1.19,0,2.03,0,3.23,0.03c0.86,0,1.64,0.05,2.32,0.13c0.64,0.08,1.25,0.29,1.79,0.61c0.64,0.4,1.16,0.93,1.52,1.54
			c0.21,0.38,0.37,0.8,0.49,1.26c0.12,0.45,0.18,0.9,0.18,1.33c0,0.45-0.07,0.89-0.19,1.33c-0.13,0.45-0.3,0.87-0.5,1.24
			C352.34,58.32,351.84,58.83,351.26,59.15z M349.34,65.78c0.69,0.07,1.33,0.28,1.93,0.64c0.57,0.32,1.07,0.82,1.46,1.48
			c0.21,0.39,0.38,0.81,0.51,1.25c0.13,0.44,0.19,0.88,0.19,1.32c0,0.43-0.06,0.87-0.18,1.32c-0.12,0.45-0.28,0.87-0.47,1.23
			c-0.38,0.63-0.9,1.15-1.53,1.55c-0.59,0.35-1.23,0.56-1.92,0.63c-0.75,0.08-1.5,0.12-2.22,0.12l-0.58,0.01
			c-0.9,0.02-1.65,0.04-2.64,0.04h-2.8v-9.69l6.03-0.01C347.85,65.67,348.59,65.71,349.34,65.78z"/>
		<polygon class="st0" points="335.39,40.34 339.86,40.34 339.86,24.25 356.46,24.25 356.46,19.79 339.86,19.79 339.86,8.15 
			359.26,8.15 359.26,3.69 335.4,3.69 		"/>
		<path class="st0" d="M381.62,21.51c0.93-0.8,1.62-1.75,1.93-2.32c0.87-1.61,1.29-3.41,1.29-5.49c0-1.82-0.45-3.53-1.33-5.05
			c-0.74-1.41-1.82-2.55-3.22-3.38c-1.24-0.75-2.53-1.21-3.85-1.35c-1.26-0.14-2.45-0.21-3.51-0.21c0,0,0,0,0,0
			c-3.45-0.07-10.25-0.03-10.32-0.03l-0.52,0l-0.02,36.66h4.48v-16.1c1.72,0,7.07,0,8.57,0l5.41,16.12l4.51-0.06l-5.81-17.2
			C379.89,22.78,380.83,22.19,381.62,21.51z M379.55,17.21c-0.57,0.93-0.98,1.48-1.66,1.86c-0.63,0.38-1.32,0.46-2.16,0.55
			c-0.96,0.11-2.1,0.17-3.06,0.17c-1.04,0.02-3.21,0.01-4.9,0.01l-1.22,0V8.13l1.12,0c1.69-0.01,3.89-0.01,4.96,0.01
			c1.03,0,1.97,0.1,2.82,0.21c0.8,0.1,1.57,0.36,2.25,0.76c0.36,0.24,0.71,0.52,1.03,0.83c0.31,0.3,0.58,0.65,0.8,1.05
			c0.26,0.47,0.46,0.99,0.61,1.53c0.15,0.54,0.22,1.09,0.22,1.61c0,0.53-0.07,1.07-0.22,1.61C380,16.28,379.8,16.78,379.55,17.21z"
			/>
		<polygon class="st0" points="464.44,44.41 456.83,58.67 449.21,44.41 442.4,44.42 453.77,65.05 453.77,81.13 459.89,81.13 
			459.89,65.05 471.25,44.42 		"/>
	</g>
</g>
</svg>
