<?xml version="1.0" encoding="utf-8"?>
<!-- Generator: Adobe Illustrator 25.1.0, SVG Export Plug-In . SVG Version: 6.00 Build 0)  -->
<svg version="1.1" id="Layer_1" xmlns="http://www.w3.org/2000/svg" xmlns:xlink="http://www.w3.org/1999/xlink" x="0px" y="0px"
	 viewBox="0 0 1000 320.46" style="enable-background:new 0 0 1000 320.46;" xml:space="preserve">
<style type="text/css">
	.st0{fill:#FFFFFF;}
</style>
<g>
	<path class="st0" d="M308.23,17.74H288.6v13.54h18.93v7.99H288.6v26.81h-8.5V9.75h28.13V17.74z"/>
	<path class="st0" d="M335.29,42.08l17.44,24.01h-10.4l-16.09-23.06h-1.53v23.06h-8.5V9.75h9.96c7.44,0,12.82,1.4,16.12,4.2
		c3.65,3.11,5.47,7.22,5.47,12.33c0,3.99-1.14,7.42-3.43,10.29C342.05,39.44,339.03,41.27,335.29,42.08z M324.71,35.62h2.7
		c8.05,0,12.08-3.08,12.08-9.23c0-5.76-3.92-8.65-11.75-8.65h-3.03V35.62z"/>
	<path class="st0" d="M392.41,52.4H368.3l-6.27,13.68h-9.16l27.87-59.87l26.89,59.87h-9.3L392.41,52.4z M388.95,44.41l-8.35-19.15
		l-8.76,19.15H388.95z"/>
	<path class="st0" d="M410.83,66.08l11.86-60.56l19.34,43.78l20.03-43.78l10.65,60.56h-8.72l-5.44-34l-16.67,36.59l-16.2-36.63
		l-6.06,34.04H410.83z"/>
	<path class="st0" d="M513.85,17.74h-22.58v13.54h21.93v7.99h-21.93v18.82h22.58v7.99h-31.08V9.75h31.08V17.74z"/>
	<path class="st0" d="M585.96,12.78v10.07c-4.91-4.11-10-6.17-15.25-6.17c-5.79,0-10.67,2.08-14.63,6.24
		c-3.99,4.13-5.98,9.19-5.98,15.18c0,5.91,1.99,10.9,5.98,14.96c3.99,4.06,8.88,6.09,14.67,6.09c2.99,0,5.53-0.49,7.62-1.46
		c1.17-0.49,2.38-1.14,3.63-1.97c1.25-0.83,2.57-1.82,3.96-2.99v10.25c-4.86,2.75-9.97,4.12-15.32,4.12
		c-8.05,0-14.92-2.81-20.61-8.43c-5.67-5.67-8.5-12.5-8.5-20.5c0-7.17,2.37-13.57,7.11-19.19c5.84-6.88,13.39-10.32,22.66-10.32
		C576.35,8.66,581.24,10.03,585.96,12.78z"/>
	<path class="st0" d="M629.25,52.4h-24.11l-6.27,13.68h-9.16l27.87-59.87l26.89,59.87h-9.3L629.25,52.4z M625.79,44.41l-8.35-19.15
		l-8.76,19.15H625.79z"/>
	<path class="st0" d="M681.49,18.14l-6.89,4.09c-1.29-2.24-2.52-3.7-3.68-4.38c-1.22-0.78-2.79-1.17-4.71-1.17
		c-2.36,0-4.32,0.67-5.87,2.01c-1.56,1.31-2.33,2.97-2.33,4.96c0,2.75,2.04,4.96,6.13,6.64l5.62,2.3c4.57,1.85,7.92,4.1,10.03,6.77
		c2.12,2.66,3.17,5.93,3.17,9.8c0,5.18-1.73,9.46-5.18,12.84c-3.48,3.41-7.79,5.11-12.95,5.11c-4.89,0-8.93-1.45-12.11-4.34
		c-3.14-2.89-5.1-6.97-5.87-12.22l8.61-1.9c0.39,3.31,1.07,5.59,2.04,6.86c1.75,2.43,4.3,3.65,7.66,3.65c2.65,0,4.85-0.89,6.6-2.66
		c1.75-1.77,2.63-4.02,2.63-6.75c0-1.09-0.15-2.1-0.46-3.01c-0.3-0.91-0.78-1.75-1.42-2.52c-0.65-0.77-1.48-1.48-2.5-2.15
		c-1.02-0.67-2.24-1.31-3.65-1.92l-5.44-2.26c-7.71-3.26-11.57-8.03-11.57-14.3c0-4.23,1.62-7.77,4.85-10.62
		c3.23-2.87,7.26-4.31,12.08-4.31C672.77,8.66,677.84,11.82,681.49,18.14z"/>
	<path class="st0" d="M722.41,17.74h-22.58v13.54h21.93v7.99h-21.93v18.82h22.58v7.99h-31.08V9.75h31.08V17.74z"/>
</g>
<g>
	<path class="st0" d="M249.4,118.07v26.77c-13.06-10.93-26.58-16.39-40.55-16.39c-15.39,0-28.36,5.53-38.9,16.59
		c-10.61,11-15.91,24.45-15.91,40.36c0,15.72,5.3,28.97,15.91,39.77c10.61,10.8,23.6,16.2,39,16.2c7.96,0,14.71-1.29,20.27-3.88
		c3.1-1.29,6.32-3.04,9.65-5.24c3.33-2.2,6.84-4.85,10.53-7.95v27.26c-12.94,7.31-26.52,10.96-40.74,10.96
		c-21.41,0-39.68-7.47-54.81-22.41c-15.07-15.07-22.6-33.24-22.6-54.52c0-19.08,6.31-36.09,18.92-51.03
		c15.52-18.3,35.6-27.45,60.24-27.45C223.85,107.11,236.85,110.76,249.4,118.07z"/>
	<path class="st0" d="M290.61,95.95V259.8h-21.83V95.95H290.61z"/>
	<path class="st0" d="M382.94,165.31h21.92v94.49h-21.92v-9.89c-8.99,8.41-18.66,12.61-29.01,12.61c-13.06,0-23.86-4.72-32.4-14.16
		c-8.47-9.64-12.71-21.67-12.71-36.09c0-14.16,4.23-25.97,12.71-35.41c8.47-9.44,19.08-14.16,31.82-14.16
		c10.99,0,20.86,4.53,29.59,13.58V165.31z M331.14,212.27c0,9.05,2.43,16.43,7.28,22.12c4.98,5.76,11.25,8.63,18.82,8.63
		c8.08,0,14.62-2.78,19.6-8.34c4.98-5.76,7.47-13.06,7.47-21.92c0-8.86-2.49-16.17-7.47-21.92c-4.98-5.63-11.45-8.44-19.4-8.44
		c-7.5,0-13.78,2.85-18.82,8.54C333.63,196.68,331.14,203.79,331.14,212.27z"/>
	<path class="st0" d="M482.36,181.42l-18.04,9.6c-2.85-5.82-6.37-8.73-10.57-8.73c-2.01,0-3.72,0.66-5.14,1.99
		c-1.42,1.33-2.13,3.02-2.13,5.09c0,3.62,4.2,7.21,12.61,10.77c11.58,4.98,19.37,9.57,23.38,13.77c4.01,4.21,6.01,9.86,6.01,16.98
		c0,9.12-3.36,16.75-10.09,22.89c-6.53,5.82-14.42,8.73-23.67,8.73c-15.85,0-27.07-7.73-33.66-23.18l18.63-8.63
		c2.59,4.53,4.56,7.41,5.92,8.63c2.65,2.46,5.82,3.69,9.51,3.69c7.37,0,11.06-3.36,11.06-10.09c0-3.88-2.85-7.5-8.54-10.87
		c-2.2-1.1-4.4-2.17-6.6-3.2c-2.2-1.03-4.43-2.1-6.69-3.2c-6.34-3.1-10.8-6.21-13.39-9.31c-3.3-3.94-4.95-9.02-4.95-15.23
		c0-8.21,2.81-15,8.44-20.37c5.76-5.37,12.74-8.05,20.95-8.05C467.48,162.69,476.47,168.94,482.36,181.42z"/>
	<path class="st0" d="M558,181.42l-18.04,9.6c-2.85-5.82-6.37-8.73-10.57-8.73c-2,0-3.72,0.66-5.14,1.99
		c-1.42,1.33-2.13,3.02-2.13,5.09c0,3.62,4.2,7.21,12.61,10.77c11.58,4.98,19.37,9.57,23.38,13.77c4.01,4.21,6.02,9.86,6.02,16.98
		c0,9.12-3.36,16.75-10.09,22.89c-6.53,5.82-14.42,8.73-23.67,8.73c-15.85,0-27.06-7.73-33.66-23.18l18.62-8.63
		c2.59,4.53,4.56,7.41,5.92,8.63c2.65,2.46,5.82,3.69,9.51,3.69c7.37,0,11.06-3.36,11.06-10.09c0-3.88-2.85-7.5-8.54-10.87
		c-2.2-1.1-4.4-2.17-6.6-3.2c-2.2-1.03-4.43-2.1-6.69-3.2c-6.34-3.1-10.8-6.21-13.39-9.31c-3.3-3.94-4.95-9.02-4.95-15.23
		c0-8.21,2.81-15,8.44-20.37c5.76-5.37,12.74-8.05,20.96-8.05C543.13,162.69,552.12,168.94,558,181.42z"/>
	<path class="st0" d="M575.45,126.02c0-3.82,1.39-7.11,4.17-9.9c2.78-2.78,6.11-4.17,9.99-4.17c3.94,0,7.31,1.39,10.09,4.17
		c2.78,2.72,4.17,6.05,4.17,9.99c0,3.95-1.39,7.31-4.17,10.09c-2.72,2.78-6.05,4.17-9.99,4.17c-3.95,0-7.31-1.39-10.09-4.17
		C576.84,133.43,575.45,130.04,575.45,126.02z M600.57,165.31v94.49h-21.83v-94.49H600.57z"/>
	<path class="st0" d="M696.79,169.39v29c-4.98-6.08-9.44-10.25-13.39-12.51c-3.88-2.33-8.44-3.49-13.68-3.49
		c-8.21,0-15.04,2.88-20.47,8.63c-5.43,5.76-8.15,12.97-8.15,21.63c0,8.86,2.62,16.14,7.86,21.83c5.3,5.69,12.06,8.54,20.28,8.54
		c5.24,0,9.86-1.13,13.87-3.4c3.88-2.2,8.44-6.47,13.68-12.81v28.81c-8.86,4.59-17.72,6.89-26.58,6.89
		c-14.62,0-26.84-4.72-36.67-14.16c-9.83-9.51-14.75-21.31-14.75-35.41c0-14.1,4.98-26,14.94-35.7c9.96-9.7,22.18-14.55,36.67-14.55
		C679.71,162.69,688.51,164.93,696.79,169.39z"/>
	<path class="st0" d="M805.3,238.55h55.78v21.25h-100.6l52-62.96c5.11-6.27,9.39-11.71,12.85-16.3c3.46-4.59,6.09-8.44,7.91-11.54
		c3.69-6.08,5.53-11.54,5.53-16.39c0-6.98-2.46-12.84-7.37-17.56c-4.92-4.72-11-7.08-18.24-7.08c-15.13,0-23.8,8.96-26,26.87h-22.51
		c3.62-31.56,19.56-47.34,47.83-47.34c13.64,0,25.09,4.33,34.34,13c9.31,8.67,13.97,19.4,13.97,32.21c0,8.15-2.17,16.14-6.5,23.96
		c-2.2,4.07-5.42,8.91-9.65,14.5c-4.24,5.59-9.59,12.21-16.05,19.84L805.3,238.55z"/>
</g>
</svg>
