<?xml version="1.0" encoding="utf-8"?>
<!-- Generator: Adobe Illustrator 25.1.0, SVG Export Plug-In . SVG Version: 6.00 Build 0)  -->
<svg version="1.1" xmlns="http://www.w3.org/2000/svg" xmlns:xlink="http://www.w3.org/1999/xlink" x="0px" y="0px"
	 viewBox="0 0 477.1 470.36" style="enable-background:new 0 0 477.1 470.36;" xml:space="preserve">
<style type="text/css">
	.st0{fill:url(#SVGID_1_);}
	.st1{fill:#FFFFFF;stroke:#000000;stroke-width:0.9011;stroke-miterlimit:10;}
	.st2{fill:none;stroke:#FFFFFF;stroke-width:5;stroke-miterlimit:10;}
	.st3{fill:#FFFFFF;}
	.st4{fill:#1B1B1B;}
	.st5{fill:url(#SVGID_2_);}
	.st6{fill:none;stroke:#FFFFFF;stroke-width:5;stroke-linecap:round;stroke-linejoin:round;stroke-miterlimit:10;}
	.st7{fill:url(#SVGID_3_);}
	.st8{fill:none;stroke:#FFFFFF;stroke-width:3.1959;stroke-linecap:round;stroke-linejoin:round;stroke-miterlimit:10;}
	.st9{fill:url(#SVGID_4_);}
	.st10{display:none;}
	.st11{display:inline;fill:url(#SVGID_5_);}
	.st12{display:inline;}
	.st13{display:inline;fill:url(#SVGID_6_);}
	.st14{display:inline;fill:url(#SVGID_7_);}
	.st15{display:inline;fill:none;stroke:#FFFFFF;stroke-width:5;stroke-linecap:round;stroke-linejoin:round;stroke-miterlimit:10;}
</style>
<g id="Layer_1">
	<g>
		<g>
			<linearGradient id="SVGID_1_" gradientUnits="userSpaceOnUse" x1="111.561" y1="223.626" x2="111.561" y2="2.581">
				<stop  offset="8.680555e-04" style="stop-color:#141413"/>
				<stop  offset="0.9756" style="stop-color:#424242"/>
			</linearGradient>
			<path class="st0" d="M171.06,217.57h-119c-26.51,0-48-21.49-48-48v-119c0-26.51,21.49-48,48-48h119c26.51,0,48,21.49,48,48v119
				C219.06,196.08,197.57,217.57,171.06,217.57z"/>
			<g>
				<path class="st1" d="M169.92,148.47H53.2c-6.08,0-11.01-4.93-11.01-11.01v-7.84h138.74v7.84
					C180.93,143.54,176,148.47,169.92,148.47z"/>
				<path class="st2" d="M179.81,89.46c0-1.47,0.18-2.89,0.51-4.25c1.66-6.74-3.12-13.47-10.06-13.53c-0.06,0-0.11,0-0.17,0h-22.05
					H75.08H53.03c-0.06,0-0.11,0-0.17,0c-6.94,0.06-11.71,6.79-10.06,13.53c0.33,1.36,0.51,2.79,0.51,4.25v39.74
					c0,1.47-0.18,2.89-0.51,4.25c-1.66,6.74,3.12,13.47,10.06,13.53c0.06,0,0.11,0,0.17,0h22.05h72.96h22.05c0.06,0,0.11,0,0.17,0
					c6.94-0.06,11.71-6.79,10.06-13.53c-0.33-1.36-0.51-2.79-0.51-4.25V89.46z"/>
				<g>
					<g>
						<path class="st3" d="M102.42,82.24V84c-0.86-0.72-1.74-1.08-2.66-1.08c-1.01,0-1.86,0.36-2.55,1.09
							c-0.7,0.72-1.04,1.6-1.04,2.65c0,1.03,0.35,1.9,1.04,2.61c0.7,0.71,1.55,1.06,2.56,1.06c0.52,0,0.97-0.08,1.33-0.25
							c0.2-0.08,0.41-0.2,0.63-0.34c0.22-0.14,0.45-0.32,0.69-0.52V91c-0.85,0.48-1.74,0.72-2.67,0.72c-1.4,0-2.6-0.49-3.6-1.47
							c-0.99-0.99-1.48-2.18-1.48-3.58c0-1.25,0.41-2.37,1.24-3.35c1.02-1.2,2.34-1.8,3.95-1.8
							C100.74,81.52,101.59,81.76,102.42,82.24z"/>
						<path class="st3" d="M103.08,86.58c0-1.38,0.51-2.57,1.52-3.56c1.01-0.99,2.22-1.49,3.64-1.49c1.4,0,2.6,0.5,3.6,1.5
							c1.01,1,1.51,2.2,1.51,3.61c0,1.41-0.5,2.61-1.51,3.6c-1.01,0.99-2.24,1.48-3.67,1.48c-1.27,0-2.41-0.44-3.42-1.32
							C103.64,89.43,103.08,88.16,103.08,86.58z M104.58,86.6c0,1.09,0.36,1.98,1.09,2.68c0.73,0.7,1.56,1.05,2.51,1.05
							c1.03,0,1.9-0.36,2.61-1.07c0.71-0.72,1.06-1.6,1.06-2.63c0-1.05-0.35-1.93-1.05-2.63c-0.7-0.71-1.56-1.07-2.58-1.07
							c-1.02,0-1.89,0.36-2.59,1.07C104.93,84.7,104.58,85.57,104.58,86.6z"/>
						<path class="st3" d="M116.05,81.72v5.92c0,0.84,0.14,1.46,0.41,1.85c0.41,0.56,0.99,0.85,1.74,0.85
							c0.75,0,1.33-0.28,1.74-0.85c0.28-0.38,0.41-0.99,0.41-1.85v-5.92h1.48v6.33c0,1.04-0.32,1.89-0.97,2.56
							c-0.73,0.75-1.62,1.12-2.67,1.12c-1.06,0-1.95-0.37-2.67-1.12c-0.64-0.67-0.97-1.52-0.97-2.56v-6.33H116.05z"/>
						<path class="st3" d="M125.03,87.55v3.99h-1.48v-9.83h1.68c0.82,0,1.44,0.06,1.86,0.17c0.42,0.11,0.8,0.33,1.12,0.65
							c0.56,0.55,0.85,1.25,0.85,2.09c0,0.9-0.3,1.61-0.9,2.14c-0.6,0.53-1.42,0.79-2.44,0.79H125.03z M125.03,86.18h0.55
							c1.36,0,2.04-0.52,2.04-1.57c0-1.01-0.7-1.52-2.11-1.52h-0.49V86.18z"/>
						<path class="st3" d="M129.44,86.58c0-1.38,0.51-2.57,1.52-3.56c1.01-0.99,2.22-1.49,3.64-1.49c1.4,0,2.6,0.5,3.6,1.5
							c1.01,1,1.51,2.2,1.51,3.61c0,1.41-0.5,2.61-1.51,3.6c-1.01,0.99-2.24,1.48-3.67,1.48c-1.27,0-2.41-0.44-3.42-1.32
							C130,89.43,129.44,88.16,129.44,86.58z M130.94,86.6c0,1.09,0.36,1.98,1.09,2.68c0.73,0.7,1.56,1.05,2.51,1.05
							c1.03,0,1.9-0.36,2.61-1.07c0.71-0.72,1.06-1.6,1.06-2.63c0-1.05-0.35-1.93-1.05-2.63c-0.7-0.71-1.56-1.07-2.58-1.07
							c-1.02,0-1.89,0.36-2.59,1.07C131.29,84.7,130.94,85.57,130.94,86.6z"/>
						<path class="st3" d="M140.93,91.54V81.05l7.17,7.5v-6.83h1.48v10.42l-7.17-7.48v6.88H140.93z"/>
					</g>
					<g>
						<path class="st3" d="M82.34,81.34l-1.74,4.98h0.61l0.61-1.72h1.47l0.6,1.72h0.61l-1.74-4.98H82.34z M83.08,83.99h-1.05
							l0.53-1.55L83.08,83.99z"/>
						<polygon class="st3" points="88.31,86.32 88.31,81.34 87.86,81.34 86.52,83.9 85.31,81.34 84.86,81.34 84.86,86.32 
							85.47,86.32 85.47,82.88 86.24,84.59 86.79,84.59 87.71,82.84 87.71,86.32 						"/>
						<polygon class="st3" points="91.93,85.71 89.42,85.71 89.42,84.13 91.93,84.13 91.93,83.53 89.42,83.53 89.42,81.95 
							91.93,81.95 91.93,81.34 88.82,81.34 88.82,86.32 91.93,86.32 						"/>
						<path class="st3" d="M76.58,88.94c0.06-0.1,0.1-0.21,0.14-0.33c0.03-0.12,0.05-0.24,0.05-0.36c0-0.25-0.06-0.49-0.18-0.7
							c-0.11-0.19-0.26-0.34-0.44-0.46c-0.17-0.11-0.35-0.17-0.54-0.19l-0.05-0.01c-0.13-0.01-0.26-0.03-0.44-0.03l-1.58,0v4.98
							l1.58,0c0.15,0,0.31-0.01,0.48-0.03c0.18-0.02,0.36-0.08,0.53-0.19c0.18-0.11,0.33-0.27,0.44-0.46
							c0.12-0.21,0.18-0.45,0.18-0.7c0-0.12-0.02-0.24-0.05-0.36c-0.03-0.12-0.08-0.23-0.14-0.33c-0.05-0.1-0.12-0.19-0.2-0.26
							c-0.06-0.06-0.12-0.11-0.2-0.16c0.07-0.05,0.14-0.1,0.2-0.16C76.47,89.12,76.53,89.03,76.58,88.94z M75.7,88.87
							c-0.08,0.04-0.16,0.07-0.24,0.08c-0.09,0.01-0.2,0.02-0.32,0.02c-0.3,0-0.53,0-0.82,0v-1.32l0.38,0c0.16,0,0.27,0,0.44,0
							c0.12,0,0.22,0.01,0.32,0.02c0.09,0.01,0.17,0.04,0.24,0.08c0.09,0.05,0.16,0.13,0.21,0.21c0.03,0.05,0.05,0.11,0.07,0.17
							c0.02,0.06,0.02,0.12,0.02,0.18c0,0.06-0.01,0.12-0.03,0.18c-0.02,0.06-0.04,0.12-0.07,0.17
							C75.85,88.75,75.78,88.82,75.7,88.87z M75.44,89.77c0.09,0.01,0.18,0.04,0.26,0.09c0.08,0.04,0.14,0.11,0.2,0.2
							c0.03,0.05,0.05,0.11,0.07,0.17C75.99,90.28,76,90.34,76,90.4c0,0.06-0.01,0.12-0.02,0.18c-0.02,0.06-0.04,0.12-0.06,0.17
							c-0.05,0.09-0.12,0.16-0.21,0.21c-0.08,0.05-0.17,0.08-0.26,0.09c-0.1,0.01-0.2,0.02-0.3,0.02l-0.08,0
							c-0.12,0-0.22,0.01-0.36,0.01h-0.38v-1.31l0.82,0C75.24,89.75,75.34,89.75,75.44,89.77z"/>
						<polygon class="st3" points="73.55,86.32 74.15,86.32 74.15,84.13 76.41,84.13 76.41,83.53 74.15,83.53 74.15,81.95 
							76.79,81.95 76.79,81.34 73.55,81.34 						"/>
						<path class="st3" d="M79.82,83.76c0.13-0.11,0.22-0.24,0.26-0.31c0.12-0.22,0.17-0.46,0.17-0.74c0-0.25-0.06-0.48-0.18-0.69
							c-0.1-0.19-0.25-0.35-0.44-0.46c-0.17-0.1-0.34-0.16-0.52-0.18c-0.17-0.02-0.33-0.03-0.48-0.03c0,0,0,0,0,0
							c-0.47-0.01-1.39,0-1.4,0l-0.07,0l0,4.97h0.61v-2.18c0.23,0,0.96,0,1.16,0l0.73,2.19l0.61-0.01l-0.79-2.33
							C79.58,83.93,79.71,83.85,79.82,83.76z M79.54,83.18c-0.08,0.13-0.13,0.2-0.23,0.25c-0.09,0.05-0.18,0.06-0.29,0.07
							c-0.13,0.01-0.29,0.02-0.42,0.02c-0.14,0-0.43,0-0.66,0l-0.17,0v-1.58l0.15,0c0.23,0,0.53,0,0.67,0
							c0.14,0,0.27,0.01,0.38,0.03c0.11,0.01,0.21,0.05,0.31,0.1c0.05,0.03,0.1,0.07,0.14,0.11c0.04,0.04,0.08,0.09,0.11,0.14
							c0.04,0.06,0.06,0.13,0.08,0.21c0.02,0.07,0.03,0.15,0.03,0.22c0,0.07-0.01,0.15-0.03,0.22
							C79.6,83.05,79.57,83.12,79.54,83.18z"/>
						<polygon class="st3" points="91.05,86.87 90.02,88.8 88.99,86.87 88.06,86.87 89.6,89.67 89.6,91.85 90.43,91.85 90.43,89.67 
							91.97,86.87 						"/>
					</g>
				</g>
				<g>
					<path class="st3" d="M80.01,112.03v-2.98c1.48,0,2.47-0.16,2.98-0.49c0.91-0.58,1.36-1.51,1.36-2.78
						c0-0.99-0.33-1.79-0.99-2.41c-0.65-0.63-1.49-0.94-2.53-0.94c-0.97,0-1.72,0.23-2.24,0.7c-0.51,0.48-0.89,1.29-1.14,2.42h-3.47
						c0.36-2.17,1.1-3.77,2.21-4.78c1.12-1.01,2.68-1.52,4.68-1.52c2.02,0,3.67,0.6,4.95,1.79c1.28,1.19,1.92,2.72,1.92,4.59
						c0,2.11-0.84,3.76-2.51,4.94c1.92,1.13,2.87,2.96,2.87,5.49c0,2.07-0.7,3.77-2.09,5.09c-1.4,1.32-3.19,1.97-5.37,1.97
						c-2.78,0-4.85-1.02-6.19-3.07c-0.56-0.86-0.91-2.04-1.06-3.56h3.37c0.18,1.12,0.62,1.97,1.31,2.57
						c0.69,0.59,1.6,0.89,2.72,0.89c1.13,0,2.06-0.37,2.8-1.12c0.74-0.77,1.11-1.74,1.11-2.92c0-1.56-0.55-2.66-1.66-3.32
						C82.37,112.22,81.37,112.03,80.01,112.03z"/>
					<path class="st3" d="M93.66,118.43l2.99,1.17l-4.26,8.54l-2.27-0.94L93.66,118.43z"/>
					<path class="st3" d="M98.68,111.06c0-3.68,0.86-6.62,2.57-8.81c1.54-1.98,3.4-2.98,5.58-2.98c2.18,0,4.04,0.99,5.58,2.98
						c1.72,2.19,2.57,5.18,2.57,8.96c0,3.77-0.86,6.75-2.57,8.95c-1.54,1.98-3.39,2.98-5.56,2.98c-2.17,0-4.04-0.99-5.59-2.98
						C99.54,117.96,98.68,114.93,98.68,111.06z M102.11,111.07c0,2.56,0.44,4.69,1.33,6.39c0.89,1.67,2.02,2.5,3.4,2.5
						c1.37,0,2.5-0.83,3.4-2.5c0.9-1.66,1.35-3.74,1.35-6.27s-0.45-4.62-1.35-6.28c-0.9-1.66-2.03-2.48-3.4-2.48
						c-1.36,0-2.48,0.83-3.38,2.48C102.56,106.56,102.11,108.61,102.11,111.07z"/>
					<path class="st3" d="M116.06,111.06c0-3.68,0.86-6.62,2.57-8.81c1.54-1.98,3.4-2.98,5.58-2.98s4.04,0.99,5.58,2.98
						c1.72,2.19,2.57,5.18,2.57,8.96c0,3.77-0.86,6.75-2.57,8.95c-1.54,1.98-3.39,2.98-5.56,2.98s-4.04-0.99-5.59-2.98
						C116.92,117.96,116.06,114.93,116.06,111.06z M119.48,111.07c0,2.56,0.44,4.69,1.33,6.39c0.89,1.67,2.02,2.5,3.4,2.5
						c1.37,0,2.5-0.83,3.4-2.5c0.9-1.66,1.35-3.74,1.35-6.27s-0.45-4.62-1.35-6.28c-0.9-1.66-2.03-2.48-3.4-2.48
						c-1.36,0-2.48,0.83-3.38,2.48C119.93,106.56,119.48,108.61,119.48,111.07z"/>
					<path class="st3" d="M133.43,111.06c0-3.68,0.86-6.62,2.57-8.81c1.54-1.98,3.4-2.98,5.58-2.98c2.18,0,4.04,0.99,5.58,2.98
						c1.72,2.19,2.57,5.18,2.57,8.96c0,3.77-0.86,6.75-2.57,8.95c-1.54,1.98-3.39,2.98-5.56,2.98c-2.17,0-4.04-0.99-5.59-2.98
						C134.29,117.96,133.43,114.93,133.43,111.06z M136.86,111.07c0,2.56,0.44,4.69,1.33,6.39c0.89,1.67,2.02,2.5,3.4,2.5
						c1.37,0,2.5-0.83,3.4-2.5c0.9-1.66,1.35-3.74,1.35-6.27s-0.45-4.62-1.35-6.28c-0.9-1.66-2.03-2.48-3.4-2.48
						c-1.36,0-2.48,0.83-3.38,2.48C137.31,106.56,136.86,108.61,136.86,111.07z"/>
				</g>
				<g>
					<path class="st4" d="M73.6,141.62v-6.64l4.53,4.74v-4.32h0.94v6.6l-4.53-4.73v4.35H73.6z"/>
					<path class="st4" d="M83.64,139.87h-2.81c0.02,0.32,0.13,0.58,0.31,0.77c0.19,0.19,0.42,0.28,0.71,0.28
						c0.23,0,0.41-0.05,0.56-0.16c0.14-0.11,0.31-0.31,0.5-0.6l0.77,0.43c-0.12,0.2-0.24,0.37-0.37,0.52
						c-0.13,0.14-0.27,0.26-0.42,0.35c-0.15,0.09-0.31,0.16-0.49,0.2c-0.17,0.04-0.36,0.06-0.57,0.06c-0.59,0-1.06-0.19-1.41-0.56
						c-0.35-0.38-0.53-0.88-0.53-1.51c0-0.62,0.17-1.12,0.52-1.51c0.35-0.38,0.81-0.57,1.38-0.57c0.58,0,1.03,0.18,1.37,0.55
						c0.33,0.37,0.5,0.87,0.5,1.52L83.64,139.87z M82.71,139.13c-0.13-0.48-0.43-0.72-0.91-0.72c-0.11,0-0.21,0.02-0.31,0.05
						c-0.1,0.03-0.18,0.08-0.26,0.14c-0.08,0.06-0.15,0.14-0.2,0.23c-0.06,0.09-0.1,0.19-0.13,0.3H82.71z"/>
					<path class="st4" d="M84.59,137.69l1.03,2.24l1.11-2.6l1.12,2.6l1.01-2.24h1.01l-2.05,4.22l-1.09-2.53l-1.1,2.53l-2.05-4.22
						H84.59z"/>
					<path class="st4" d="M92.2,137.69h0.91v0.36c0.17-0.18,0.32-0.31,0.45-0.37c0.13-0.07,0.3-0.1,0.5-0.1
						c0.44,0,0.79,0.19,1.05,0.58c0.28-0.39,0.67-0.58,1.16-0.58c0.88,0,1.33,0.54,1.33,1.61v2.42h-0.91v-2.18
						c0-0.38-0.05-0.64-0.14-0.8c-0.09-0.16-0.25-0.24-0.46-0.24c-0.25,0-0.43,0.09-0.55,0.28c-0.11,0.19-0.17,0.49-0.17,0.91v2.03
						h-0.91v-2.17c0-0.7-0.2-1.05-0.6-1.05c-0.26,0-0.44,0.1-0.56,0.29c-0.12,0.19-0.18,0.49-0.18,0.9v2.03H92.2V137.69z"/>
					<path class="st4" d="M101.89,139.87h-2.81c0.02,0.32,0.13,0.58,0.31,0.77c0.19,0.19,0.42,0.28,0.71,0.28
						c0.23,0,0.41-0.05,0.56-0.16c0.14-0.11,0.31-0.31,0.5-0.6l0.77,0.43c-0.12,0.2-0.24,0.37-0.37,0.52
						c-0.13,0.14-0.27,0.26-0.42,0.35c-0.15,0.09-0.31,0.16-0.49,0.2c-0.17,0.04-0.36,0.06-0.57,0.06c-0.59,0-1.06-0.19-1.41-0.56
						c-0.35-0.38-0.53-0.88-0.53-1.51c0-0.62,0.17-1.12,0.52-1.51c0.35-0.38,0.81-0.57,1.38-0.57c0.58,0,1.03,0.18,1.37,0.55
						c0.33,0.37,0.5,0.87,0.5,1.52L101.89,139.87z M100.95,139.13c-0.13-0.48-0.43-0.72-0.91-0.72c-0.11,0-0.21,0.02-0.31,0.05
						c-0.1,0.03-0.18,0.08-0.26,0.14s-0.15,0.14-0.2,0.23c-0.06,0.09-0.1,0.19-0.13,0.3H100.95z"/>
					<path class="st4" d="M102.46,137.69h0.91v0.36c0.17-0.18,0.32-0.31,0.45-0.37c0.13-0.07,0.3-0.1,0.5-0.1
						c0.44,0,0.79,0.19,1.05,0.58c0.28-0.39,0.67-0.58,1.16-0.58c0.88,0,1.33,0.54,1.33,1.61v2.42h-0.91v-2.18
						c0-0.38-0.05-0.64-0.14-0.8c-0.09-0.16-0.25-0.24-0.46-0.24c-0.25,0-0.43,0.09-0.55,0.28c-0.11,0.19-0.17,0.49-0.17,0.91v2.03
						h-0.91v-2.17c0-0.7-0.2-1.05-0.6-1.05c-0.26,0-0.44,0.1-0.56,0.29c-0.12,0.19-0.18,0.49-0.18,0.9v2.03h-0.91V137.69z"/>
					<path class="st4" d="M109.48,134.82v3.33c0.36-0.38,0.77-0.56,1.23-0.56c0.53,0,0.97,0.2,1.32,0.59
						c0.35,0.39,0.53,0.88,0.53,1.47c0,0.6-0.18,1.1-0.53,1.5c-0.35,0.39-0.8,0.59-1.33,0.59c-0.45,0-0.86-0.17-1.22-0.52v0.41
						h-0.91v-6.8H109.48z M111.64,139.68c0-0.38-0.1-0.68-0.31-0.92c-0.21-0.24-0.47-0.36-0.78-0.36c-0.33,0-0.6,0.12-0.81,0.35
						c-0.21,0.23-0.31,0.53-0.31,0.9c0,0.38,0.1,0.69,0.31,0.91c0.2,0.23,0.47,0.35,0.81,0.35c0.31,0,0.57-0.12,0.78-0.35
						C111.53,140.33,111.64,140.04,111.64,139.68z"/>
					<path class="st4" d="M116.68,139.87h-2.81c0.02,0.32,0.13,0.58,0.31,0.77c0.19,0.19,0.42,0.28,0.71,0.28
						c0.23,0,0.41-0.05,0.56-0.16c0.14-0.11,0.31-0.31,0.5-0.6l0.77,0.43c-0.12,0.2-0.24,0.37-0.37,0.52
						c-0.13,0.14-0.27,0.26-0.42,0.35c-0.15,0.09-0.31,0.16-0.49,0.2c-0.17,0.04-0.36,0.06-0.57,0.06c-0.59,0-1.06-0.19-1.41-0.56
						c-0.35-0.38-0.53-0.88-0.53-1.51c0-0.62,0.17-1.12,0.52-1.51c0.35-0.38,0.81-0.57,1.38-0.57c0.58,0,1.03,0.18,1.37,0.55
						c0.33,0.37,0.5,0.87,0.5,1.52L116.68,139.87z M115.75,139.13c-0.13-0.48-0.43-0.72-0.91-0.72c-0.11,0-0.21,0.02-0.31,0.05
						c-0.1,0.03-0.18,0.08-0.26,0.14s-0.15,0.14-0.2,0.23c-0.06,0.09-0.1,0.19-0.13,0.3H115.75z"/>
					<path class="st4" d="M117.26,137.69h0.91v0.35c0.17-0.17,0.31-0.29,0.44-0.36c0.13-0.07,0.29-0.1,0.47-0.1
						c0.24,0,0.49,0.08,0.75,0.23l-0.41,0.83c-0.17-0.12-0.34-0.19-0.5-0.19c-0.49,0-0.74,0.37-0.74,1.12v2.03h-0.91V137.69z"/>
					<path class="st4" d="M122.21,138.36l-0.75,0.4c-0.12-0.24-0.26-0.36-0.44-0.36c-0.08,0-0.15,0.03-0.21,0.08
						c-0.06,0.06-0.09,0.13-0.09,0.21c0,0.15,0.17,0.3,0.52,0.45c0.48,0.21,0.8,0.4,0.97,0.57c0.17,0.17,0.25,0.41,0.25,0.7
						c0,0.38-0.14,0.7-0.42,0.95c-0.27,0.24-0.6,0.36-0.98,0.36c-0.66,0-1.12-0.32-1.4-0.96l0.77-0.36
						c0.11,0.19,0.19,0.31,0.25,0.36c0.11,0.1,0.24,0.15,0.39,0.15c0.31,0,0.46-0.14,0.46-0.42c0-0.16-0.12-0.31-0.35-0.45
						c-0.09-0.05-0.18-0.09-0.27-0.13c-0.09-0.04-0.18-0.09-0.28-0.13c-0.26-0.13-0.45-0.26-0.56-0.39
						c-0.14-0.16-0.21-0.37-0.21-0.63c0-0.34,0.12-0.62,0.35-0.85c0.24-0.22,0.53-0.33,0.87-0.33
						C121.59,137.59,121.97,137.85,122.21,138.36z"/>
					<path class="st4" d="M122.87,134.82h0.91v3.21c0.32-0.29,0.68-0.43,1.07-0.43c0.44,0,0.8,0.14,1.06,0.43
						c0.23,0.25,0.34,0.65,0.34,1.2v2.4h-0.91v-2.32c0-0.31-0.06-0.54-0.17-0.68c-0.11-0.14-0.29-0.21-0.54-0.21
						c-0.32,0-0.54,0.1-0.67,0.29c-0.13,0.2-0.19,0.54-0.19,1.02v1.9h-0.91V134.82z"/>
					<path class="st4" d="M126.84,136.06c0-0.16,0.06-0.3,0.17-0.41c0.12-0.12,0.25-0.17,0.41-0.17c0.16,0,0.3,0.06,0.42,0.17
						c0.12,0.11,0.17,0.25,0.17,0.41c0,0.16-0.06,0.3-0.17,0.42c-0.11,0.12-0.25,0.17-0.41,0.17c-0.16,0-0.3-0.06-0.42-0.17
						C126.9,136.37,126.84,136.23,126.84,136.06z M127.88,137.69v3.92h-0.91v-3.92H127.88z"/>
					<path class="st4" d="M129.53,143.75h-0.91v-6.06h0.91v0.43c0.36-0.36,0.76-0.54,1.22-0.54c0.54,0,0.98,0.2,1.33,0.6
						c0.35,0.39,0.53,0.89,0.53,1.49c0,0.59-0.18,1.08-0.53,1.47c-0.35,0.39-0.79,0.58-1.32,0.58c-0.46,0-0.87-0.18-1.23-0.55
						V143.75z M131.68,139.68c0-0.38-0.1-0.68-0.31-0.92c-0.21-0.24-0.47-0.36-0.78-0.36c-0.33,0-0.6,0.12-0.81,0.35
						s-0.31,0.53-0.31,0.91c0,0.37,0.1,0.67,0.31,0.91c0.2,0.23,0.47,0.35,0.81,0.35c0.31,0,0.57-0.12,0.78-0.35
						C131.58,140.33,131.68,140.03,131.68,139.68z"/>
					<path class="st4" d="M135.1,139.63c0-0.57,0.2-1.05,0.61-1.45c0.41-0.4,0.9-0.6,1.48-0.6c0.59,0,1.08,0.2,1.49,0.6
						c0.4,0.4,0.6,0.89,0.6,1.47c0,0.59-0.2,1.08-0.61,1.48c-0.41,0.39-0.91,0.59-1.5,0.59c-0.59,0-1.08-0.2-1.48-0.6
						C135.3,140.73,135.1,140.23,135.1,139.63z M136.03,139.64c0,0.39,0.1,0.7,0.31,0.93c0.21,0.23,0.5,0.35,0.85,0.35
						c0.35,0,0.64-0.11,0.85-0.34c0.21-0.23,0.32-0.53,0.32-0.91c0-0.38-0.11-0.69-0.32-0.91c-0.21-0.23-0.5-0.35-0.85-0.35
						c-0.35,0-0.63,0.12-0.84,0.35S136.03,139.28,136.03,139.64z"/>
					<path class="st4" d="M139.83,137.69h0.91v0.36c0.32-0.31,0.67-0.47,1.07-0.47c0.46,0,0.81,0.14,1.07,0.43
						c0.22,0.24,0.33,0.64,0.33,1.2v2.4h-0.91v-2.19c0-0.39-0.05-0.65-0.16-0.8c-0.1-0.15-0.3-0.23-0.57-0.23
						c-0.3,0-0.51,0.1-0.64,0.3c-0.12,0.2-0.19,0.54-0.19,1.03v1.89h-0.91V137.69z"/>
					<path class="st4" d="M144.85,134.82v6.8h-0.91v-6.8H144.85z"/>
					<path class="st4" d="M146.89,140.89l-1.76-3.19h1.05l1.2,2.26l1.12-2.26h1.02l-3.13,6.06h-1.04L146.89,140.89z"/>
				</g>
			</g>
			<linearGradient id="SVGID_2_" gradientUnits="userSpaceOnUse" x1="365.5381" y1="223.9681" x2="365.5381" y2="2.923">
				<stop  offset="8.680555e-04" style="stop-color:#141413"/>
				<stop  offset="0.9756" style="stop-color:#424242"/>
			</linearGradient>
			<path class="st5" d="M425.04,217.91h-119c-26.51,0-48-21.49-48-48v-119c0-26.51,21.49-48,48-48h119c26.51,0,48,21.49,48,48v119
				C473.04,196.42,451.55,217.91,425.04,217.91z"/>
			<g>
				<circle class="st6" cx="335.12" cy="146.38" r="11.61"/>
				<circle class="st6" cx="403.5" cy="146.38" r="11.61"/>
				<path class="st6" d="M420.51,94.61c0,3.72,1.68,7.05,4.31,9.28c2.5,2.11,6.35,0.19,6.35-3.09V84.04c0-3.11-2.52-5.62-5.62-5.62
					h-5.04V94.61z"/>
				<path class="st6" d="M421.1,145.86h5.05c0.06,0,0.11,0,0.17,0c6.94-0.06,11.71-6.79,10.06-13.53c-0.33-1.36-0.51-2.79-0.51-4.25
					v-18.11c0-1.77-1.43-3.2-3.2-3.2h0c-6.71,0-12.15-5.44-12.15-12.15V73.73c0-1.77-1.43-3.2-3.2-3.2h-13.22h-72.96h-22.05
					c-0.06,0-0.11,0-0.17,0c-6.94,0.06-11.71,6.79-10.06,13.53c0.33,1.36,0.51,2.79,0.51,4.25v39.74c0,1.47-0.18,2.89-0.51,4.25
					c-1.66,6.74,3.12,13.47,10.06,13.53c0.06,0,0.11,0,0.17,0h8.39"/>
				<line class="st6" x1="352.78" y1="145.86" x2="386.07" y2="145.86"/>
				<polyline class="st6" points="299.7,120.08 381.07,120.08 381.07,70.53 				"/>
			</g>
			<g>
				<path class="st3" d="M340,88.27l-2.6,7.47h0.92l0.91-2.59h2.21l0.9,2.59h0.92l-2.61-7.47H340z M341.11,92.25h-1.58l0.79-2.33
					L341.11,92.25z"/>
				<polygon class="st3" points="348.95,95.74 348.95,88.27 348.27,88.27 346.27,92.12 344.46,88.27 343.78,88.27 343.78,95.74 
					344.69,95.74 344.69,90.59 345.85,93.16 346.68,93.16 348.05,90.53 348.05,95.74 				"/>
				<polygon class="st3" points="354.37,94.83 350.62,94.83 350.62,92.46 354.37,92.46 354.37,91.55 350.62,91.55 350.62,89.19 
					354.37,89.19 354.37,88.28 349.72,88.28 349.72,95.74 354.37,95.74 				"/>
				<path class="st3" d="M331.37,99.67c0.09-0.15,0.16-0.32,0.21-0.5c0.05-0.18,0.08-0.36,0.08-0.54c0-0.38-0.09-0.73-0.27-1.04
					c-0.17-0.28-0.39-0.51-0.67-0.68c-0.26-0.16-0.53-0.26-0.8-0.29l-0.07-0.01c-0.19-0.02-0.39-0.04-0.66-0.04l-2.37,0v7.47l2.37,0
					c0.22,0,0.46-0.01,0.72-0.04c0.27-0.03,0.54-0.13,0.8-0.29c0.28-0.17,0.5-0.4,0.67-0.68c0.18-0.32,0.27-0.67,0.27-1.05
					c0-0.18-0.03-0.36-0.08-0.54c-0.05-0.17-0.12-0.34-0.21-0.49c-0.08-0.15-0.18-0.28-0.29-0.39c-0.09-0.09-0.19-0.17-0.3-0.24
					c0.11-0.07,0.2-0.15,0.3-0.24C331.19,99.94,331.29,99.81,331.37,99.67z M330.04,99.56c-0.11,0.07-0.24,0.11-0.36,0.13
					c-0.14,0.02-0.3,0.03-0.48,0.03c-0.45-0.01-0.79,0-1.23,0v-1.98l0.57,0c0.24,0,0.41,0,0.66,0.01c0.17,0,0.33,0.01,0.47,0.03
					c0.13,0.02,0.25,0.06,0.37,0.12c0.13,0.08,0.23,0.19,0.31,0.31c0.04,0.08,0.08,0.16,0.1,0.26c0.02,0.09,0.04,0.18,0.04,0.27
					c0,0.09-0.01,0.18-0.04,0.27c-0.03,0.09-0.06,0.18-0.1,0.25C330.26,99.39,330.16,99.5,330.04,99.56z M329.65,100.91
					c0.14,0.01,0.27,0.06,0.39,0.13c0.12,0.06,0.22,0.17,0.3,0.3c0.04,0.08,0.08,0.16,0.1,0.25c0.03,0.09,0.04,0.18,0.04,0.27
					c0,0.09-0.01,0.18-0.04,0.27c-0.02,0.09-0.06,0.18-0.1,0.25c-0.08,0.13-0.18,0.23-0.31,0.31c-0.12,0.07-0.25,0.11-0.39,0.13
					c-0.15,0.02-0.3,0.02-0.45,0.02l-0.12,0c-0.18,0-0.34,0.01-0.54,0.01h-0.57v-1.97l1.23,0
					C329.35,100.89,329.5,100.9,329.65,100.91z"/>
				<polygon class="st3" points="326.81,95.74 327.72,95.74 327.72,92.46 331.1,92.46 331.1,91.55 327.72,91.55 327.72,89.19 
					331.67,89.19 331.67,88.28 326.81,88.28 				"/>
				<path class="st3" d="M336.22,91.91c0.19-0.16,0.33-0.36,0.39-0.47c0.18-0.33,0.26-0.69,0.26-1.12c0-0.37-0.09-0.72-0.27-1.03
					c-0.15-0.29-0.37-0.52-0.66-0.69c-0.25-0.15-0.51-0.25-0.78-0.28c-0.26-0.03-0.5-0.04-0.71-0.04c0,0,0,0,0,0
					c-0.7-0.01-2.08-0.01-2.1-0.01l-0.11,0l0,7.46h0.91v-3.28c0.35,0,1.44,0,1.74,0l1.1,3.28l0.92-0.01l-1.18-3.5
					C335.86,92.16,336.05,92.04,336.22,91.91z M335.79,91.03c-0.12,0.19-0.2,0.3-0.34,0.38c-0.13,0.08-0.27,0.09-0.44,0.11
					c-0.2,0.02-0.43,0.03-0.62,0.03c-0.21,0-0.65,0-1,0l-0.25,0v-2.37l0.23,0c0.34,0,0.79,0,1.01,0c0.21,0,0.4,0.02,0.57,0.04
					c0.16,0.02,0.32,0.07,0.46,0.15c0.07,0.05,0.14,0.11,0.21,0.17c0.06,0.06,0.12,0.13,0.16,0.21c0.05,0.1,0.09,0.2,0.12,0.31
					c0.03,0.11,0.04,0.22,0.04,0.33c0,0.11-0.01,0.22-0.04,0.33C335.89,90.84,335.84,90.94,335.79,91.03z"/>
				<polygon class="st3" points="353.06,96.56 351.51,99.46 349.97,96.56 348.58,96.57 350.89,100.76 350.89,104.03 352.14,104.03 
					352.14,100.76 354.45,96.57 				"/>
			</g>
			<line class="st6" x1="308.73" y1="91.65" x2="287.67" y2="91.65"/>
			<line class="st6" x1="308.73" y1="108.51" x2="292.79" y2="108.51"/>
			<line class="st6" x1="308.73" y1="100.08" x2="276.23" y2="100.08"/>
			<line class="st6" x1="401.82" y1="46.15" x2="380.75" y2="46.15"/>
			<line class="st6" x1="399.59" y1="63.02" x2="385.88" y2="63.02"/>
			<line class="st6" x1="412.85" y1="54.59" x2="369.31" y2="54.59"/>
		</g>
		<g>
			<linearGradient id="SVGID_3_" gradientUnits="userSpaceOnUse" x1="111.561" y1="473.804" x2="111.561" y2="252.759">
				<stop  offset="8.680555e-04" style="stop-color:#141413"/>
				<stop  offset="0.9756" style="stop-color:#424242"/>
			</linearGradient>
			<path class="st7" d="M171.06,467.75h-119c-26.51,0-48-21.49-48-48v-119c0-26.51,21.49-48,48-48h119c26.51,0,48,21.49,48,48v119
				C219.06,446.26,197.57,467.75,171.06,467.75z"/>
			<g>
				<g>
					<path class="st2" d="M179.81,340.38c0-1.47,0.18-2.89,0.51-4.25c1.66-6.74-3.12-13.47-10.06-13.53c-0.06,0-0.11,0-0.17,0
						h-22.05H75.08H53.03c-0.06,0-0.11,0-0.17,0c-6.94,0.06-11.71,6.79-10.06,13.53c0.33,1.36,0.51,2.79,0.51,4.25v39.74
						c0,1.47-0.18,2.89-0.51,4.25c-1.66,6.74,3.12,13.47,10.06,13.53c0.06,0,0.11,0,0.17,0h22.05h72.96h22.05c0.06,0,0.11,0,0.17,0
						c6.94-0.06,11.71-6.79,10.06-13.53c-0.33-1.36-0.51-2.79-0.51-4.25V340.38z"/>
				</g>
				<g>
					<polyline class="st6" points="98.65,348.95 114.55,348.95 100.79,373.45 					"/>
					<g>
						<line class="st8" x1="125.99" y1="359.52" x2="117.35" y2="374.91"/>
						<circle class="st8" cx="117.05" cy="361.74" r="2.22"/>
						<circle class="st8" cx="126.28" cy="372.69" r="2.22"/>
					</g>
				</g>
			</g>
		</g>
		<g>
			<linearGradient id="SVGID_4_" gradientUnits="userSpaceOnUse" x1="365.5381" y1="474.2716" x2="365.5381" y2="253.2265">
				<stop  offset="8.680555e-04" style="stop-color:#141413"/>
				<stop  offset="0.9756" style="stop-color:#424242"/>
			</linearGradient>
			<path class="st9" d="M425.04,468.22h-119c-26.51,0-48-21.49-48-48v-119c0-26.51,21.49-48,48-48h119c26.51,0,48,21.49,48,48v119
				C473.04,446.73,451.55,468.22,425.04,468.22z"/>
			<g>
				<g>
					<path class="st2" d="M345.67,292.47c-1.47,0-2.89-0.18-4.25-0.51c-6.74-1.66-13.47,3.12-13.53,10.06c0,0.06,0,0.11,0,0.17
						v22.05v72.96v22.05c0,0.06,0,0.11,0,0.17c0.06,6.94,6.79,11.71,13.53,10.06c1.36-0.33,2.79-0.51,4.25-0.51h39.74
						c1.47,0,2.89,0.18,4.25,0.51c6.74,1.66,13.47-3.12,13.53-10.06c0-0.06,0-0.11,0-0.17V397.2v-72.96v-22.05c0-0.06,0-0.11,0-0.17
						c-0.06-6.94-6.79-11.71-13.53-10.06c-1.36,0.33-2.79,0.51-4.25,0.51H345.67z"/>
				</g>
				<line class="st2" x1="328.57" y1="369.97" x2="402.51" y2="369.97"/>
				<path class="st2" d="M379.39,369.67l-28.73-28.73c-1.48-1.48-1.48-3.89,0-5.38l17.5-17.5c1.48-1.48,3.89-1.48,5.38,0
					l29.54,29.54"/>
				<g>
					<line class="st6" x1="336.27" y1="386.76" x2="346.1" y2="386.76"/>
					<line class="st6" x1="336.27" y1="394.13" x2="367.71" y2="394.13"/>
					<line class="st6" x1="336.27" y1="401.51" x2="377.54" y2="401.51"/>
					<line class="st6" x1="336.27" y1="408.88" x2="360.39" y2="408.88"/>
					<line class="st6" x1="336.27" y1="416.26" x2="369.77" y2="416.26"/>
				</g>
				<g>
					<path class="st3" d="M394,376.12l0.59,1.19c0.07,0.14,0.2,0.23,0.35,0.25l1.31,0.19c0.38,0.05,0.53,0.52,0.25,0.78l-0.95,0.92
						c-0.11,0.11-0.16,0.26-0.13,0.41l0.22,1.3c0.06,0.38-0.33,0.66-0.67,0.48l-1.17-0.62c-0.13-0.07-0.29-0.07-0.43,0l-1.17,0.62
						c-0.34,0.18-0.73-0.11-0.67-0.48l0.22-1.3c0.03-0.15-0.02-0.3-0.13-0.41l-0.95-0.92c-0.27-0.27-0.12-0.73,0.25-0.78l1.31-0.19
						c0.15-0.02,0.28-0.12,0.35-0.25l0.59-1.19C393.34,375.78,393.83,375.78,394,376.12z"/>
					<path class="st3" d="M386.49,376.12l0.59,1.19c0.07,0.14,0.2,0.23,0.35,0.25l1.31,0.19c0.38,0.05,0.53,0.52,0.25,0.78
						l-0.95,0.92c-0.11,0.11-0.16,0.26-0.13,0.41l0.22,1.3c0.06,0.38-0.33,0.66-0.67,0.48l-1.17-0.62c-0.13-0.07-0.29-0.07-0.43,0
						l-1.17,0.62c-0.34,0.18-0.73-0.11-0.67-0.48l0.22-1.3c0.03-0.15-0.02-0.3-0.13-0.41l-0.95-0.92c-0.27-0.27-0.12-0.73,0.25-0.78
						l1.31-0.19c0.15-0.02,0.28-0.12,0.35-0.25l0.59-1.19C385.84,375.78,386.32,375.78,386.49,376.12z"/>
					<path class="st3" d="M378.99,376.12l0.59,1.19c0.07,0.14,0.2,0.23,0.35,0.25l1.31,0.19c0.38,0.05,0.53,0.52,0.25,0.78
						l-0.95,0.92c-0.11,0.11-0.16,0.26-0.13,0.41l0.22,1.3c0.06,0.38-0.33,0.66-0.67,0.48l-1.17-0.62c-0.13-0.07-0.29-0.07-0.43,0
						l-1.17,0.62c-0.34,0.18-0.73-0.11-0.67-0.48l0.22-1.3c0.03-0.15-0.02-0.3-0.13-0.41l-0.95-0.92c-0.27-0.27-0.12-0.73,0.25-0.78
						l1.31-0.19c0.15-0.02,0.28-0.12,0.35-0.25l0.59-1.19C378.33,375.78,378.82,375.78,378.99,376.12z"/>
					<path class="st3" d="M371.48,376.12l0.59,1.19c0.07,0.14,0.2,0.23,0.35,0.25l1.31,0.19c0.38,0.05,0.53,0.52,0.25,0.78
						l-0.95,0.92c-0.11,0.11-0.16,0.26-0.13,0.41l0.22,1.3c0.06,0.38-0.33,0.66-0.67,0.48l-1.17-0.62c-0.13-0.07-0.29-0.07-0.43,0
						l-1.17,0.62c-0.34,0.18-0.73-0.11-0.67-0.48l0.22-1.3c0.03-0.15-0.02-0.3-0.13-0.41l-0.95-0.92c-0.27-0.27-0.12-0.73,0.25-0.78
						l1.31-0.19c0.15-0.02,0.28-0.12,0.35-0.25l0.59-1.19C370.83,375.78,371.31,375.78,371.48,376.12z"/>
					<path class="st3" d="M363.98,376.12l0.59,1.19c0.07,0.14,0.2,0.23,0.35,0.25l1.31,0.19c0.38,0.05,0.53,0.52,0.25,0.78
						l-0.95,0.92c-0.11,0.11-0.16,0.26-0.13,0.41l0.22,1.3c0.06,0.38-0.33,0.66-0.67,0.48l-1.17-0.62c-0.13-0.07-0.29-0.07-0.43,0
						l-1.17,0.62c-0.34,0.18-0.73-0.11-0.67-0.48l0.22-1.3c0.03-0.15-0.02-0.3-0.13-0.41l-0.95-0.92c-0.27-0.27-0.12-0.73,0.25-0.78
						l1.31-0.19c0.15-0.02,0.28-0.12,0.35-0.25l0.59-1.19C363.32,375.78,363.81,375.78,363.98,376.12z"/>
				</g>
			</g>
		</g>
	</g>
</g>
<g id="Layer_2" class="st10">
	<linearGradient id="SVGID_5_" gradientUnits="userSpaceOnUse" x1="-133.7106" y1="-173.6137" x2="-133.7106" y2="-394.6588">
		<stop  offset="8.680555e-04" style="stop-color:#141413"/>
		<stop  offset="0.9756" style="stop-color:#424242"/>
	</linearGradient>
	<path class="st11" d="M-74.21-179.67h-119c-26.51,0-48-21.49-48-48v-119c0-26.51,21.49-48,48-48h119c26.51,0,48,21.49,48,48v119
		C-26.21-201.16-47.7-179.67-74.21-179.67z"/>
	<g class="st12">
		<path class="st1" d="M-75.35-248.77h-116.72c-6.08,0-11.01-4.93-11.01-11.01v-7.84h138.74v7.84
			C-64.34-253.7-69.27-248.77-75.35-248.77z"/>
		<path class="st2" d="M-65.46-307.78c0-1.47,0.18-2.89,0.51-4.25c1.66-6.74-3.12-13.47-10.06-13.53c-0.06,0-0.11,0-0.17,0h-22.05
			h-72.96h-22.05c-0.06,0-0.11,0-0.17,0c-6.94,0.06-11.71,6.79-10.06,13.53c0.33,1.36,0.51,2.79,0.51,4.25v39.74
			c0,1.47-0.18,2.89-0.51,4.25c-1.66,6.74,3.12,13.47,10.06,13.53c0.06,0,0.11,0,0.17,0h22.05h72.96h22.05c0.06,0,0.11,0,0.17,0
			c6.94-0.06,11.71-6.79,10.06-13.53c-0.33-1.36-0.51-2.79-0.51-4.25V-307.78z"/>
		<g>
			<g>
				<path class="st3" d="M-142.85-315v1.76c-0.86-0.72-1.74-1.08-2.66-1.08c-1.01,0-1.86,0.36-2.55,1.09
					c-0.7,0.72-1.04,1.6-1.04,2.65c0,1.03,0.35,1.9,1.04,2.61c0.7,0.71,1.55,1.06,2.56,1.06c0.52,0,0.97-0.08,1.33-0.25
					c0.2-0.08,0.41-0.2,0.63-0.34c0.22-0.14,0.45-0.32,0.69-0.52v1.79c-0.85,0.48-1.74,0.72-2.67,0.72c-1.4,0-2.6-0.49-3.6-1.47
					c-0.99-0.99-1.48-2.18-1.48-3.58c0-1.25,0.41-2.37,1.24-3.35c1.02-1.2,2.34-1.8,3.95-1.8
					C-144.53-315.72-143.68-315.48-142.85-315z"/>
				<path class="st3" d="M-142.19-310.66c0-1.38,0.51-2.57,1.52-3.56c1.01-0.99,2.22-1.49,3.64-1.49c1.4,0,2.6,0.5,3.6,1.5
					c1.01,1,1.51,2.2,1.51,3.61c0,1.41-0.5,2.61-1.51,3.6c-1.01,0.99-2.24,1.48-3.67,1.48c-1.27,0-2.41-0.44-3.42-1.32
					C-141.63-307.81-142.19-309.08-142.19-310.66z M-140.69-310.64c0,1.09,0.36,1.98,1.09,2.68c0.73,0.7,1.56,1.05,2.51,1.05
					c1.03,0,1.9-0.36,2.61-1.07c0.71-0.72,1.06-1.6,1.06-2.63c0-1.05-0.35-1.93-1.05-2.63c-0.7-0.71-1.56-1.07-2.58-1.07
					c-1.02,0-1.89,0.36-2.59,1.07C-140.34-312.54-140.69-311.67-140.69-310.64z"/>
				<path class="st3" d="M-129.22-315.52v5.92c0,0.84,0.14,1.46,0.41,1.85c0.41,0.56,0.99,0.85,1.74,0.85
					c0.75,0,1.33-0.28,1.74-0.85c0.28-0.38,0.41-0.99,0.41-1.85v-5.92h1.48v6.33c0,1.04-0.32,1.89-0.97,2.56
					c-0.73,0.75-1.62,1.12-2.67,1.12c-1.06,0-1.95-0.37-2.67-1.12c-0.64-0.67-0.97-1.52-0.97-2.56v-6.33H-129.22z"/>
				<path class="st3" d="M-120.24-309.69v3.99h-1.48v-9.83h1.68c0.82,0,1.44,0.06,1.86,0.17c0.42,0.11,0.8,0.33,1.12,0.65
					c0.56,0.55,0.85,1.25,0.85,2.09c0,0.9-0.3,1.61-0.9,2.14c-0.6,0.53-1.42,0.79-2.44,0.79H-120.24z M-120.24-311.06h0.55
					c1.36,0,2.04-0.52,2.04-1.57c0-1.01-0.7-1.52-2.11-1.52h-0.49V-311.06z"/>
				<path class="st3" d="M-115.83-310.66c0-1.38,0.51-2.57,1.52-3.56c1.01-0.99,2.22-1.49,3.64-1.49c1.4,0,2.6,0.5,3.6,1.5
					c1.01,1,1.51,2.2,1.51,3.61c0,1.41-0.5,2.61-1.51,3.6c-1.01,0.99-2.24,1.48-3.67,1.48c-1.27,0-2.41-0.44-3.42-1.32
					C-115.27-307.81-115.83-309.08-115.83-310.66z M-114.33-310.64c0,1.09,0.36,1.98,1.09,2.68c0.73,0.7,1.56,1.05,2.51,1.05
					c1.03,0,1.9-0.36,2.61-1.07c0.71-0.72,1.06-1.6,1.06-2.63c0-1.05-0.35-1.93-1.05-2.63c-0.7-0.71-1.56-1.07-2.58-1.07
					c-1.02,0-1.89,0.36-2.59,1.07C-113.98-312.54-114.33-311.67-114.33-310.64z"/>
				<path class="st3" d="M-104.35-305.7v-10.49l7.17,7.5v-6.83h1.48v10.42l-7.17-7.48v6.88H-104.35z"/>
			</g>
			<g>
				<path class="st3" d="M-162.93-315.9l-1.74,4.98h0.61l0.61-1.72h1.47l0.6,1.72h0.61l-1.74-4.98H-162.93z M-162.19-313.25h-1.05
					l0.53-1.55L-162.19-313.25z"/>
				<polygon class="st3" points="-156.96,-310.92 -156.96,-315.9 -157.42,-315.9 -158.75,-313.34 -159.96,-315.9 -160.41,-315.9 
					-160.41,-310.92 -159.8,-310.92 -159.8,-314.36 -159.03,-312.65 -158.48,-312.65 -157.56,-314.4 -157.56,-310.92 				"/>
				<polygon class="st3" points="-153.35,-311.53 -155.85,-311.53 -155.85,-313.11 -153.35,-313.11 -153.35,-313.71 
					-155.85,-313.71 -155.85,-315.29 -153.35,-315.29 -153.35,-315.9 -156.45,-315.9 -156.45,-310.92 -153.35,-310.92 				"/>
				<path class="st3" d="M-168.69-308.3c0.06-0.1,0.1-0.21,0.14-0.33c0.03-0.12,0.05-0.24,0.05-0.36c0-0.25-0.06-0.49-0.18-0.7
					c-0.11-0.19-0.26-0.34-0.44-0.46c-0.17-0.11-0.35-0.17-0.54-0.19l-0.05-0.01c-0.13-0.01-0.26-0.03-0.44-0.03l-1.58,0v4.98
					l1.58,0c0.15,0,0.31-0.01,0.48-0.03c0.18-0.02,0.36-0.08,0.53-0.19c0.18-0.11,0.33-0.27,0.44-0.46c0.12-0.21,0.18-0.45,0.18-0.7
					c0-0.12-0.02-0.24-0.05-0.36c-0.03-0.12-0.08-0.23-0.14-0.33c-0.05-0.1-0.12-0.19-0.2-0.26c-0.06-0.06-0.12-0.11-0.2-0.16
					c0.07-0.05,0.14-0.1,0.2-0.16C-168.81-308.12-168.74-308.21-168.69-308.3z M-169.57-308.37c-0.08,0.04-0.16,0.07-0.24,0.08
					c-0.09,0.01-0.2,0.02-0.32,0.02c-0.3,0-0.53,0-0.82,0v-1.32l0.38,0c0.16,0,0.27,0,0.44,0c0.12,0,0.22,0.01,0.32,0.02
					c0.09,0.01,0.17,0.04,0.24,0.08c0.09,0.05,0.16,0.13,0.21,0.21c0.03,0.05,0.05,0.11,0.07,0.17c0.02,0.06,0.02,0.12,0.02,0.18
					c0,0.06-0.01,0.12-0.03,0.18c-0.02,0.06-0.04,0.12-0.07,0.17C-169.43-308.49-169.49-308.42-169.57-308.37z M-169.83-307.47
					c0.09,0.01,0.18,0.04,0.26,0.09c0.08,0.04,0.14,0.11,0.2,0.2c0.03,0.05,0.05,0.11,0.07,0.17c0.02,0.06,0.03,0.12,0.03,0.18
					c0,0.06-0.01,0.12-0.02,0.18c-0.02,0.06-0.04,0.12-0.06,0.17c-0.05,0.09-0.12,0.16-0.21,0.21c-0.08,0.05-0.17,0.08-0.26,0.09
					c-0.1,0.01-0.2,0.02-0.3,0.02l-0.08,0c-0.12,0-0.22,0.01-0.36,0.01h-0.38v-1.31l0.82,0
					C-170.03-307.49-169.93-307.48-169.83-307.47z"/>
				<polygon class="st3" points="-171.72,-310.92 -171.12,-310.92 -171.12,-313.11 -168.87,-313.11 -168.87,-313.71 
					-171.12,-313.71 -171.12,-315.29 -168.49,-315.29 -168.49,-315.9 -171.72,-315.9 				"/>
				<path class="st3" d="M-165.45-313.48c0.13-0.11,0.22-0.24,0.26-0.31c0.12-0.22,0.17-0.46,0.17-0.74c0-0.25-0.06-0.48-0.18-0.69
					c-0.1-0.19-0.25-0.35-0.44-0.46c-0.17-0.1-0.34-0.16-0.52-0.18c-0.17-0.02-0.33-0.03-0.48-0.03c0,0,0,0,0,0
					c-0.47-0.01-1.39,0-1.4,0l-0.07,0l0,4.97h0.61v-2.18c0.23,0,0.96,0,1.16,0l0.73,2.19l0.61-0.01l-0.79-2.33
					C-165.69-313.31-165.56-313.39-165.45-313.48z M-165.74-314.06c-0.08,0.13-0.13,0.2-0.23,0.25c-0.09,0.05-0.18,0.06-0.29,0.07
					c-0.13,0.01-0.29,0.02-0.42,0.02c-0.14,0-0.43,0-0.66,0l-0.17,0v-1.58l0.15,0c0.23,0,0.53,0,0.67,0c0.14,0,0.27,0.01,0.38,0.03
					c0.11,0.01,0.21,0.05,0.31,0.1c0.05,0.03,0.1,0.07,0.14,0.11c0.04,0.04,0.08,0.09,0.11,0.14c0.04,0.06,0.06,0.13,0.08,0.21
					c0.02,0.07,0.03,0.15,0.03,0.22c0,0.07-0.01,0.15-0.03,0.22C-165.67-314.19-165.7-314.12-165.74-314.06z"/>
				<polygon class="st3" points="-154.22,-310.37 -155.25,-308.44 -156.29,-310.37 -157.21,-310.37 -155.67,-307.57 
					-155.67,-305.39 -154.84,-305.39 -154.84,-307.57 -153.3,-310.37 				"/>
			</g>
		</g>
		<g>
			<path class="st3" d="M-165.26-285.21v-2.98c1.48,0,2.47-0.16,2.98-0.49c0.91-0.58,1.36-1.51,1.36-2.78
				c0-0.99-0.33-1.79-0.99-2.41c-0.65-0.63-1.49-0.94-2.53-0.94c-0.97,0-1.72,0.23-2.24,0.7c-0.51,0.48-0.89,1.29-1.14,2.42h-3.47
				c0.36-2.17,1.1-3.77,2.21-4.78c1.12-1.01,2.68-1.52,4.68-1.52c2.02,0,3.67,0.6,4.95,1.79c1.28,1.19,1.92,2.72,1.92,4.59
				c0,2.11-0.84,3.76-2.51,4.94c1.92,1.13,2.87,2.96,2.87,5.49c0,2.07-0.7,3.77-2.09,5.09c-1.4,1.32-3.19,1.97-5.37,1.97
				c-2.78,0-4.85-1.02-6.19-3.07c-0.56-0.86-0.91-2.04-1.06-3.56h3.37c0.18,1.12,0.62,1.97,1.31,2.57c0.69,0.59,1.6,0.89,2.72,0.89
				c1.13,0,2.06-0.37,2.8-1.12c0.74-0.77,1.11-1.74,1.11-2.92c0-1.56-0.55-2.66-1.66-3.32
				C-162.9-285.02-163.91-285.21-165.26-285.21z"/>
			<path class="st3" d="M-151.61-278.81l2.99,1.17l-4.26,8.54l-2.27-0.94L-151.61-278.81z"/>
			<path class="st3" d="M-146.59-286.18c0-3.68,0.86-6.62,2.57-8.81c1.54-1.98,3.4-2.98,5.58-2.98c2.18,0,4.04,0.99,5.58,2.98
				c1.72,2.19,2.57,5.18,2.57,8.96c0,3.77-0.86,6.75-2.57,8.95c-1.54,1.98-3.39,2.98-5.56,2.98c-2.17,0-4.04-0.99-5.59-2.98
				C-145.73-279.28-146.59-282.31-146.59-286.18z M-143.17-286.17c0,2.56,0.44,4.69,1.33,6.39c0.89,1.67,2.02,2.5,3.4,2.5
				c1.37,0,2.5-0.83,3.4-2.5c0.9-1.66,1.35-3.74,1.35-6.27s-0.45-4.62-1.35-6.28c-0.9-1.66-2.03-2.48-3.4-2.48
				c-1.36,0-2.48,0.83-3.38,2.48C-142.72-290.68-143.17-288.63-143.17-286.17z"/>
			<path class="st3" d="M-129.21-286.18c0-3.68,0.86-6.62,2.57-8.81c1.54-1.98,3.4-2.98,5.58-2.98s4.04,0.99,5.58,2.98
				c1.72,2.19,2.57,5.18,2.57,8.96c0,3.77-0.86,6.75-2.57,8.95c-1.54,1.98-3.39,2.98-5.56,2.98s-4.04-0.99-5.59-2.98
				C-128.36-279.28-129.21-282.31-129.21-286.18z M-125.79-286.17c0,2.56,0.44,4.69,1.33,6.39c0.89,1.67,2.02,2.5,3.4,2.5
				c1.37,0,2.5-0.83,3.4-2.5c0.9-1.66,1.35-3.74,1.35-6.27s-0.45-4.62-1.35-6.28c-0.9-1.66-2.03-2.48-3.4-2.48
				c-1.36,0-2.48,0.83-3.38,2.48C-125.34-290.68-125.79-288.63-125.79-286.17z"/>
			<path class="st3" d="M-111.84-286.18c0-3.68,0.86-6.62,2.57-8.81c1.54-1.98,3.4-2.98,5.58-2.98c2.18,0,4.04,0.99,5.58,2.98
				c1.72,2.19,2.57,5.18,2.57,8.96c0,3.77-0.86,6.75-2.57,8.95c-1.54,1.98-3.39,2.98-5.56,2.98c-2.17,0-4.04-0.99-5.59-2.98
				C-110.98-279.28-111.84-282.31-111.84-286.18z M-108.41-286.17c0,2.56,0.44,4.69,1.33,6.39c0.89,1.67,2.02,2.5,3.4,2.5
				c1.37,0,2.5-0.83,3.4-2.5c0.9-1.66,1.35-3.74,1.35-6.27s-0.45-4.62-1.35-6.28c-0.9-1.66-2.03-2.48-3.4-2.48
				c-1.36,0-2.48,0.83-3.38,2.48C-107.96-290.68-108.41-288.63-108.41-286.17z"/>
		</g>
		<g>
			<path class="st4" d="M-171.67-255.62v-6.64l4.53,4.74v-4.32h0.94v6.6l-4.53-4.73v4.35H-171.67z"/>
			<path class="st4" d="M-161.63-257.37h-2.81c0.02,0.32,0.13,0.58,0.31,0.77c0.19,0.19,0.42,0.28,0.71,0.28
				c0.23,0,0.41-0.05,0.56-0.16c0.14-0.11,0.31-0.31,0.5-0.6l0.77,0.43c-0.12,0.2-0.24,0.37-0.37,0.52
				c-0.13,0.14-0.27,0.26-0.42,0.35c-0.15,0.09-0.31,0.16-0.49,0.2c-0.17,0.04-0.36,0.06-0.57,0.06c-0.59,0-1.06-0.19-1.41-0.56
				c-0.35-0.38-0.53-0.88-0.53-1.51c0-0.62,0.17-1.12,0.52-1.51c0.35-0.38,0.81-0.57,1.38-0.57c0.58,0,1.03,0.18,1.37,0.55
				c0.33,0.37,0.5,0.87,0.5,1.52L-161.63-257.37z M-162.56-258.11c-0.13-0.48-0.43-0.72-0.91-0.72c-0.11,0-0.21,0.02-0.31,0.05
				c-0.1,0.03-0.18,0.08-0.26,0.14c-0.08,0.06-0.15,0.14-0.2,0.23c-0.06,0.09-0.1,0.19-0.13,0.3H-162.56z"/>
			<path class="st4" d="M-160.68-259.54l1.03,2.24l1.11-2.6l1.12,2.6l1.01-2.24h1.01l-2.05,4.22l-1.09-2.53l-1.1,2.53l-2.05-4.22
				H-160.68z"/>
			<path class="st4" d="M-153.07-259.54h0.91v0.36c0.17-0.18,0.32-0.31,0.45-0.37c0.13-0.07,0.3-0.1,0.5-0.1
				c0.44,0,0.79,0.19,1.05,0.58c0.28-0.39,0.67-0.58,1.16-0.58c0.88,0,1.33,0.54,1.33,1.61v2.42h-0.91v-2.18
				c0-0.38-0.05-0.64-0.14-0.8c-0.09-0.16-0.25-0.24-0.46-0.24c-0.25,0-0.43,0.09-0.55,0.28c-0.11,0.19-0.17,0.49-0.17,0.91v2.03
				h-0.91v-2.17c0-0.7-0.2-1.05-0.6-1.05c-0.26,0-0.44,0.1-0.56,0.29c-0.12,0.19-0.18,0.49-0.18,0.9v2.03h-0.91V-259.54z"/>
			<path class="st4" d="M-143.39-257.37h-2.81c0.02,0.32,0.13,0.58,0.31,0.77c0.19,0.19,0.42,0.28,0.71,0.28
				c0.23,0,0.41-0.05,0.56-0.16c0.14-0.11,0.31-0.31,0.5-0.6l0.77,0.43c-0.12,0.2-0.24,0.37-0.37,0.52
				c-0.13,0.14-0.27,0.26-0.42,0.35c-0.15,0.09-0.31,0.16-0.49,0.2c-0.17,0.04-0.36,0.06-0.57,0.06c-0.59,0-1.06-0.19-1.41-0.56
				c-0.35-0.38-0.53-0.88-0.53-1.51c0-0.62,0.17-1.12,0.52-1.51c0.35-0.38,0.81-0.57,1.38-0.57c0.58,0,1.03,0.18,1.37,0.55
				c0.33,0.37,0.5,0.87,0.5,1.52L-143.39-257.37z M-144.32-258.11c-0.13-0.48-0.43-0.72-0.91-0.72c-0.11,0-0.21,0.02-0.31,0.05
				c-0.1,0.03-0.18,0.08-0.26,0.14c-0.08,0.06-0.15,0.14-0.2,0.23c-0.06,0.09-0.1,0.19-0.13,0.3H-144.32z"/>
			<path class="st4" d="M-142.81-259.54h0.91v0.36c0.17-0.18,0.32-0.31,0.45-0.37c0.13-0.07,0.3-0.1,0.5-0.1
				c0.44,0,0.79,0.19,1.05,0.58c0.28-0.39,0.67-0.58,1.16-0.58c0.88,0,1.33,0.54,1.33,1.61v2.42h-0.91v-2.18
				c0-0.38-0.05-0.64-0.14-0.8c-0.09-0.16-0.25-0.24-0.46-0.24c-0.25,0-0.43,0.09-0.55,0.28s-0.17,0.49-0.17,0.91v2.03h-0.91v-2.17
				c0-0.7-0.2-1.05-0.6-1.05c-0.26,0-0.44,0.1-0.56,0.29s-0.18,0.49-0.18,0.9v2.03h-0.91V-259.54z"/>
			<path class="st4" d="M-135.79-262.42v3.33c0.36-0.38,0.77-0.56,1.23-0.56c0.53,0,0.97,0.2,1.32,0.59
				c0.35,0.39,0.53,0.88,0.53,1.47c0,0.6-0.18,1.1-0.53,1.5c-0.35,0.39-0.8,0.59-1.33,0.59c-0.45,0-0.86-0.17-1.22-0.52v0.41h-0.91
				v-6.8H-135.79z M-133.64-257.56c0-0.38-0.1-0.68-0.31-0.92c-0.21-0.24-0.47-0.36-0.78-0.36c-0.33,0-0.6,0.12-0.81,0.35
				c-0.21,0.23-0.31,0.53-0.31,0.9c0,0.38,0.1,0.69,0.31,0.91c0.2,0.23,0.47,0.35,0.81,0.35c0.31,0,0.57-0.12,0.78-0.35
				C-133.74-256.91-133.64-257.2-133.64-257.56z"/>
			<path class="st4" d="M-128.59-257.37h-2.81c0.02,0.32,0.13,0.58,0.31,0.77c0.19,0.19,0.42,0.28,0.71,0.28
				c0.23,0,0.41-0.05,0.56-0.16c0.14-0.11,0.31-0.31,0.5-0.6l0.77,0.43c-0.12,0.2-0.24,0.37-0.37,0.52
				c-0.13,0.14-0.27,0.26-0.42,0.35c-0.15,0.09-0.31,0.16-0.49,0.2c-0.17,0.04-0.36,0.06-0.57,0.06c-0.59,0-1.06-0.19-1.41-0.56
				c-0.35-0.38-0.53-0.88-0.53-1.51c0-0.62,0.17-1.12,0.52-1.51c0.35-0.38,0.81-0.57,1.38-0.57c0.58,0,1.03,0.18,1.37,0.55
				c0.33,0.37,0.5,0.87,0.5,1.52L-128.59-257.37z M-129.52-258.11c-0.13-0.48-0.43-0.72-0.91-0.72c-0.11,0-0.21,0.02-0.31,0.05
				c-0.1,0.03-0.18,0.08-0.26,0.14c-0.08,0.06-0.15,0.14-0.2,0.23c-0.06,0.09-0.1,0.19-0.13,0.3H-129.52z"/>
			<path class="st4" d="M-128.01-259.54h0.91v0.35c0.17-0.17,0.31-0.29,0.44-0.36c0.13-0.07,0.29-0.1,0.47-0.1
				c0.24,0,0.49,0.08,0.75,0.23l-0.41,0.83c-0.17-0.12-0.34-0.19-0.5-0.19c-0.49,0-0.74,0.37-0.74,1.12v2.03h-0.91V-259.54z"/>
			<path class="st4" d="M-123.06-258.88l-0.75,0.4c-0.12-0.24-0.26-0.36-0.44-0.36c-0.08,0-0.15,0.03-0.21,0.08
				c-0.06,0.06-0.09,0.13-0.09,0.21c0,0.15,0.17,0.3,0.52,0.45c0.48,0.21,0.8,0.4,0.97,0.57c0.17,0.17,0.25,0.41,0.25,0.7
				c0,0.38-0.14,0.7-0.42,0.95c-0.27,0.24-0.6,0.36-0.98,0.36c-0.66,0-1.12-0.32-1.4-0.96l0.77-0.36c0.11,0.19,0.19,0.31,0.25,0.36
				c0.11,0.1,0.24,0.15,0.39,0.15c0.31,0,0.46-0.14,0.46-0.42c0-0.16-0.12-0.31-0.35-0.45c-0.09-0.05-0.18-0.09-0.27-0.13
				c-0.09-0.04-0.18-0.09-0.28-0.13c-0.26-0.13-0.45-0.26-0.56-0.39c-0.14-0.16-0.21-0.37-0.21-0.63c0-0.34,0.12-0.62,0.35-0.85
				c0.24-0.22,0.53-0.33,0.87-0.33C-123.68-259.65-123.3-259.39-123.06-258.88z"/>
			<path class="st4" d="M-122.4-262.42h0.91v3.21c0.32-0.29,0.68-0.43,1.07-0.43c0.44,0,0.8,0.14,1.06,0.43
				c0.23,0.25,0.34,0.65,0.34,1.2v2.4h-0.91v-2.32c0-0.31-0.06-0.54-0.17-0.68s-0.29-0.21-0.54-0.21c-0.32,0-0.54,0.1-0.67,0.29
				c-0.13,0.2-0.19,0.54-0.19,1.02v1.9h-0.91V-262.42z"/>
			<path class="st4" d="M-118.43-261.18c0-0.16,0.06-0.3,0.17-0.41s0.25-0.17,0.41-0.17c0.16,0,0.3,0.06,0.42,0.17
				c0.12,0.11,0.17,0.25,0.17,0.41s-0.06,0.3-0.17,0.42c-0.11,0.12-0.25,0.17-0.41,0.17c-0.16,0-0.3-0.06-0.42-0.17
				C-118.37-260.87-118.43-261.01-118.43-261.18z M-117.39-259.54v3.92h-0.91v-3.92H-117.39z"/>
			<path class="st4" d="M-115.75-253.49h-0.91v-6.06h0.91v0.43c0.36-0.36,0.76-0.54,1.22-0.54c0.54,0,0.98,0.2,1.33,0.6
				c0.35,0.39,0.53,0.89,0.53,1.49c0,0.59-0.18,1.08-0.53,1.47c-0.35,0.39-0.79,0.58-1.32,0.58c-0.46,0-0.87-0.18-1.23-0.55V-253.49
				z M-113.59-257.56c0-0.38-0.1-0.68-0.31-0.92c-0.21-0.24-0.47-0.36-0.78-0.36c-0.33,0-0.6,0.12-0.81,0.35
				c-0.21,0.23-0.31,0.53-0.31,0.91c0,0.37,0.1,0.67,0.31,0.91c0.2,0.23,0.47,0.35,0.81,0.35c0.31,0,0.57-0.12,0.78-0.35
				C-113.7-256.91-113.59-257.2-113.59-257.56z"/>
			<path class="st4" d="M-110.17-257.61c0-0.57,0.2-1.05,0.61-1.45c0.41-0.4,0.9-0.6,1.48-0.6c0.59,0,1.08,0.2,1.49,0.6
				c0.4,0.4,0.6,0.89,0.6,1.47c0,0.59-0.2,1.08-0.61,1.48c-0.41,0.39-0.91,0.59-1.5,0.59c-0.59,0-1.08-0.2-1.48-0.6
				C-109.97-256.51-110.17-257.01-110.17-257.61z M-109.25-257.6c0,0.39,0.1,0.7,0.31,0.93c0.21,0.23,0.5,0.35,0.85,0.35
				c0.35,0,0.64-0.11,0.85-0.34c0.21-0.23,0.32-0.53,0.32-0.91c0-0.38-0.11-0.69-0.32-0.91c-0.21-0.23-0.5-0.35-0.85-0.35
				c-0.35,0-0.63,0.12-0.84,0.35C-109.14-258.26-109.25-257.96-109.25-257.6z"/>
			<path class="st4" d="M-105.44-259.54h0.91v0.36c0.32-0.31,0.67-0.47,1.07-0.47c0.46,0,0.81,0.14,1.07,0.43
				c0.22,0.24,0.33,0.64,0.33,1.2v2.4h-0.91v-2.19c0-0.39-0.05-0.65-0.16-0.8c-0.1-0.15-0.3-0.23-0.57-0.23
				c-0.3,0-0.51,0.1-0.64,0.3c-0.12,0.2-0.19,0.54-0.19,1.03v1.89h-0.91V-259.54z"/>
			<path class="st4" d="M-100.42-262.42v6.8h-0.91v-6.8H-100.42z"/>
			<path class="st4" d="M-98.38-256.35l-1.76-3.19h1.05l1.2,2.26l1.12-2.26h1.02l-3.13,6.06h-1.04L-98.38-256.35z"/>
		</g>
	</g>
	<linearGradient id="SVGID_6_" gradientUnits="userSpaceOnUse" x1="352.9639" y1="-173.9825" x2="352.9639" y2="-395.0276">
		<stop  offset="8.680555e-04" style="stop-color:#141413"/>
		<stop  offset="0.9756" style="stop-color:#424242"/>
	</linearGradient>
	<path class="st13" d="M412.46-180.04h-119c-26.51,0-48-21.49-48-48v-119c0-26.51,21.49-48,48-48h119c26.51,0,48,21.49,48,48v119
		C460.46-201.53,438.97-180.04,412.46-180.04z"/>
	<linearGradient id="SVGID_7_" gradientUnits="userSpaceOnUse" x1="109.7444" y1="-173.2716" x2="109.7444" y2="-394.3167">
		<stop  offset="8.680555e-04" style="stop-color:#141413"/>
		<stop  offset="0.9756" style="stop-color:#424242"/>
	</linearGradient>
	<path class="st14" d="M169.24-179.33h-119c-26.51,0-48-21.49-48-48v-119c0-26.51,21.49-48,48-48h119c26.51,0,48,21.49,48,48v119
		C217.24-200.82,195.75-179.33,169.24-179.33z"/>
	<g class="st12">
		<circle class="st6" cx="79.32" cy="-250.85" r="11.61"/>
		<circle class="st6" cx="147.71" cy="-250.85" r="11.61"/>
		<path class="st6" d="M164.72-302.63c0,3.72,1.68,7.05,4.31,9.28c2.5,2.11,6.35,0.19,6.35-3.09v-16.77c0-3.11-2.52-5.62-5.62-5.62
			h-5.04V-302.63z"/>
		<path class="st6" d="M165.3-251.38h5.05c0.06,0,0.11,0,0.17,0c6.94-0.06,11.71-6.79,10.06-13.53c-0.33-1.36-0.51-2.79-0.51-4.25
			v-18.11c0-1.77-1.43-3.2-3.2-3.2h0c-6.71,0-12.15-5.44-12.15-12.15v-20.88c0-1.77-1.43-3.2-3.2-3.2H148.3H75.34H53.28
			c-0.06,0-0.11,0-0.17,0c-6.94,0.06-11.71,6.79-10.06,13.53c0.33,1.36,0.51,2.79,0.51,4.25v39.74c0,1.47-0.18,2.89-0.51,4.25
			c-1.66,6.74,3.12,13.47,10.06,13.53c0.06,0,0.11,0,0.17,0h8.39"/>
		<line class="st6" x1="96.99" y1="-251.38" x2="130.28" y2="-251.38"/>
		<polyline class="st6" points="43.91,-277.16 125.28,-277.16 125.28,-326.71 		"/>
	</g>
	<g class="st12">
		<path class="st3" d="M84.2-308.96l-2.6,7.47h0.92l0.91-2.59h2.21l0.9,2.59h0.92l-2.61-7.47H84.2z M85.32-304.99h-1.58l0.79-2.33
			L85.32-304.99z"/>
		<polygon class="st3" points="93.16,-301.5 93.16,-308.96 92.48,-308.96 90.48,-305.12 88.67,-308.96 87.98,-308.96 87.98,-301.5 
			88.9,-301.5 88.9,-306.65 90.06,-304.08 90.88,-304.08 92.25,-306.71 92.25,-301.5 		"/>
		<polygon class="st3" points="98.58,-302.41 94.83,-302.41 94.83,-304.78 98.58,-304.78 98.58,-305.68 94.83,-305.68 
			94.83,-308.05 98.58,-308.05 98.58,-308.96 93.92,-308.96 93.92,-301.5 98.58,-301.5 		"/>
		<path class="st3" d="M75.57-297.57c0.09-0.15,0.16-0.32,0.21-0.5c0.05-0.18,0.08-0.36,0.08-0.54c0-0.38-0.09-0.73-0.27-1.04
			c-0.17-0.28-0.39-0.51-0.67-0.68c-0.26-0.16-0.53-0.26-0.8-0.29l-0.07-0.01c-0.19-0.02-0.39-0.04-0.66-0.04l-2.37,0v7.47l2.37,0
			c0.22,0,0.46-0.01,0.72-0.04c0.27-0.03,0.54-0.13,0.8-0.29c0.28-0.17,0.5-0.4,0.67-0.68c0.18-0.32,0.27-0.67,0.27-1.05
			c0-0.18-0.03-0.36-0.08-0.54c-0.05-0.17-0.12-0.34-0.21-0.49c-0.08-0.15-0.18-0.28-0.29-0.39c-0.09-0.09-0.19-0.17-0.3-0.24
			c0.11-0.07,0.2-0.15,0.3-0.24C75.4-297.3,75.49-297.43,75.57-297.57z M74.25-297.68c-0.11,0.07-0.24,0.11-0.36,0.13
			c-0.14,0.02-0.3,0.03-0.48,0.03c-0.45-0.01-0.79,0-1.23,0v-1.98l0.57,0c0.24,0,0.41,0,0.66,0.01c0.17,0,0.33,0.01,0.47,0.03
			c0.13,0.02,0.25,0.06,0.37,0.12c0.13,0.08,0.23,0.19,0.31,0.31c0.04,0.08,0.08,0.16,0.1,0.26c0.02,0.09,0.04,0.18,0.04,0.27
			c0,0.09-0.01,0.18-0.04,0.27c-0.03,0.09-0.06,0.18-0.1,0.25C74.47-297.85,74.36-297.74,74.25-297.68z M73.86-296.33
			c0.14,0.01,0.27,0.06,0.39,0.13c0.12,0.06,0.22,0.17,0.3,0.3c0.04,0.08,0.08,0.16,0.1,0.25c0.03,0.09,0.04,0.18,0.04,0.27
			c0,0.09-0.01,0.18-0.04,0.27c-0.02,0.09-0.06,0.18-0.1,0.25c-0.08,0.13-0.18,0.23-0.31,0.31c-0.12,0.07-0.25,0.11-0.39,0.13
			c-0.15,0.02-0.3,0.02-0.45,0.02l-0.12,0c-0.18,0-0.34,0.01-0.54,0.01h-0.57v-1.97l1.23,0C73.55-296.35,73.7-296.34,73.86-296.33z"
			/>
		<polygon class="st3" points="71.02,-301.5 71.93,-301.5 71.93,-304.78 75.3,-304.78 75.3,-305.68 71.93,-305.68 71.93,-308.05 
			75.87,-308.05 75.87,-308.96 71.02,-308.96 		"/>
		<path class="st3" d="M80.42-305.33c0.19-0.16,0.33-0.36,0.39-0.47c0.18-0.33,0.26-0.69,0.26-1.12c0-0.37-0.09-0.72-0.27-1.03
			c-0.15-0.29-0.37-0.52-0.66-0.69c-0.25-0.15-0.51-0.25-0.78-0.28c-0.26-0.03-0.5-0.04-0.71-0.04c0,0,0,0,0,0
			c-0.7-0.01-2.08-0.01-2.1-0.01l-0.11,0l0,7.46h0.91v-3.28c0.35,0,1.44,0,1.74,0l1.1,3.28l0.92-0.01l-1.18-3.5
			C80.07-305.07,80.26-305.2,80.42-305.33z M80-306.21c-0.12,0.19-0.2,0.3-0.34,0.38c-0.13,0.08-0.27,0.09-0.44,0.11
			c-0.2,0.02-0.43,0.04-0.62,0.04c-0.21,0-0.65,0-1,0l-0.25,0v-2.37l0.23,0c0.34,0,0.79,0,1.01,0c0.21,0,0.4,0.02,0.57,0.04
			c0.16,0.02,0.32,0.07,0.46,0.15c0.07,0.05,0.14,0.11,0.21,0.17c0.06,0.06,0.12,0.13,0.16,0.21c0.05,0.1,0.09,0.2,0.12,0.31
			c0.03,0.11,0.04,0.22,0.04,0.33c0,0.11-0.01,0.22-0.04,0.33C80.09-306.4,80.05-306.3,80-306.21z"/>
		<polygon class="st3" points="97.27,-300.68 95.72,-297.78 94.17,-300.68 92.79,-300.67 95.1,-296.48 95.1,-293.21 96.34,-293.21 
			96.34,-296.48 98.65,-300.67 		"/>
	</g>
	<line class="st15" x1="52.94" y1="-305.59" x2="31.87" y2="-305.59"/>
	<line class="st15" x1="52.94" y1="-288.73" x2="37" y2="-288.73"/>
	<line class="st15" x1="52.94" y1="-297.16" x2="20.43" y2="-297.16"/>
	<line class="st15" x1="146.02" y1="-351.09" x2="124.96" y2="-351.09"/>
	<line class="st15" x1="143.79" y1="-334.22" x2="130.09" y2="-334.22"/>
	<line class="st15" x1="157.05" y1="-342.65" x2="113.52" y2="-342.65"/>
	<text transform="matrix(1 0 0 1 -182.0253 -219.7777)" class="st12"><tspan x="0" y="0" style="fill:#E0E0E0; font-family:'Futura-Medium'; font-size:13px;">3</tspan><tspan x="7.37" y="0" style="fill:#E0E0E0; font-family:'NotoSansCJKkr-Medium-KSCpc-EUC-H'; font-size:13px;">만원</tspan><tspan x="29.99" y="0" style="fill:#E0E0E0; font-family:'Futura-Medium'; font-size:13px;"> </tspan><tspan x="33.35" y="0" style="fill:#E0E0E0; font-family:'NotoSansCJKkr-Medium-KSCpc-EUC-H'; font-size:13px;">이상</tspan><tspan x="55.98" y="0" style="fill:#E0E0E0; font-family:'Futura-Medium'; font-size:13px;"> </tspan><tspan x="59.34" y="0" style="fill:#E0E0E0; font-family:'NotoSansCJKkr-Medium-KSCpc-EUC-H'; font-size:13px;">구매</tspan><tspan x="81.96" y="0" style="fill:#E0E0E0; font-family:'Futura-Medium'; font-size:13px;"> </tspan><tspan x="85.32" y="0" style="fill:#E0E0E0; font-family:'NotoSansCJKkr-Medium-KSCpc-EUC-H'; font-size:13px;">시</tspan><tspan x="-12.74" y="18" style="fill:#E0E0E0; font-family:'Futura-Medium'; font-size:13px;">3,000</tspan><tspan x="20.11" y="18" style="fill:#E0E0E0; font-family:'NotoSansCJKkr-Bold-KSCpc-EUC-H'; font-size:13px;">원</tspan><tspan x="31.42" y="18" style="fill:#E0E0E0; font-family:'Futura-Medium'; font-size:13px;"> </tspan><tspan x="34.79" y="18" style="fill:#E0E0E0; font-family:'NotoSansCJKkr-Bold-KSCpc-EUC-H'; font-size:13px;">할인</tspan><tspan x="57.41" y="18" style="fill:#E0E0E0; font-family:'Futura-Medium'; font-size:13px;"> </tspan><tspan x="60.77" y="18" style="fill:#E0E0E0; font-family:'NotoSansCJKkr-Bold-KSCpc-EUC-H'; font-size:13px;">쿠폰</tspan><tspan x="83.39" y="18" style="fill:#E0E0E0; font-family:'Futura-Medium'; font-size:13px;"> </tspan><tspan x="86.75" y="18" style="fill:#E0E0E0; font-family:'NotoSansCJKkr-Bold-KSCpc-EUC-H'; font-size:13px;">발급</tspan></text>
	<text transform="matrix(1 0 0 1 61.0453 -219.7777)" class="st12"><tspan x="0" y="0" style="fill:#E0E0E0; font-family:'NotoSansCJKkr-Medium-KSCpc-EUC-H'; font-size:13px;">구매 금액 관계없이</tspan><tspan x="4.16" y="18" style="fill:#E0E0E0; font-family:'NotoSansCJKkr-Bold-KSCpc-EUC-H'; font-size:13px;">첫 구매 무료 배송</tspan></text>
	<text transform="matrix(1 0 0 1 317.353 -219.7777)" class="st12"><tspan x="0" y="0" style="fill:#E0E0E0; font-family:'NotoSansCJKkr-Medium-KSCpc-EUC-H'; font-size:13px;">제품</tspan><tspan x="22.62" y="0" style="fill:#E0E0E0; font-family:'Futura-Medium'; font-size:13px;"> </tspan><tspan x="25.98" y="0" style="fill:#E0E0E0; font-family:'NotoSansCJKkr-Medium-KSCpc-EUC-H'; font-size:13px;">구매마다</tspan><tspan x="-18.33" y="18" style="fill:#E0E0E0; font-family:'Futura-Medium'; font-size:13px;">7% </tspan><tspan x="3.66" y="18" style="fill:#E0E0E0; font-family:'NotoSansCJKkr-Bold-KSCpc-EUC-H'; font-size:13px;">적립금</tspan><tspan x="37.59" y="18" style="fill:#E0E0E0; font-family:'Futura-Medium'; font-size:13px;"> </tspan><tspan x="40.95" y="18" style="fill:#E0E0E0; font-family:'NotoSansCJKkr-Bold-KSCpc-EUC-H'; font-size:13px;">자동</tspan><tspan x="63.57" y="18" style="fill:#E0E0E0; font-family:'Futura-Medium'; font-size:13px;"> </tspan><tspan x="66.93" y="18" style="fill:#E0E0E0; font-family:'NotoSansCJKkr-Bold-KSCpc-EUC-H'; font-size:13px;">정립</tspan></text>
	<g class="st12">
		<g>
			<path class="st2" d="M421.21-307.41c0-1.47,0.18-2.89,0.51-4.25c1.66-6.74-3.12-13.47-10.06-13.53c-0.06,0-0.11,0-0.17,0h-22.05
				h-72.96h-22.05c-0.06,0-0.11,0-0.17,0c-6.94,0.06-11.71,6.79-10.06,13.53c0.33,1.36,0.51,2.79,0.51,4.25v39.74
				c0,1.47-0.18,2.89-0.51,4.25c-1.66,6.74,3.12,13.47,10.06,13.53c0.06,0,0.11,0,0.17,0h22.05h72.96h22.05c0.06,0,0.11,0,0.17,0
				c6.94-0.06,11.71-6.79,10.06-13.53c-0.33-1.36-0.51-2.79-0.51-4.25V-307.41z"/>
		</g>
		<g>
			<polyline class="st6" points="340.05,-298.84 355.96,-298.84 342.2,-274.34 			"/>
			<g>
				<line class="st8" x1="367.39" y1="-288.26" x2="358.75" y2="-272.88"/>
				<circle class="st8" cx="358.46" cy="-286.04" r="2.22"/>
				<circle class="st8" cx="367.69" cy="-275.1" r="2.22"/>
			</g>
		</g>
	</g>
</g>
</svg>
