<?xml version="1.0" encoding="utf-8"?>
<!-- Generator: Adobe Illustrator 25.1.0, SVG Export Plug-In . SVG Version: 6.00 Build 0)  -->
<svg version="1.1" id="Layer_1" xmlns="http://www.w3.org/2000/svg" xmlns:xlink="http://www.w3.org/1999/xlink" x="0px" y="0px"
	 viewBox="0 0 1000 1000" style="enable-background:new 0 0 1000 1000;" xml:space="preserve">
<g>
	<path d="M754.4,163.7v-63.2c0-51.7-42.1-93.8-93.8-93.8H339.4c-51.7,0-93.8,42.1-93.8,93.8v129c0,6.5,0.5,12.7,1.1,18.8l0.3,3
		v122.7c-0.1,1.1-0.2,2.2-0.3,3.3c-0.5,5.9-1,12.1-1,18.4v504.8c0,51.7,42.1,93.8,93.8,93.8h321.2c51.7,0,93.8-42.1,93.8-93.8V392.7
		c0-3-0.5-6.2-1.4-9.3v-152c0.9-3.1,1.4-6.2,1.4-9.3v-5.5c0-3-0.5-6.2-1.4-9.3v-34.4C753.9,169.8,754.4,166.7,754.4,163.7z
		 M474.8,211.8c0,19.4-15.8,35.2-35.2,35.2h-96.2c-19.4,0-35.2-15.8-35.2-35.2v-113c0-19.4,15.8-35.2,35.2-35.2h96.2
		c19.4,0,35.2,15.8,35.2,35.2V211.8z M285.6,248.7c12.1,19.2,33.5,32,57.8,32h96.2c37.6,0,68.2-30.6,68.2-68.2V98
		c0-20.6-9.2-39.2-23.8-51.7h169.5c33.5,0,60.8,27.3,60.8,60.8v786.6c0,33.5-27.3,60.8-60.8,60.8H346.4c-33.5,0-60.8-27.3-60.8-60.8
		V248.7z"/>
	<path d="M319.1,431.1v425.6c0,19.3,15.7,34.9,34.9,34.9H646c19.3,0,34.9-15.7,34.9-34.9V431.1c3.3-2.6,5.4-6.7,5.4-11.2v-85.5h0
		v-1.2c0-0.1,0-0.1,0-0.2v-8.4c0-5.4-2.3-10.3-6-13.6v-4.9H332.2c-10.2,0-18.5,8.3-18.5,18.5v8.6v1.2v85.5
		C313.7,424.4,315.8,428.4,319.1,431.1z M655.9,425.2v431.5c0,5.5-4.5,10-10,10H354c-5.5,0-10-4.5-10-10V425.2c0-4.7-2.1-9-5.4-11.9
		v-72.1h121.5c6.7,0,12.5-4.2,14.9-10.1h2.8v0l44.2,0v0h2.8c2.4,5.9,8.2,10.1,14.9,10.1h121.5v72.1
		C658,416.2,655.9,420.5,655.9,425.2z"/>
</g>
</svg>
