<?xml version="1.0" encoding="utf-8"?>
<!-- Generator: Adobe Illustrator 25.1.0, SVG Export Plug-In . SVG Version: 6.00 Build 0)  -->
<svg version="1.1" id="Layer_1" xmlns="http://www.w3.org/2000/svg" xmlns:xlink="http://www.w3.org/1999/xlink" x="0px" y="0px"
	 viewBox="0 0 806.64 267.89" style="enable-background:new 0 0 806.64 267.89;" xml:space="preserve">
<style type="text/css">
	.st0{fill:#FFFFFF;}
</style>
<g>
	<path class="st0" d="M106.19,223.42H42.07L25.38,259.8H1.03l74.12-159.19l71.5,159.19h-24.74L106.19,223.42z M96.98,202.18
		l-22.22-50.93l-23.28,50.93H96.98z"/>
	<path class="st0" d="M180.87,95.95v80.32c8.73-9.05,18.63-13.58,29.68-13.58c12.74,0,23.35,4.75,31.82,14.26
		c8.47,9.44,12.71,21.21,12.71,35.31c0,14.55-4.27,26.58-12.81,36.09c-8.47,9.44-19.18,14.16-32.11,14.16
		c-10.93,0-20.7-4.2-29.3-12.61v9.89h-21.83V95.95H180.87z M232.77,213.24c0-9.05-2.46-16.43-7.37-22.12
		c-4.98-5.82-11.22-8.73-18.72-8.73c-8.02,0-14.55,2.81-19.6,8.44c-4.98,5.56-7.47,12.81-7.47,21.73c0,9.18,2.46,16.52,7.37,22.02
		c4.91,5.63,11.38,8.44,19.4,8.44c7.57,0,13.84-2.81,18.82-8.44C230.25,228.89,232.77,221.77,232.77,213.24z"/>
	<path class="st0" d="M268.74,211.88c0-13.64,4.88-25.25,14.65-34.83c9.76-9.57,21.66-14.36,35.7-14.36
		c14.1,0,26.06,4.82,35.89,14.46c9.7,9.64,14.55,21.47,14.55,35.5c0,14.16-4.88,26.03-14.65,35.6
		c-9.83,9.51-21.89,14.26-36.18,14.26c-14.16,0-26.03-4.85-35.6-14.55C273.53,238.39,268.74,226.37,268.74,211.88z M291.05,212.27
		c0,9.44,2.52,16.91,7.57,22.41c5.17,5.56,12,8.34,20.47,8.34c8.54,0,15.36-2.75,20.47-8.25c5.11-5.5,7.66-12.84,7.66-22.02
		c0-9.18-2.56-16.52-7.66-22.02c-5.17-5.56-12-8.34-20.47-8.34c-8.34,0-15.1,2.78-20.27,8.34
		C293.64,196.29,291.05,203.47,291.05,212.27z"/>
	<path class="st0" d="M409.48,165.31v54.23c0,15.65,6.17,23.48,18.53,23.48s18.53-7.83,18.53-23.48v-54.23h21.83v54.71
		c0,7.57-0.94,14.1-2.81,19.6c-1.81,4.92-4.95,9.35-9.41,13.29c-7.37,6.4-16.75,9.6-28.13,9.6c-11.32,0-20.66-3.2-28.04-9.6
		c-4.53-3.94-7.73-8.38-9.6-13.29c-1.81-4.4-2.72-10.93-2.72-19.6v-54.71H409.48z"/>
	<path class="st0" d="M513.46,185.68v74.12h-21.83v-74.12h-9.31v-20.37h9.31v-34.63h21.83v34.63h16.98v20.37H513.46z"/>
	<path class="st0" d="M623.43,110.02v90.22c0,12.87,2.1,22.28,6.31,28.23c6.27,8.6,15.1,12.9,26.48,12.9
		c11.45,0,20.31-4.3,26.58-12.9c4.2-5.75,6.31-15.17,6.31-28.23v-90.22h22.6v96.43c0,15.78-4.92,28.78-14.75,39
		c-11.06,11.38-24.64,17.07-40.74,17.07s-29.65-5.69-40.65-17.07c-9.83-10.22-14.75-23.22-14.75-39v-96.43H623.43z"/>
	<path class="st0" d="M793.37,181.42l-18.04,9.6c-2.85-5.82-6.37-8.73-10.57-8.73c-2,0-3.72,0.66-5.14,1.99
		c-1.42,1.33-2.13,3.02-2.13,5.09c0,3.62,4.2,7.21,12.61,10.77c11.58,4.98,19.37,9.57,23.38,13.77c4.01,4.21,6.01,9.86,6.01,16.98
		c0,9.12-3.36,16.75-10.09,22.89c-6.53,5.82-14.42,8.73-23.67,8.73c-15.85,0-27.07-7.73-33.66-23.18l18.62-8.63
		c2.59,4.53,4.56,7.41,5.92,8.63c2.65,2.46,5.82,3.69,9.51,3.69c7.37,0,11.06-3.36,11.06-10.09c0-3.88-2.85-7.5-8.54-10.87
		c-2.2-1.1-4.4-2.17-6.6-3.2c-2.2-1.03-4.43-2.1-6.69-3.2c-6.34-3.1-10.8-6.21-13.39-9.31c-3.3-3.94-4.95-9.02-4.95-15.23
		c0-8.21,2.81-15,8.44-20.37c5.76-5.37,12.74-8.05,20.95-8.05C778.49,162.69,787.48,168.94,793.37,181.42z"/>
</g>
<g>
	<g>
		<path class="st0" d="M400.21,8.86l-12.8,36.71h4.52l4.46-12.71h10.85l4.44,12.71h4.52L403.36,8.86H400.21z M405.69,28.39h-7.77
			l3.89-11.46L405.69,28.39z"/>
		<polygon class="st0" points="444.25,45.56 444.25,8.86 440.88,8.86 431.06,27.76 422.15,8.86 418.8,8.86 418.8,45.56 
			423.28,45.56 423.28,20.24 428.99,32.85 433.05,32.85 439.79,19.95 439.79,45.56 		"/>
		<polygon class="st0" points="470.89,41.1 452.44,41.1 452.44,29.44 470.89,29.44 470.89,24.98 452.44,24.98 452.44,13.34 
			470.89,13.34 470.89,8.88 447.99,8.88 447.99,45.54 470.89,45.54 		"/>
		<path class="st0" d="M357.78,64.85c0.42-0.75,0.76-1.57,1.01-2.44c0.25-0.88,0.38-1.78,0.38-2.68c0-1.86-0.45-3.58-1.34-5.13
			c-0.81-1.4-1.91-2.53-3.27-3.36c-1.27-0.79-2.6-1.26-3.95-1.41l-0.36-0.04c-0.94-0.11-1.91-0.21-3.22-0.21l-11.64,0.02v36.71
			l11.66-0.02c1.08,0,2.28-0.07,3.56-0.21c1.34-0.14,2.67-0.62,3.94-1.4c1.36-0.83,2.46-1.96,3.28-3.36
			c0.89-1.57,1.34-3.31,1.34-5.17c0-0.9-0.13-1.79-0.38-2.65c-0.25-0.85-0.59-1.67-1.01-2.4c-0.39-0.72-0.88-1.38-1.45-1.94
			c-0.44-0.44-0.91-0.83-1.46-1.18c0.52-0.35,1.01-0.75,1.46-1.19C356.91,66.22,357.4,65.57,357.78,64.85z M351.26,64.34
			c-0.56,0.33-1.16,0.54-1.79,0.62c-0.67,0.09-1.46,0.13-2.34,0.13c-2.21-0.02-3.9-0.01-6.03,0.01v-9.74l2.8,0
			c1.19,0,2.03,0,3.23,0.03c0.86,0,1.64,0.05,2.32,0.13c0.64,0.08,1.25,0.29,1.79,0.61c0.64,0.4,1.16,0.93,1.52,1.54
			c0.21,0.38,0.37,0.8,0.49,1.26c0.12,0.45,0.18,0.9,0.18,1.33c0,0.45-0.07,0.89-0.19,1.33c-0.13,0.45-0.3,0.87-0.5,1.24
			C352.34,63.51,351.84,64.02,351.26,64.34z M349.34,70.97c0.69,0.07,1.33,0.28,1.93,0.64c0.57,0.32,1.07,0.82,1.46,1.48
			c0.21,0.39,0.38,0.81,0.51,1.25c0.13,0.44,0.19,0.88,0.19,1.32c0,0.43-0.06,0.87-0.18,1.32c-0.12,0.45-0.28,0.87-0.47,1.23
			c-0.38,0.63-0.9,1.15-1.53,1.55c-0.59,0.35-1.23,0.56-1.92,0.63c-0.75,0.08-1.5,0.12-2.22,0.12l-0.58,0.01
			c-0.9,0.02-1.65,0.04-2.64,0.04h-2.8v-9.69l6.03-0.01C347.85,70.86,348.59,70.9,349.34,70.97z"/>
		<polygon class="st0" points="335.39,45.54 339.86,45.54 339.86,29.44 356.46,29.44 356.46,24.98 339.86,24.98 339.86,13.34 
			359.26,13.34 359.26,8.88 335.4,8.88 		"/>
		<path class="st0" d="M381.62,26.7c0.93-0.8,1.62-1.75,1.93-2.32c0.87-1.61,1.29-3.41,1.29-5.49c0-1.82-0.45-3.53-1.33-5.05
			c-0.74-1.41-1.82-2.55-3.22-3.38c-1.24-0.75-2.53-1.21-3.85-1.35c-1.26-0.14-2.45-0.21-3.51-0.21c0,0,0,0,0,0
			c-3.45-0.07-10.25-0.03-10.32-0.03l-0.52,0l-0.02,36.66h4.48v-16.1c1.72,0,7.07,0,8.57,0l5.41,16.12l4.51-0.06l-5.81-17.2
			C379.89,27.98,380.83,27.38,381.62,26.7z M379.55,22.4c-0.57,0.93-0.98,1.48-1.66,1.86c-0.63,0.38-1.32,0.46-2.16,0.55
			c-0.96,0.11-2.1,0.17-3.06,0.17c-1.04,0.02-3.21,0.01-4.9,0.01l-1.22,0V13.32l1.12,0c1.69-0.01,3.89-0.01,4.96,0.01
			c1.03,0,1.97,0.1,2.82,0.21c0.8,0.1,1.57,0.36,2.25,0.76c0.36,0.24,0.71,0.52,1.03,0.83c0.31,0.3,0.58,0.65,0.8,1.05
			c0.26,0.47,0.46,0.99,0.61,1.53c0.15,0.54,0.22,1.09,0.22,1.61c0,0.53-0.07,1.07-0.22,1.61C380,21.47,379.8,21.97,379.55,22.4z"/>
		<polygon class="st0" points="464.44,49.6 456.83,63.86 449.21,49.6 442.4,49.61 453.77,70.24 453.77,86.32 459.89,86.32 
			459.89,70.24 471.25,49.61 		"/>
	</g>
</g>
</svg>
