<?xml version="1.0" encoding="utf-8"?>
<!-- Generator: Adobe Illustrator 25.1.0, SVG Export Plug-In . SVG Version: 6.00 Build 0)  -->
<svg version="1.1" id="Layer_1" xmlns="http://www.w3.org/2000/svg" xmlns:xlink="http://www.w3.org/1999/xlink" x="0px" y="0px"
	 viewBox="0 0 1000 320.46" style="enable-background:new 0 0 1000 320.46;" xml:space="preserve">
<g>
	<path d="M275.51,17.74h-19.63v13.54h18.93v7.99h-18.93v26.81h-8.5V9.75h28.13V17.74z"/>
	<path d="M302.57,42.08l17.44,24.01h-10.4l-16.09-23.06h-1.53v23.06h-8.5V9.75h9.96c7.44,0,12.82,1.4,16.12,4.2
		c3.65,3.11,5.47,7.22,5.47,12.33c0,3.99-1.14,7.42-3.43,10.29C309.33,39.44,306.32,41.27,302.57,42.08z M291.99,35.62h2.7
		c8.05,0,12.08-3.08,12.08-9.23c0-5.76-3.92-8.65-11.75-8.65h-3.03V35.62z"/>
	<path d="M359.69,52.4h-24.11l-6.27,13.68h-9.16l27.87-59.87l26.89,59.87h-9.3L359.69,52.4z M356.23,44.41l-8.35-19.15l-8.76,19.15
		H356.23z"/>
	<path d="M378.11,66.08l11.86-60.56L409.3,49.3l20.03-43.78l10.65,60.56h-8.72l-5.44-34l-16.67,36.59l-16.2-36.63l-6.06,34.04
		H378.11z"/>
	<path d="M481.13,17.74h-22.58v13.54h21.93v7.99h-21.93v18.82h22.58v7.99h-31.08V9.75h31.08V17.74z"/>
	<path d="M553.24,12.78v10.07c-4.91-4.11-10-6.17-15.25-6.17c-5.79,0-10.67,2.08-14.63,6.24c-3.99,4.13-5.98,9.19-5.98,15.18
		c0,5.91,1.99,10.9,5.98,14.96c3.99,4.06,8.88,6.09,14.67,6.09c2.99,0,5.53-0.49,7.62-1.46c1.17-0.49,2.38-1.14,3.63-1.97
		c1.25-0.83,2.57-1.82,3.96-2.99v10.25c-4.86,2.75-9.97,4.12-15.32,4.12c-8.05,0-14.92-2.81-20.61-8.43
		c-5.67-5.67-8.5-12.5-8.5-20.5c0-7.17,2.37-13.57,7.11-19.19c5.84-6.88,13.39-10.32,22.66-10.32
		C543.63,8.66,548.52,10.03,553.24,12.78z"/>
	<path d="M596.54,52.4h-24.11l-6.27,13.68h-9.16l27.87-59.87l26.89,59.87h-9.3L596.54,52.4z M593.07,44.41l-8.35-19.15l-8.76,19.15
		H593.07z"/>
	<path d="M648.77,18.14l-6.89,4.09c-1.29-2.24-2.52-3.7-3.68-4.38c-1.22-0.78-2.79-1.17-4.71-1.17c-2.36,0-4.32,0.67-5.87,2.01
		c-1.56,1.31-2.33,2.97-2.33,4.96c0,2.75,2.04,4.96,6.13,6.64l5.62,2.3c4.57,1.85,7.92,4.1,10.03,6.77c2.12,2.66,3.17,5.93,3.17,9.8
		c0,5.18-1.73,9.46-5.18,12.84c-3.48,3.41-7.79,5.11-12.95,5.11c-4.89,0-8.93-1.45-12.11-4.34c-3.14-2.89-5.1-6.97-5.87-12.22
		l8.61-1.9c0.39,3.31,1.07,5.59,2.04,6.86c1.75,2.43,4.3,3.65,7.66,3.65c2.65,0,4.85-0.89,6.6-2.66c1.75-1.77,2.63-4.02,2.63-6.75
		c0-1.09-0.15-2.1-0.46-3.01c-0.3-0.91-0.78-1.75-1.42-2.52c-0.65-0.77-1.48-1.48-2.5-2.15c-1.02-0.67-2.24-1.31-3.65-1.92
		l-5.44-2.26c-7.71-3.26-11.57-8.03-11.57-14.3c0-4.23,1.62-7.77,4.85-10.62c3.23-2.87,7.26-4.31,12.08-4.31
		C640.05,8.66,645.12,11.82,648.77,18.14z"/>
	<path d="M689.7,17.74h-22.58v13.54h21.93v7.99h-21.93v18.82h22.58v7.99h-31.08V9.75h31.08V17.74z"/>
	<path d="M732.15,58.09h20.98v7.99h-37.83l19.55-23.68c1.92-2.36,3.53-4.4,4.83-6.13c1.3-1.73,2.29-3.17,2.97-4.34
		c1.39-2.29,2.08-4.34,2.08-6.17c0-2.63-0.92-4.83-2.77-6.6c-1.85-1.77-4.14-2.66-6.86-2.66c-5.69,0-8.95,3.37-9.78,10.11h-8.46
		c1.36-11.87,7.36-17.8,17.99-17.8c5.13,0,9.44,1.63,12.91,4.89c3.5,3.26,5.25,7.3,5.25,12.11c0,3.06-0.82,6.07-2.44,9.01
		c-0.83,1.53-2.04,3.35-3.63,5.45c-1.59,2.1-3.61,4.59-6.04,7.46L732.15,58.09z"/>
</g>
<g>
	<path d="M117.28,223.42H53.16L36.47,259.8H12.12l74.12-159.19l71.5,159.19H133L117.28,223.42z M108.06,202.18l-22.22-50.93
		l-23.28,50.93H108.06z"/>
	<path d="M164.02,126.02c0-3.82,1.39-7.11,4.17-9.9c2.78-2.78,6.11-4.17,9.99-4.17c3.94,0,7.31,1.39,10.09,4.17
		c2.78,2.72,4.17,6.05,4.17,9.99c0,3.95-1.39,7.31-4.17,10.09c-2.72,2.78-6.05,4.17-9.99,4.17c-3.95,0-7.31-1.39-10.09-4.17
		C165.41,133.43,164.02,130.04,164.02,126.02z M189.15,165.31v94.49h-21.83v-94.49H189.15z"/>
	<path d="M211.83,165.31h21.83v8.44c4.01-4.2,7.57-7.08,10.67-8.63c3.17-1.62,6.92-2.43,11.25-2.43c5.76,0,11.77,1.88,18.04,5.63
		l-9.99,19.98c-4.14-2.97-8.18-4.46-12.13-4.46c-11.9,0-17.85,8.99-17.85,26.97v48.99h-21.83V165.31z"/>
	<path d="M341.68,259.8V110.02h22.51c10.02,0,18.01,0.78,23.96,2.33c6.01,1.55,11.09,4.17,15.23,7.86c4.2,3.82,7.53,8.57,9.99,14.26
		c2.52,5.76,3.78,11.58,3.78,17.46c0,10.74-4.11,19.82-12.32,27.26c7.95,2.72,14.23,7.47,18.82,14.26
		c4.66,6.73,6.98,14.55,6.98,23.48c0,11.71-4.14,21.6-12.42,29.68c-4.98,4.98-10.57,8.44-16.78,10.38
		c-6.79,1.88-15.3,2.81-25.51,2.81H341.68z M364.29,174.34h7.08c8.41,0,14.57-1.86,18.48-5.58c3.91-3.72,5.87-9.2,5.87-16.44
		c0-7.05-2.01-12.4-6.01-16.05c-4.01-3.65-9.83-5.48-17.46-5.48h-7.95V174.34z M364.29,238.55h13.97c10.22,0,17.72-2,22.51-6.01
		c5.04-4.33,7.57-9.83,7.57-16.49c0-6.47-2.43-11.9-7.28-16.3c-4.72-4.33-13.16-6.5-25.32-6.5h-11.45V238.55z"/>
	<path d="M471.85,165.31v54.23c0,15.65,6.17,23.48,18.53,23.48c12.35,0,18.53-7.83,18.53-23.48v-54.23h21.83v54.71
		c0,7.57-0.94,14.1-2.81,19.6c-1.81,4.92-4.95,9.35-9.41,13.29c-7.37,6.4-16.75,9.6-28.13,9.6c-11.32,0-20.66-3.2-28.04-9.6
		c-4.53-3.94-7.73-8.38-9.6-13.29c-1.81-4.4-2.72-10.93-2.72-19.6v-54.71H471.85z"/>
	<path d="M553.32,165.31h21.83v8.73c4.2-4.4,7.79-7.37,10.77-8.92c3.17-1.62,7.15-2.43,11.93-2.43c10.67,0,19.11,4.66,25.32,13.97
		c6.85-9.31,16.13-13.97,27.84-13.97c21.28,0,31.92,12.9,31.92,38.71v58.4H661v-52.48c0-9.05-1.1-15.46-3.3-19.21
		c-2.26-3.82-5.98-5.72-11.16-5.72c-6.01,0-10.4,2.26-13.14,6.79c-2.75,4.53-4.12,11.8-4.12,21.83v48.8h-21.92v-52.19
		c0-16.81-4.85-25.22-14.55-25.22c-6.14,0-10.62,2.3-13.44,6.89c-2.81,4.59-4.22,11.83-4.22,21.73v48.8h-21.83V165.31z"/>
	<path d="M729.76,311.22h-21.83v-145.9h21.83v10.28c8.6-8.6,18.37-12.9,29.3-12.9c13,0,23.7,4.79,32.11,14.36
		c8.54,9.51,12.81,21.5,12.81,35.99c0,14.16-4.24,25.97-12.71,35.41c-8.41,9.38-19.01,14.07-31.82,14.07
		c-11.06,0-20.95-4.43-29.68-13.29V311.22z M781.66,213.14c0-9.05-2.46-16.43-7.37-22.12c-4.98-5.76-11.25-8.63-18.82-8.63
		c-8.02,0-14.52,2.78-19.5,8.34c-4.98,5.56-7.47,12.87-7.47,21.92c0,8.86,2.49,16.17,7.47,21.92c4.91,5.63,11.38,8.44,19.4,8.44
		c7.57,0,13.81-2.85,18.72-8.54C779.14,228.79,781.66,221.68,781.66,213.14z"/>
	<path d="M908.14,217.7h-67.71c0.58,7.76,3.1,13.94,7.57,18.53c4.46,4.53,10.19,6.79,17.17,6.79c5.43,0,9.93-1.29,13.48-3.88
		c3.49-2.59,7.47-7.37,11.93-14.36l18.43,10.28c-2.85,4.85-5.85,9.01-9.02,12.47c-3.17,3.46-6.57,6.31-10.19,8.54
		c-3.62,2.23-7.53,3.86-11.74,4.9c-4.21,1.03-8.76,1.55-13.68,1.55c-14.1,0-25.42-4.53-33.95-13.58
		c-8.54-9.12-12.81-21.21-12.81-36.28c0-14.94,4.14-27.03,12.42-36.28c8.34-9.12,19.4-13.68,33.18-13.68
		c13.9,0,24.9,4.43,32.98,13.29c8.02,8.8,12.03,20.99,12.03,36.57L908.14,217.7z M885.73,199.85
		c-3.04-11.64-10.38-17.46-22.02-17.46c-2.65,0-5.14,0.4-7.47,1.21s-4.45,1.97-6.35,3.49c-1.91,1.52-3.54,3.35-4.9,5.48
		c-1.36,2.13-2.39,4.56-3.1,7.28H885.73z"/>
	<path d="M927.04,165.31h21.83v8.44c4.01-4.2,7.57-7.08,10.67-8.63c3.17-1.62,6.92-2.43,11.25-2.43c5.76,0,11.77,1.88,18.04,5.63
		l-9.99,19.98c-4.14-2.97-8.18-4.46-12.13-4.46c-11.9,0-17.85,8.99-17.85,26.97v48.99h-21.83V165.31z"/>
</g>
</svg>
