<?xml version="1.0" encoding="utf-8"?>
<!-- Generator: Adobe Illustrator 25.1.0, SVG Export Plug-In . SVG Version: 6.00 Build 0)  -->
<svg version="1.1" id="Layer_1" xmlns="http://www.w3.org/2000/svg" xmlns:xlink="http://www.w3.org/1999/xlink" x="0px" y="0px"
	 viewBox="0 0 16 9.2" style="enable-background:new 0 0 16 9.2;" xml:space="preserve">
<style type="text/css">
	.st0{fill:#FFFFFF;}
</style>
<g>
	<path class="st0" d="M7.64,0.09l-1.5,4.29h0.53l0.52-1.49h1.27l0.52,1.49h0.53L8,0.09H7.64z M8.28,2.37H7.37l0.45-1.34L8.28,2.37z"
		/>
	<polygon class="st0" points="12.79,4.38 12.79,0.09 12.39,0.09 11.24,2.3 10.2,0.09 9.81,0.09 9.81,4.38 10.33,4.38 10.33,1.42 
		11,2.89 11.48,2.89 12.27,1.38 12.27,4.38 	"/>
	<polygon class="st0" points="15.9,3.86 13.75,3.86 13.75,2.49 15.9,2.49 15.9,1.97 13.75,1.97 13.75,0.61 15.9,0.61 15.9,0.09 
		13.22,0.09 13.22,4.38 15.9,4.38 	"/>
	<path class="st0" d="M2.67,6.64c0.05-0.09,0.09-0.18,0.12-0.29c0.03-0.1,0.04-0.21,0.04-0.31c0-0.22-0.05-0.42-0.16-0.6
		C2.59,5.27,2.46,5.14,2.3,5.04C2.15,4.95,1.99,4.9,1.84,4.88l-0.04,0C1.68,4.86,1.57,4.85,1.42,4.85l-1.36,0v4.29l1.36,0
		c0.13,0,0.27-0.01,0.42-0.02C1.99,9.1,2.15,9.05,2.3,8.96c0.16-0.1,0.29-0.23,0.38-0.39c0.1-0.18,0.16-0.39,0.16-0.6
		c0-0.1-0.01-0.21-0.04-0.31c-0.03-0.1-0.07-0.19-0.12-0.28c-0.05-0.08-0.1-0.16-0.17-0.23C2.45,7.09,2.4,7.04,2.34,7
		C2.4,6.96,2.45,6.91,2.51,6.86C2.57,6.8,2.63,6.72,2.67,6.64z M1.91,6.58C1.85,6.61,1.78,6.64,1.7,6.65
		C1.62,6.66,1.53,6.66,1.43,6.66c-0.26,0-0.46,0-0.71,0V5.53l0.33,0c0.14,0,0.24,0,0.38,0c0.1,0,0.19,0.01,0.27,0.02
		c0.07,0.01,0.15,0.03,0.21,0.07C1.98,5.66,2.05,5.73,2.09,5.8c0.02,0.04,0.04,0.09,0.06,0.15C2.16,6,2.17,6.05,2.17,6.1
		c0,0.05-0.01,0.1-0.02,0.16C2.13,6.31,2.11,6.36,2.08,6.4C2.04,6.48,1.98,6.54,1.91,6.58z M1.69,7.35
		c0.08,0.01,0.16,0.03,0.23,0.08c0.07,0.04,0.12,0.1,0.17,0.17c0.02,0.05,0.04,0.09,0.06,0.15C2.16,7.8,2.17,7.85,2.17,7.9
		c0,0.05-0.01,0.1-0.02,0.15C2.13,8.11,2.11,8.16,2.09,8.2C2.05,8.27,1.98,8.33,1.91,8.38C1.84,8.42,1.77,8.44,1.69,8.45
		C1.6,8.46,1.51,8.47,1.43,8.47l-0.07,0c-0.11,0-0.19,0-0.31,0H0.72V7.34l0.71,0C1.51,7.34,1.6,7.34,1.69,7.35z"/>
	<polygon class="st0" points="0.05,4.38 0.58,4.38 0.58,2.49 2.52,2.49 2.52,1.97 0.58,1.97 0.58,0.61 2.85,0.61 2.85,0.09 
		0.06,0.09 	"/>
	<path class="st0" d="M5.46,2.17c0.11-0.09,0.19-0.2,0.23-0.27c0.1-0.19,0.15-0.4,0.15-0.64c0-0.21-0.05-0.41-0.16-0.59
		C5.6,0.51,5.47,0.37,5.31,0.28c-0.14-0.09-0.3-0.14-0.45-0.16C4.71,0.1,4.57,0.09,4.45,0.09c0,0,0,0,0,0c-0.4-0.01-1.2,0-1.21,0
		l-0.06,0l0,4.29H3.7V2.49c0.2,0,0.83,0,1,0l0.63,1.89l0.53-0.01L5.18,2.36C5.26,2.32,5.37,2.25,5.46,2.17z M5.22,1.67
		C5.15,1.78,5.11,1.84,5.03,1.89C4.95,1.93,4.87,1.94,4.77,1.95C4.66,1.96,4.53,1.97,4.41,1.97c-0.12,0-0.37,0-0.57,0l-0.14,0V0.61
		l0.13,0c0.2,0,0.45,0,0.58,0c0.12,0,0.23,0.01,0.33,0.02C4.83,0.65,4.92,0.68,5,0.72c0.04,0.03,0.08,0.06,0.12,0.1
		C5.16,0.85,5.19,0.9,5.22,0.94C5.25,1,5.27,1.06,5.29,1.12c0.02,0.06,0.03,0.13,0.03,0.19c0,0.06-0.01,0.13-0.03,0.19
		C5.27,1.56,5.25,1.62,5.22,1.67z"/>
	<polygon class="st0" points="15.15,4.85 14.26,6.52 13.37,4.85 12.57,4.85 13.9,7.27 13.9,9.15 14.62,9.15 14.62,7.27 15.95,4.85 	
		"/>
</g>
</svg>
