<?xml version="1.0" encoding="utf-8"?>
<!-- Generator: Adobe Illustrator 25.1.0, SVG Export Plug-In . SVG Version: 6.00 Build 0)  -->
<svg version="1.1" id="Layer_1" xmlns="http://www.w3.org/2000/svg" xmlns:xlink="http://www.w3.org/1999/xlink" x="0px" y="0px"
	 viewBox="0 0 1000 1000" style="enable-background:new 0 0 1000 1000;" xml:space="preserve">
<style type="text/css">
	.st0{fill:none;stroke:#FFFFFF;stroke-width:24.956;stroke-miterlimit:10;}
</style>
<g>
	<path class="st0" d="M656.65,975.41h-313.3c-43.56,0-78.87-35.31-78.87-78.87V104.37c0-43.56,35.31-78.87,78.87-78.87h313.3
		c43.56,0,78.87,35.31,78.87,78.87v792.17C735.52,940.1,700.21,975.41,656.65,975.41z"/>
	<path class="st0" d="M653.59,967.02H346.41c-40.47,0-73.29-32.81-73.29-73.29V107.17c0-40.47,32.81-73.29,73.29-73.29h307.18
		c40.47,0,73.29,32.81,73.29,73.29v786.56C726.87,934.21,694.06,967.02,653.59,967.02z"/>
	<path class="st0" d="M439.63,268.27h-96.25c-30.8,0-55.76-24.97-55.76-55.76V98.04c0-30.8,24.97-55.76,55.76-55.76h96.25
		c30.8,0,55.76,24.97,55.76,55.76v114.47C495.39,243.31,470.43,268.27,439.63,268.27z"/>
	<path class="st0" d="M439.59,259.43h-96.17c-26.33,0-47.67-21.34-47.67-47.67V98.79c0-26.33,21.34-47.67,47.67-47.67h96.17
		c26.33,0,47.67,21.34,47.67,47.67v112.96C487.26,238.08,465.92,259.43,439.59,259.43z"/>
	<path class="st0" d="M258.08,836.05V395.66c0-7.02,0.72-14.01,1.29-21.01c0.01-0.15,0.02-0.29,0.02-0.44v-18.25v-13.82v-4.42v-0.06
		V323.9v-4.42v-0.06v-13.77v-0.06v-4.42v-13.77v-0.06v-4.42V269.1v-18.25c0-0.15-0.01-0.29-0.02-0.44c-0.58-7-1.29-13.99-1.29-21.01
		V100.42c0-44.92,36.42-81.34,81.34-81.34h321.17c44.92,0,81.34,36.42,81.34,81.34v63.24c0,2.22-0.43,4.41-1.12,6.52
		c-0.17,0.52-0.27,1.08-0.27,1.66v36.55c0,0.58,0.09,1.15,0.27,1.67c0.7,2.1,1.12,4.29,1.12,6.51v5.52c0,2.22-0.42,4.4-1.12,6.51
		c-0.17,0.52-0.27,1.09-0.27,1.67v32.53v4.02v3.28v28.16v1.09v3.28v4.02v24.14v4.02v21.83v27.84c0,0.59,0.1,1.15,0.27,1.68
		c0.7,2.1,1.12,4.28,1.12,6.5v227.44v280.41c0,44.92-36.42,81.34-81.34,81.34H339.42c-44.92,0-81.34-36.42-81.34-81.34V836.05z"/>
	<path class="st0" d="M667.79,318.62c3.32,0,6.02,2.69,6.02,6.02v95.26c0,1.04-0.84,1.88-1.88,1.88h-0.06
		c-1.91,0-3.44,1.54-3.44,3.43V856.7c0,12.41-10.06,22.47-22.47,22.47H354.04c-12.41,0-22.47-10.06-22.47-22.47V425.2
		c0-1.89-1.53-3.43-3.44-3.43h-0.06c-1.04,0-1.88-0.84-1.88-1.88v-95.26c0-3.32,2.69-6.02,6.02-6.02H667.79z"/>
	<path class="st0" d="M477.88,318.62h-7.62c-3.56,0-6.45,2.89-6.45,6.45v0c0,2-1.62,3.62-3.62,3.62H330.7h0
		c-2.49,0-4.51,2.02-4.51,4.51v1.18"/>
	<path class="st0" d="M522.12,318.62h7.62c3.56,0,6.45,2.89,6.45,6.45v0c0,2,1.62,3.62,3.62,3.62h129.5l0,0
		c2.49,0,4.51,2.02,4.51,4.51v1.18"/>
	<path class="st0" d="M439.02,263.18h-95.03c-28.55,0-51.69-23.14-51.69-51.69V99.06c0-28.55,23.14-51.69,51.69-51.69h95.03
		c28.55,0,51.69,23.14,51.69,51.69v112.43C490.71,240.04,467.57,263.18,439.02,263.18z"/>
</g>
</svg>
