<?xml version="1.0" encoding="utf-8"?>
<!-- Generator: Adobe Illustrator 25.1.0, SVG Export Plug-In . SVG Version: 6.00 Build 0)  -->
<svg version="1.1" id="Layer_1" xmlns="http://www.w3.org/2000/svg" xmlns:xlink="http://www.w3.org/1999/xlink" x="0px" y="0px"
	 viewBox="0 0 1360.56 315.09" style="enable-background:new 0 0 1360.56 315.09;" xml:space="preserve">
<style type="text/css">
	.st0{fill:#FFFFFF;}
</style>
<g>
	<g>
		<path class="st0" d="M120.66,118.07v26.77c-13.06-10.93-26.58-16.39-40.55-16.39c-15.39,0-28.36,5.53-38.9,16.59
			c-10.61,11-15.91,24.45-15.91,40.36c0,15.72,5.3,28.97,15.91,39.77c10.61,10.8,23.6,16.2,39,16.2c7.96,0,14.71-1.29,20.27-3.88
			c3.1-1.29,6.32-3.04,9.65-5.24c3.33-2.2,6.84-4.85,10.53-7.95v27.26c-12.94,7.31-26.52,10.96-40.74,10.96
			c-21.41,0-39.68-7.47-54.81-22.41c-15.07-15.07-22.6-33.24-22.6-54.52c0-19.08,6.31-36.09,18.92-51.03
			c15.52-18.3,35.6-27.45,60.24-27.45C95.12,107.11,108.12,110.76,120.66,118.07z"/>
		<path class="st0" d="M135.58,211.88c0-13.64,4.88-25.25,14.65-34.83c9.76-9.57,21.66-14.36,35.7-14.36
			c14.1,0,26.06,4.82,35.89,14.46c9.7,9.64,14.55,21.47,14.55,35.5c0,14.16-4.88,26.03-14.65,35.6
			c-9.83,9.51-21.89,14.26-36.18,14.26c-14.16,0-26.03-4.85-35.6-14.55C140.37,238.39,135.58,226.37,135.58,211.88z M157.9,212.27
			c0,9.44,2.52,16.91,7.57,22.41c5.17,5.56,12,8.34,20.47,8.34c8.54,0,15.36-2.75,20.47-8.25c5.11-5.5,7.66-12.84,7.66-22.02
			c0-9.18-2.56-16.52-7.66-22.02c-5.17-5.56-12-8.34-20.47-8.34c-8.34,0-15.1,2.78-20.27,8.34
			C160.48,196.29,157.9,203.47,157.9,212.27z"/>
		<path class="st0" d="M254.5,165.31h21.83v8.73c4.2-4.4,7.79-7.37,10.77-8.92c3.17-1.62,7.15-2.43,11.93-2.43
			c10.67,0,19.11,4.66,25.32,13.97c6.85-9.31,16.14-13.97,27.84-13.97c21.28,0,31.92,12.9,31.92,38.71v58.4h-21.92v-52.48
			c0-9.05-1.1-15.46-3.3-19.21c-2.26-3.82-5.98-5.72-11.16-5.72c-6.01,0-10.4,2.26-13.14,6.79c-2.75,4.53-4.12,11.8-4.12,21.83v48.8
			h-21.92v-52.19c0-16.81-4.85-25.22-14.55-25.22c-6.14,0-10.62,2.3-13.44,6.89c-2.81,4.59-4.22,11.83-4.22,21.73v48.8H254.5V165.31
			z"/>
		<path class="st0" d="M406.69,165.31h21.83v8.73c4.2-4.4,7.79-7.37,10.77-8.92c3.17-1.62,7.15-2.43,11.93-2.43
			c10.67,0,19.11,4.66,25.32,13.97c6.85-9.31,16.14-13.97,27.84-13.97c21.28,0,31.92,12.9,31.92,38.71v58.4h-21.92v-52.48
			c0-9.05-1.1-15.46-3.3-19.21c-2.26-3.82-5.98-5.72-11.16-5.72c-6.01,0-10.4,2.26-13.14,6.79c-2.75,4.53-4.12,11.8-4.12,21.83v48.8
			h-21.92v-52.19c0-16.81-4.85-25.22-14.55-25.22c-6.14,0-10.62,2.3-13.44,6.89c-2.81,4.59-4.22,11.83-4.22,21.73v48.8h-21.83
			V165.31z"/>
		<path class="st0" d="M555.58,126.02c0-3.82,1.39-7.11,4.17-9.9c2.78-2.78,6.11-4.17,9.99-4.17c3.94,0,7.31,1.39,10.09,4.17
			c2.78,2.72,4.17,6.05,4.17,9.99c0,3.95-1.39,7.31-4.17,10.09c-2.72,2.78-6.05,4.17-9.99,4.17c-3.95,0-7.31-1.39-10.09-4.17
			C556.97,133.43,555.58,130.04,555.58,126.02z M580.7,165.31v94.49h-21.83v-94.49H580.7z"/>
		<path class="st0" d="M603.38,165.31h21.92v8.73c7.63-7.57,16.23-11.35,25.8-11.35c10.99,0,19.56,3.46,25.71,10.38
			c5.3,5.89,7.96,15.49,7.96,28.81v57.91h-21.93v-52.77c0-9.31-1.29-15.75-3.88-19.3c-2.52-3.62-7.11-5.43-13.77-5.43
			c-7.24,0-12.39,2.39-15.42,7.18c-2.98,4.72-4.46,12.97-4.46,24.74v45.59h-21.92V165.31z"/>
		<path class="st0" d="M798.74,257.57c0,4.46-0.15,8.39-0.44,11.79s-0.7,6.39-1.21,8.97c-1.55,7.11-4.59,13.23-9.12,18.33
			c-8.54,9.83-20.27,14.75-35.21,14.75c-12.61,0-22.99-3.39-31.14-10.19c-8.41-6.98-13.26-16.65-14.55-29.01h21.92
			c0.84,4.66,2.23,8.25,4.17,10.77c4.53,5.88,11.12,8.83,19.79,8.83c15.97,0,23.96-9.8,23.96-29.39v-13.19
			c-8.67,8.86-18.66,13.29-29.98,13.29c-12.87,0-23.41-4.66-31.62-13.97c-8.28-9.44-12.42-21.25-12.42-35.41
			c0-13.78,3.85-25.48,11.54-35.12c8.28-10.22,19.21-15.33,32.79-15.33c11.9,0,21.79,4.43,29.68,13.29v-10.67h21.83V257.57z
			 M777.78,212.75c0-9.18-2.46-16.52-7.37-22.02c-4.98-5.63-11.35-8.44-19.11-8.44c-8.28,0-14.81,3.07-19.6,9.22
			c-4.33,5.5-6.5,12.61-6.5,21.34c0,8.6,2.17,15.65,6.5,21.15c4.72,6.01,11.25,9.02,19.6,9.02s14.94-3.04,19.79-9.12
			C775.55,228.4,777.78,221.35,777.78,212.75z"/>
		<path class="st0" d="M966.53,132.33l-18.33,10.87c-3.43-5.95-6.69-9.83-9.8-11.64c-3.23-2.07-7.41-3.1-12.51-3.1
			c-6.27,0-11.48,1.78-15.62,5.34c-4.14,3.49-6.21,7.89-6.21,13.19c0,7.31,5.43,13.19,16.3,17.66l14.94,6.11
			c12.16,4.92,21.05,10.91,26.68,18c5.63,7.08,8.44,15.76,8.44,26.05c0,13.78-4.59,25.16-13.78,34.15
			c-9.25,9.06-20.73,13.58-34.44,13.58c-13,0-23.74-3.85-32.21-11.54c-8.34-7.7-13.55-18.53-15.62-32.5l22.89-5.04
			c1.03,8.8,2.84,14.88,5.43,18.24c4.66,6.47,11.45,9.7,20.37,9.7c7.05,0,12.9-2.36,17.56-7.08c4.66-4.72,6.98-10.7,6.98-17.95
			c0-2.91-0.4-5.58-1.21-8c-0.81-2.43-2.07-4.66-3.78-6.69c-1.71-2.04-3.93-3.94-6.64-5.72c-2.72-1.78-5.95-3.48-9.7-5.09
			l-14.45-6.01c-20.5-8.67-30.75-21.34-30.75-38.03c0-11.25,4.3-20.66,12.9-28.23c8.6-7.63,19.3-11.45,32.11-11.45
			C943.34,107.11,956.82,115.52,966.53,132.33z"/>
		<path class="st0" d="M984.07,211.88c0-13.64,4.88-25.25,14.65-34.83c9.76-9.57,21.67-14.36,35.7-14.36
			c14.1,0,26.06,4.82,35.89,14.46c9.7,9.64,14.55,21.47,14.55,35.5c0,14.16-4.88,26.03-14.65,35.6
			c-9.83,9.51-21.89,14.26-36.18,14.26c-14.16,0-26.03-4.85-35.6-14.55C988.85,238.39,984.07,226.37,984.07,211.88z M1006.38,212.27
			c0,9.44,2.52,16.91,7.57,22.41c5.17,5.56,12,8.34,20.47,8.34c8.54,0,15.36-2.75,20.47-8.25c5.11-5.5,7.66-12.84,7.66-22.02
			c0-9.18-2.56-16.52-7.66-22.02c-5.17-5.56-12-8.34-20.47-8.34c-8.34,0-15.1,2.78-20.27,8.34
			C1008.96,196.29,1006.38,203.47,1006.38,212.27z"/>
		<path class="st0" d="M1098.52,211.88c0-13.64,4.88-25.25,14.65-34.83c9.76-9.57,21.67-14.36,35.7-14.36
			c14.1,0,26.06,4.82,35.89,14.46c9.7,9.64,14.55,21.47,14.55,35.5c0,14.16-4.88,26.03-14.65,35.6
			c-9.83,9.51-21.89,14.26-36.18,14.26c-14.16,0-26.03-4.85-35.6-14.55C1103.3,238.39,1098.52,226.37,1098.52,211.88z
			 M1120.83,212.27c0,9.44,2.52,16.91,7.57,22.41c5.17,5.56,12,8.34,20.47,8.34c8.54,0,15.36-2.75,20.47-8.25
			c5.11-5.5,7.66-12.84,7.66-22.02c0-9.18-2.56-16.52-7.66-22.02c-5.17-5.56-12-8.34-20.47-8.34c-8.34,0-15.1,2.78-20.27,8.34
			C1123.41,196.29,1120.83,203.47,1120.83,212.27z"/>
		<path class="st0" d="M1217.43,165.31h21.92v8.73c7.63-7.57,16.23-11.35,25.8-11.35c10.99,0,19.56,3.46,25.71,10.38
			c5.3,5.89,7.96,15.49,7.96,28.81v57.91h-21.92v-52.77c0-9.31-1.29-15.75-3.88-19.3c-2.52-3.62-7.12-5.43-13.78-5.43
			c-7.24,0-12.38,2.39-15.42,7.18c-2.98,4.72-4.46,12.97-4.46,24.74v45.59h-21.92V165.31z"/>
		<path class="st0" d="M1327.13,248.93c0-3.62,1.32-6.76,3.98-9.41c2.65-2.65,5.82-3.98,9.51-3.98s6.85,1.33,9.51,3.98
			c2.65,2.65,3.98,5.82,3.98,9.51c0,3.75-1.33,6.95-3.98,9.6c-2.59,2.59-5.76,3.88-9.51,3.88c-3.82,0-7.02-1.29-9.6-3.88
			C1328.42,256.05,1327.13,252.82,1327.13,248.93z M1329.65,226.43V110.02h21.92v116.41H1329.65z"/>
	</g>
</g>
<g>
	<g>
		<g>
			<path class="st0" d="M677.17,8.86l-12.8,36.71h4.52l4.46-12.71h10.85l4.44,12.71h4.52L680.32,8.86H677.17z M682.65,28.39h-7.77
				l3.89-11.46L682.65,28.39z"/>
			<polygon class="st0" points="721.21,45.56 721.21,8.86 717.84,8.86 708.02,27.76 699.11,8.86 695.76,8.86 695.76,45.56 
				700.24,45.56 700.24,20.24 705.95,32.85 710.02,32.85 716.75,19.95 716.75,45.56 			"/>
			<polygon class="st0" points="747.85,41.1 729.4,41.1 729.4,29.44 747.85,29.44 747.85,24.98 729.4,24.98 729.4,13.34 
				747.85,13.34 747.85,8.88 724.95,8.88 724.95,45.54 747.85,45.54 			"/>
			<path class="st0" d="M634.75,64.85c0.42-0.75,0.76-1.57,1.01-2.44c0.25-0.88,0.38-1.78,0.38-2.68c0-1.86-0.45-3.58-1.34-5.13
				c-0.81-1.4-1.91-2.53-3.27-3.36c-1.27-0.79-2.6-1.26-3.95-1.41l-0.36-0.04c-0.94-0.11-1.91-0.21-3.22-0.21l-11.64,0.02v36.71
				l11.66-0.02c1.08,0,2.28-0.07,3.56-0.21c1.34-0.14,2.67-0.62,3.94-1.4c1.36-0.83,2.46-1.96,3.28-3.36
				c0.89-1.57,1.34-3.31,1.34-5.17c0-0.9-0.13-1.79-0.38-2.65c-0.25-0.85-0.59-1.67-1.01-2.4c-0.39-0.72-0.88-1.38-1.45-1.94
				c-0.44-0.44-0.91-0.83-1.46-1.18c0.52-0.35,1.01-0.75,1.46-1.19C633.87,66.22,634.36,65.57,634.75,64.85z M628.23,64.34
				c-0.56,0.33-1.16,0.54-1.79,0.62c-0.67,0.09-1.46,0.13-2.34,0.13c-2.21-0.02-3.9-0.01-6.03,0.01v-9.74l2.8,0
				c1.19,0,2.03,0,3.23,0.03c0.86,0,1.64,0.05,2.32,0.13c0.64,0.08,1.25,0.29,1.79,0.61c0.64,0.4,1.16,0.93,1.52,1.54
				c0.21,0.38,0.37,0.8,0.49,1.26c0.12,0.45,0.18,0.9,0.18,1.33c0,0.45-0.07,0.89-0.19,1.33c-0.13,0.45-0.3,0.87-0.5,1.24
				C629.3,63.51,628.8,64.02,628.23,64.34z M626.3,70.97c0.69,0.07,1.33,0.28,1.93,0.64c0.57,0.32,1.07,0.82,1.46,1.48
				c0.21,0.39,0.38,0.81,0.51,1.25c0.13,0.44,0.19,0.88,0.19,1.32c0,0.43-0.06,0.87-0.18,1.32c-0.12,0.45-0.28,0.87-0.47,1.23
				c-0.38,0.63-0.9,1.15-1.53,1.55c-0.59,0.35-1.23,0.56-1.92,0.63c-0.75,0.08-1.5,0.12-2.22,0.12l-0.58,0.01
				c-0.9,0.02-1.65,0.04-2.64,0.04h-2.8v-9.69l6.03-0.01C624.81,70.86,625.55,70.9,626.3,70.97z"/>
			<polygon class="st0" points="612.35,45.54 616.82,45.54 616.82,29.44 633.42,29.44 633.42,24.98 616.82,24.98 616.82,13.34 
				636.22,13.34 636.22,8.88 612.36,8.88 			"/>
			<path class="st0" d="M658.58,26.7c0.93-0.8,1.62-1.75,1.93-2.32c0.87-1.61,1.29-3.41,1.29-5.49c0-1.82-0.45-3.53-1.33-5.05
				c-0.74-1.41-1.82-2.55-3.22-3.38c-1.24-0.75-2.53-1.21-3.85-1.35c-1.26-0.14-2.45-0.21-3.51-0.21c0,0,0,0,0,0
				c-3.45-0.07-10.25-0.03-10.32-0.03l-0.52,0l-0.02,36.66h4.48v-16.1c1.72,0,7.07,0,8.57,0l5.41,16.12L662,45.5l-5.81-17.2
				C656.85,27.98,657.79,27.38,658.58,26.7z M656.51,22.4c-0.57,0.93-0.98,1.48-1.66,1.86c-0.63,0.38-1.32,0.46-2.16,0.55
				c-0.96,0.11-2.1,0.17-3.06,0.17c-1.04,0.02-3.21,0.01-4.9,0.01l-1.22,0V13.32l1.12,0c1.69-0.01,3.89-0.01,4.96,0.01
				c1.03,0,1.97,0.1,2.82,0.21c0.8,0.1,1.57,0.36,2.25,0.76c0.36,0.24,0.71,0.52,1.03,0.83c0.31,0.3,0.58,0.65,0.8,1.05
				c0.26,0.47,0.46,0.99,0.61,1.53c0.15,0.54,0.22,1.09,0.22,1.61c0,0.53-0.07,1.07-0.22,1.61
				C656.96,21.47,656.76,21.97,656.51,22.4z"/>
			<polygon class="st0" points="741.41,49.6 733.79,63.86 726.18,49.6 719.37,49.61 730.73,70.24 730.73,86.32 736.85,86.32 
				736.85,70.24 748.21,49.61 			"/>
		</g>
	</g>
</g>
</svg>
