<?xml version="1.0" encoding="utf-8"?>
<!-- Generator: Adobe Illustrator 25.1.0, SVG Export Plug-In . SVG Version: 6.00 Build 0)  -->
<svg version="1.1" id="Layer_1" xmlns="http://www.w3.org/2000/svg" xmlns:xlink="http://www.w3.org/1999/xlink" x="0px" y="0px"
	 viewBox="0 0 980.86 261.62" style="enable-background:new 0 0 980.86 261.62;" xml:space="preserve">
<g>
	<path d="M98.54,127.14L80.21,138c-3.43-5.95-6.69-9.83-9.8-11.64c-3.23-2.07-7.41-3.1-12.51-3.1c-6.27,0-11.48,1.78-15.62,5.34
		c-4.14,3.49-6.21,7.89-6.21,13.19c0,7.31,5.43,13.19,16.3,17.66l14.94,6.11c12.16,4.92,21.05,10.91,26.68,18
		c5.63,7.08,8.44,15.76,8.44,26.05c0,13.78-4.59,25.16-13.78,34.15c-9.25,9.06-20.73,13.58-34.44,13.58
		c-13,0-23.74-3.85-32.21-11.54c-8.34-7.7-13.55-18.53-15.62-32.5l22.89-5.04c1.03,8.8,2.85,14.88,5.43,18.24
		c4.66,6.47,11.45,9.7,20.37,9.7c7.05,0,12.9-2.36,17.56-7.08c4.66-4.72,6.98-10.7,6.98-17.95c0-2.91-0.4-5.58-1.21-8
		c-0.81-2.43-2.07-4.66-3.78-6.69c-1.71-2.04-3.93-3.94-6.65-5.72c-2.72-1.78-5.95-3.48-9.7-5.09l-14.45-6.01
		c-20.5-8.67-30.75-21.34-30.75-38.03c0-11.25,4.3-20.66,12.9-28.23c8.6-7.63,19.3-11.45,32.11-11.45
		C75.36,101.92,88.84,110.32,98.54,127.14z"/>
	<path d="M146.45,180.49v74.12h-21.83v-74.12h-9.31v-20.37h9.31v-34.63h21.83v34.63h16.98v20.37H146.45z"/>
	<path d="M244.7,160.12h21.92v94.49H244.7v-9.89c-8.99,8.41-18.66,12.61-29.01,12.61c-13.06,0-23.86-4.72-32.4-14.16
		c-8.47-9.64-12.71-21.67-12.71-36.09c0-14.16,4.23-25.97,12.71-35.41c8.47-9.44,19.08-14.16,31.82-14.16
		c10.99,0,20.86,4.53,29.59,13.58V160.12z M192.89,207.07c0,9.05,2.43,16.43,7.28,22.12c4.98,5.76,11.25,8.63,18.82,8.63
		c8.08,0,14.62-2.78,19.6-8.34c4.98-5.76,7.47-13.06,7.47-21.92c0-8.86-2.49-16.17-7.47-21.92c-4.98-5.63-11.45-8.44-19.4-8.44
		c-7.5,0-13.78,2.85-18.82,8.54C195.38,191.49,192.89,198.6,192.89,207.07z"/>
	<path d="M289.2,160.12h21.92v8.73c7.63-7.57,16.23-11.35,25.8-11.35c10.99,0,19.56,3.46,25.71,10.38
		c5.3,5.89,7.95,15.49,7.95,28.81v57.91h-21.92v-52.77c0-9.31-1.29-15.75-3.88-19.3c-2.52-3.62-7.11-5.43-13.77-5.43
		c-7.24,0-12.39,2.39-15.42,7.18c-2.98,4.72-4.46,12.97-4.46,24.74v45.59H289.2V160.12z"/>
	<path d="M462.83,90.76h21.92v163.85h-21.92v-9.89c-8.6,8.41-18.33,12.61-29.2,12.61c-12.94,0-23.67-4.72-32.21-14.16
		c-8.47-9.64-12.71-21.67-12.71-36.09c0-14.1,4.23-25.87,12.71-35.31c8.41-9.51,18.98-14.26,31.72-14.26
		c11.06,0,20.95,4.53,29.68,13.58V90.76z M411.03,207.07c0,9.05,2.43,16.43,7.28,22.12c4.98,5.76,11.25,8.63,18.82,8.63
		c8.08,0,14.62-2.78,19.6-8.34c4.98-5.76,7.47-13.06,7.47-21.92c0-8.86-2.49-16.17-7.47-21.92c-4.98-5.63-11.45-8.44-19.4-8.44
		c-7.5,0-13.78,2.85-18.82,8.54C413.52,191.49,411.03,198.6,411.03,207.07z"/>
	<path d="M678.54,112.88v26.77c-13.06-10.93-26.58-16.39-40.55-16.39c-15.39,0-28.36,5.53-38.9,16.59
		c-10.61,11-15.91,24.45-15.91,40.36c0,15.72,5.3,28.97,15.91,39.77c10.61,10.8,23.61,16.2,39,16.2c7.95,0,14.71-1.29,20.27-3.88
		c3.1-1.29,6.32-3.04,9.65-5.24c3.33-2.2,6.84-4.85,10.53-7.95v27.26c-12.94,7.31-26.52,10.96-40.74,10.96
		c-21.41,0-39.68-7.47-54.81-22.41c-15.07-15.07-22.6-33.24-22.6-54.52c0-19.08,6.31-36.09,18.92-51.03
		c15.52-18.3,35.6-27.45,60.24-27.45C652.99,101.92,665.99,105.57,678.54,112.88z"/>
	<path d="M767.58,160.12h21.92v94.49h-21.92v-9.89c-8.99,8.41-18.66,12.61-29.01,12.61c-13.06,0-23.86-4.72-32.4-14.16
		c-8.47-9.64-12.71-21.67-12.71-36.09c0-14.16,4.24-25.97,12.71-35.41c8.47-9.44,19.08-14.16,31.82-14.16
		c10.99,0,20.86,4.53,29.59,13.58V160.12z M715.77,207.07c0,9.05,2.42,16.43,7.28,22.12c4.98,5.76,11.25,8.63,18.82,8.63
		c8.08,0,14.62-2.78,19.6-8.34c4.98-5.76,7.47-13.06,7.47-21.92c0-8.86-2.49-16.17-7.47-21.92c-4.98-5.63-11.45-8.44-19.4-8.44
		c-7.5,0-13.78,2.85-18.82,8.54C718.26,191.49,715.77,198.6,715.77,207.07z"/>
	<path d="M866.99,176.22l-18.04,9.6c-2.85-5.82-6.37-8.73-10.57-8.73c-2,0-3.72,0.66-5.14,1.99c-1.42,1.33-2.13,3.02-2.13,5.09
		c0,3.62,4.2,7.21,12.61,10.77c11.58,4.98,19.37,9.57,23.38,13.77c4.01,4.21,6.01,9.86,6.01,16.98c0,9.12-3.36,16.75-10.09,22.89
		c-6.53,5.82-14.42,8.73-23.67,8.73c-15.85,0-27.07-7.73-33.66-23.18l18.62-8.63c2.59,4.53,4.56,7.41,5.92,8.63
		c2.65,2.46,5.82,3.69,9.51,3.69c7.37,0,11.06-3.36,11.06-10.09c0-3.88-2.85-7.5-8.54-10.87c-2.2-1.1-4.4-2.17-6.6-3.2
		c-2.2-1.03-4.43-2.1-6.69-3.2c-6.34-3.1-10.8-6.21-13.39-9.31c-3.3-3.94-4.95-9.02-4.95-15.23c0-8.21,2.81-15,8.44-20.37
		c5.76-5.37,12.74-8.05,20.95-8.05C852.11,157.5,861.1,163.74,866.99,176.22z"/>
	<path d="M973.78,212.51h-67.71c0.58,7.76,3.1,13.94,7.57,18.53c4.46,4.53,10.19,6.79,17.17,6.79c5.43,0,9.93-1.29,13.48-3.88
		c3.49-2.59,7.47-7.37,11.93-14.36l18.43,10.28c-2.85,4.85-5.85,9.01-9.02,12.47c-3.17,3.46-6.57,6.31-10.19,8.54
		c-3.62,2.23-7.53,3.86-11.74,4.9c-4.21,1.03-8.76,1.55-13.68,1.55c-14.1,0-25.42-4.53-33.95-13.58
		c-8.54-9.12-12.81-21.21-12.81-36.28c0-14.94,4.14-27.03,12.42-36.28c8.34-9.12,19.4-13.68,33.18-13.68
		c13.9,0,24.9,4.43,32.98,13.29c8.02,8.8,12.03,20.99,12.03,36.57L973.78,212.51z M951.37,194.66
		c-3.04-11.64-10.38-17.46-22.02-17.46c-2.65,0-5.14,0.4-7.47,1.21s-4.45,1.97-6.35,3.49c-1.91,1.52-3.54,3.35-4.9,5.48
		c-1.36,2.13-2.39,4.56-3.1,7.28H951.37z"/>
</g>
<g>
	<g>
		<path d="M487.32,3.66l-12.8,36.71h4.52l4.46-12.71h10.85l4.44,12.71h4.52L490.47,3.66H487.32z M492.8,23.2h-7.77l3.89-11.46
			L492.8,23.2z"/>
		<polygon points="531.35,40.37 531.35,3.66 527.99,3.66 518.17,22.57 509.26,3.66 505.91,3.66 505.91,40.37 510.39,40.37 
			510.39,15.05 516.1,27.66 520.16,27.66 526.9,14.75 526.9,40.37 		"/>
		<polygon points="558,35.91 539.55,35.91 539.55,24.25 558,24.25 558,19.79 539.55,19.79 539.55,8.15 558,8.15 558,3.69 
			535.1,3.69 535.1,40.34 558,40.34 		"/>
		<path d="M444.89,59.66c0.42-0.75,0.76-1.57,1.01-2.44c0.25-0.88,0.38-1.78,0.38-2.68c0-1.86-0.45-3.58-1.34-5.13
			c-0.81-1.4-1.91-2.53-3.27-3.36c-1.27-0.79-2.6-1.26-3.95-1.41l-0.36-0.04c-0.94-0.11-1.91-0.21-3.22-0.21l-11.64,0.02v36.71
			l11.66-0.02c1.08,0,2.28-0.07,3.56-0.21c1.34-0.14,2.67-0.62,3.94-1.4c1.36-0.83,2.46-1.96,3.28-3.36
			c0.89-1.57,1.34-3.31,1.34-5.17c0-0.9-0.13-1.79-0.38-2.65c-0.25-0.85-0.59-1.67-1.01-2.4c-0.39-0.72-0.88-1.38-1.45-1.94
			c-0.44-0.44-0.91-0.83-1.46-1.18c0.52-0.35,1.01-0.75,1.46-1.19C444.02,61.03,444.51,60.38,444.89,59.66z M438.37,59.15
			c-0.56,0.33-1.16,0.54-1.79,0.62c-0.67,0.09-1.46,0.13-2.34,0.13c-2.21-0.02-3.9-0.01-6.03,0.01v-9.74l2.8,0
			c1.19,0,2.03,0,3.23,0.03c0.86,0,1.64,0.05,2.32,0.13c0.64,0.08,1.25,0.29,1.79,0.61c0.64,0.4,1.16,0.93,1.52,1.54
			c0.21,0.38,0.37,0.8,0.49,1.26c0.12,0.45,0.18,0.9,0.18,1.33c0,0.45-0.07,0.89-0.19,1.33c-0.13,0.45-0.3,0.87-0.5,1.24
			C439.45,58.32,438.95,58.83,438.37,59.15z M436.45,65.78c0.69,0.07,1.33,0.28,1.93,0.64c0.57,0.32,1.07,0.82,1.46,1.48
			c0.21,0.39,0.38,0.81,0.51,1.25c0.13,0.44,0.19,0.88,0.19,1.32c0,0.43-0.06,0.87-0.18,1.32c-0.12,0.45-0.28,0.87-0.47,1.23
			c-0.38,0.63-0.9,1.15-1.53,1.55c-0.59,0.35-1.23,0.56-1.92,0.63c-0.75,0.08-1.5,0.12-2.22,0.12l-0.58,0.01
			c-0.9,0.02-1.65,0.04-2.64,0.04h-2.8v-9.69l6.03-0.01C434.95,65.67,435.7,65.71,436.45,65.78z"/>
		<polygon points="422.49,40.34 426.97,40.34 426.97,24.25 443.57,24.25 443.57,19.79 426.97,19.79 426.97,8.15 446.37,8.15 
			446.37,3.69 422.51,3.69 		"/>
		<path d="M468.73,21.51c0.93-0.8,1.62-1.75,1.93-2.32c0.87-1.61,1.29-3.41,1.29-5.49c0-1.82-0.45-3.53-1.33-5.05
			c-0.74-1.41-1.82-2.55-3.22-3.38c-1.24-0.75-2.53-1.21-3.85-1.35c-1.26-0.14-2.45-0.21-3.51-0.21c0,0,0,0,0,0
			c-3.45-0.07-10.25-0.03-10.32-0.03l-0.52,0l-0.02,36.66h4.48v-16.1c1.72,0,7.07,0,8.57,0l5.41,16.12l4.51-0.06l-5.81-17.2
			C467,22.78,467.94,22.19,468.73,21.51z M466.65,17.21c-0.57,0.93-0.98,1.48-1.66,1.86c-0.63,0.38-1.32,0.46-2.16,0.55
			c-0.96,0.11-2.1,0.17-3.06,0.17c-1.04,0.02-3.21,0.01-4.9,0.01l-1.22,0V8.13l1.12,0c1.69-0.01,3.89-0.01,4.96,0.01
			c1.03,0,1.97,0.1,2.82,0.21c0.8,0.1,1.57,0.36,2.25,0.76c0.36,0.24,0.71,0.52,1.03,0.83c0.31,0.3,0.58,0.65,0.8,1.05
			c0.26,0.47,0.46,0.99,0.61,1.53c0.15,0.54,0.22,1.09,0.22,1.61c0,0.53-0.07,1.07-0.22,1.61
			C467.11,16.28,466.91,16.78,466.65,17.21z"/>
		<polygon points="551.55,44.41 543.94,58.67 536.32,44.41 529.51,44.42 540.88,65.05 540.88,81.13 547,81.13 547,65.05 
			558.36,44.42 		"/>
	</g>
</g>
</svg>
