<?xml version="1.0" encoding="utf-8"?>
<!-- Generator: Adobe Illustrator 25.1.0, SVG Export Plug-In . SVG Version: 6.00 Build 0)  -->
<svg version="1.1" id="Layer_1" xmlns="http://www.w3.org/2000/svg" xmlns:xlink="http://www.w3.org/1999/xlink" x="0px" y="0px"
	 viewBox="0 0 2000 321.6" style="enable-background:new 0 0 2000 321.6;" xml:space="preserve">
<g>
	<path d="M49.9,20.8l72.1,185L197.3,7.4l72.1,198.5l76.6-185h45.4L267.6,315.2l-71.2-196.2l-74.2,196.3L4.6,20.8H49.9z"/>
	<path d="M578.5,60.1h-111v66.5h107.8v39.3H467.5v92.5h111v39.3H425.8V20.8h152.8V60.1z"/>
	<path d="M675.2,20.8v237.6h81.4v39.3H633.4V20.8H675.2z"/>
	<path d="M988.6,35.7v49.5c-24.1-20.2-49.1-30.3-74.9-30.3c-28.4,0-52.4,10.2-71.9,30.7c-19.6,20.3-29.4,45.2-29.4,74.6
		c0,29,9.8,53.6,29.4,73.5c19.6,20,43.6,29.9,72.1,29.9c14.7,0,27.2-2.4,37.5-7.2c5.7-2.4,11.7-5.6,17.8-9.7
		c6.2-4.1,12.6-9,19.5-14.7v50.4c-23.9,13.5-49,20.3-75.3,20.3c-39.6,0-73.3-13.8-101.3-41.4c-27.9-27.8-41.8-61.4-41.8-100.8
		c0-35.3,11.7-66.7,35-94.3c28.7-33.8,65.8-50.7,111.3-50.7C941.4,15.4,965.4,22.2,988.6,35.7z"/>
	<path d="M1025.7,158c0-39,14.3-72.4,42.9-100.4c28.4-28,62.6-42,102.6-42c39.4,0,73.3,14.1,101.5,42.3
		c28.3,28.2,42.5,62.1,42.5,101.7c0,39.8-14.2,73.6-42.7,101.3c-28.6,27.9-63.1,41.8-103.5,41.8c-35.7,0-67.8-12.4-96.3-37.1
		C1041.3,238.2,1025.7,202.3,1025.7,158z M1067.8,158.5c0,30.6,10.3,55.8,30.8,75.5c20.4,19.7,44,29.6,70.8,29.6
		c29,0,53.5-10,73.5-30.1c20-20.3,29.9-45.1,29.9-74.2c0-29.5-9.9-54.3-29.6-74.2c-19.6-20.1-43.9-30.1-72.8-30.1
		c-28.8,0-53.1,10-73,30.1C1077.7,104.8,1067.8,129.3,1067.8,158.5z"/>
	<path d="M1357.9,297.6L1416.2,0l95,215.2L1609.7,0l52.4,297.6h-42.9l-26.7-167.1l-81.9,179.8l-79.6-180l-29.8,167.3H1357.9z"/>
	<path d="M1873.4,60.1h-111v66.5h107.8v39.3h-107.8v92.5h111v39.3h-152.8V20.8h152.8V60.1z"/>
	<path d="M1931.1,277.6c0-6.7,2.4-12.5,7.4-17.4c4.9-4.9,10.8-7.4,17.6-7.4s12.7,2.5,17.6,7.4c4.9,4.9,7.4,10.8,7.4,17.6
		c0,6.9-2.5,12.9-7.4,17.8c-4.8,4.8-10.6,7.2-17.6,7.2c-7.1,0-13-2.4-17.8-7.2C1933.5,290.7,1931.1,284.7,1931.1,277.6z M1935.8,236
		V20.8h40.5V236H1935.8z"/>
</g>
</svg>
