<?xml version="1.0" encoding="utf-8"?>
<!-- Generator: Adobe Illustrator 25.1.0, SVG Export Plug-In . SVG Version: 6.00 Build 0)  -->
<svg version="1.1" id="Layer_1" xmlns="http://www.w3.org/2000/svg" xmlns:xlink="http://www.w3.org/1999/xlink" x="0px" y="0px"
	 viewBox="0 0 1071.07 320.46" style="enable-background:new 0 0 1071.07 320.46;" xml:space="preserve">
<g>
	<path d="M10.21,259.8L41.74,98.76l51.41,116.41l53.26-116.41l28.33,161.04h-23.19l-14.45-90.41l-44.33,97.3l-43.07-97.4
		l-16.1,90.51H10.21z"/>
	<path d="M283.37,217.7h-67.71c0.58,7.76,3.1,13.94,7.57,18.53c4.46,4.53,10.19,6.79,17.17,6.79c5.43,0,9.93-1.29,13.48-3.88
		c3.49-2.59,7.47-7.37,11.93-14.36l18.43,10.28c-2.85,4.85-5.85,9.01-9.02,12.47c-3.17,3.46-6.56,6.31-10.19,8.54
		c-3.62,2.23-7.54,3.86-11.74,4.9c-4.2,1.03-8.76,1.55-13.68,1.55c-14.1,0-25.42-4.53-33.95-13.58
		c-8.54-9.12-12.81-21.21-12.81-36.28c0-14.94,4.14-27.03,12.42-36.28c8.34-9.12,19.4-13.68,33.18-13.68
		c13.9,0,24.9,4.43,32.98,13.29c8.02,8.8,12.03,20.99,12.03,36.57L283.37,217.7z M260.96,199.85
		c-3.04-11.64-10.38-17.46-22.02-17.46c-2.65,0-5.14,0.4-7.47,1.21s-4.45,1.97-6.35,3.49c-1.91,1.52-3.54,3.35-4.9,5.48
		c-1.36,2.13-2.39,4.56-3.1,7.28H260.96z"/>
	<path d="M302.27,165.31h21.83v8.73c4.2-4.4,7.79-7.37,10.77-8.92c3.17-1.62,7.15-2.43,11.93-2.43c10.67,0,19.11,4.66,25.32,13.97
		c6.85-9.31,16.14-13.97,27.84-13.97c21.28,0,31.92,12.9,31.92,38.71v58.4h-21.92v-52.48c0-9.05-1.1-15.46-3.3-19.21
		c-2.26-3.82-5.98-5.72-11.16-5.72c-6.01,0-10.4,2.26-13.14,6.79c-2.75,4.53-4.12,11.8-4.12,21.83v48.8H356.3v-52.19
		c0-16.81-4.85-25.22-14.55-25.22c-6.14,0-10.62,2.3-13.44,6.89c-2.81,4.59-4.22,11.83-4.22,21.73v48.8h-21.83V165.31z"/>
	<path d="M476.28,95.95v80.32c8.73-9.05,18.63-13.58,29.68-13.58c12.74,0,23.35,4.75,31.82,14.26c8.47,9.44,12.71,21.21,12.71,35.31
		c0,14.55-4.27,26.58-12.8,36.09c-8.47,9.44-19.18,14.16-32.11,14.16c-10.93,0-20.7-4.2-29.3-12.61v9.89h-21.83V95.95H476.28z
		 M528.18,213.24c0-9.05-2.46-16.43-7.37-22.12c-4.98-5.82-11.22-8.73-18.72-8.73c-8.02,0-14.55,2.81-19.6,8.44
		c-4.98,5.56-7.47,12.81-7.47,21.73c0,9.18,2.46,16.52,7.37,22.02c4.91,5.63,11.38,8.44,19.4,8.44c7.57,0,13.84-2.81,18.82-8.44
		C525.66,228.89,528.18,221.77,528.18,213.24z"/>
	<path d="M654.67,217.7h-67.71c0.58,7.76,3.1,13.94,7.57,18.53c4.46,4.53,10.19,6.79,17.17,6.79c5.43,0,9.93-1.29,13.48-3.88
		c3.49-2.59,7.47-7.37,11.93-14.36l18.43,10.28c-2.85,4.85-5.85,9.01-9.02,12.47c-3.17,3.46-6.57,6.31-10.19,8.54
		c-3.62,2.23-7.53,3.86-11.74,4.9c-4.21,1.03-8.76,1.55-13.68,1.55c-14.1,0-25.42-4.53-33.95-13.58
		c-8.54-9.12-12.81-21.21-12.81-36.28c0-14.94,4.14-27.03,12.42-36.28c8.34-9.12,19.4-13.68,33.18-13.68
		c13.9,0,24.9,4.43,32.98,13.29c8.02,8.8,12.03,20.99,12.03,36.57L654.67,217.7z M632.26,199.85
		c-3.04-11.64-10.38-17.46-22.02-17.46c-2.65,0-5.14,0.4-7.47,1.21s-4.45,1.97-6.35,3.49c-1.91,1.52-3.54,3.35-4.9,5.48
		c-1.36,2.13-2.39,4.56-3.1,7.28H632.26z"/>
	<path d="M673.56,165.31h21.83v8.44c4.01-4.2,7.57-7.08,10.67-8.63c3.17-1.62,6.92-2.43,11.25-2.43c5.76,0,11.77,1.88,18.04,5.63
		l-9.99,19.98c-4.14-2.97-8.18-4.46-12.13-4.46c-11.9,0-17.85,8.99-17.85,26.97v48.99h-21.83V165.31z"/>
	<path d="M797.81,181.42l-18.04,9.6c-2.85-5.82-6.37-8.73-10.57-8.73c-2,0-3.72,0.66-5.14,1.99c-1.42,1.33-2.13,3.02-2.13,5.09
		c0,3.62,4.2,7.21,12.61,10.77c11.58,4.98,19.37,9.57,23.38,13.77c4.01,4.21,6.01,9.86,6.01,16.98c0,9.12-3.36,16.75-10.09,22.89
		c-6.53,5.82-14.42,8.73-23.67,8.73c-15.85,0-27.07-7.73-33.66-23.18l18.62-8.63c2.59,4.53,4.56,7.41,5.92,8.63
		c2.65,2.46,5.82,3.69,9.51,3.69c7.37,0,11.06-3.36,11.06-10.09c0-3.88-2.85-7.5-8.54-10.87c-2.2-1.1-4.4-2.17-6.6-3.2
		c-2.2-1.03-4.43-2.1-6.69-3.2c-6.34-3.1-10.8-6.21-13.39-9.31c-3.3-3.94-4.95-9.02-4.95-15.23c0-8.21,2.81-15,8.44-20.37
		c5.76-5.37,12.74-8.05,20.95-8.05C782.94,162.69,791.93,168.94,797.81,181.42z"/>
	<path d="M818.55,95.95h21.83v77.22c7.76-6.99,16.33-10.48,25.71-10.48c10.67,0,19.21,3.46,25.61,10.38
		c5.43,6.01,8.15,15.62,8.15,28.81v57.91h-21.83v-55.88c0-7.57-1.34-13.05-4.03-16.44c-2.68-3.4-7-5.09-12.95-5.09
		c-7.63,0-13,2.36-16.1,7.08c-3.04,4.79-4.56,13-4.56,24.64v45.69h-21.83V95.95z"/>
	<path d="M919.23,126.02c0-3.82,1.39-7.11,4.17-9.9c2.78-2.78,6.11-4.17,9.99-4.17c3.94,0,7.31,1.39,10.09,4.17
		c2.78,2.72,4.17,6.05,4.17,9.99c0,3.95-1.39,7.31-4.17,10.09c-2.72,2.78-6.05,4.17-9.99,4.17c-3.95,0-7.31-1.39-10.09-4.17
		C920.62,133.43,919.23,130.04,919.23,126.02z M944.35,165.31v94.49h-21.83v-94.49H944.35z"/>
	<path d="M988.86,311.22h-21.83v-145.9h21.83v10.28c8.6-8.6,18.37-12.9,29.3-12.9c13,0,23.7,4.79,32.11,14.36
		c8.54,9.51,12.81,21.5,12.81,35.99c0,14.16-4.24,25.97-12.71,35.41c-8.41,9.38-19.01,14.07-31.82,14.07
		c-11.06,0-20.95-4.43-29.68-13.29V311.22z M1040.76,213.14c0-9.05-2.46-16.43-7.37-22.12c-4.98-5.76-11.25-8.63-18.82-8.63
		c-8.02,0-14.52,2.78-19.5,8.34c-4.98,5.56-7.47,12.87-7.47,21.92c0,8.86,2.49,16.17,7.47,21.92c4.91,5.63,11.38,8.44,19.4,8.44
		c7.57,0,13.81-2.85,18.72-8.54C1038.24,228.79,1040.76,221.68,1040.76,213.14z"/>
</g>
<g>
	<g>
		<g>
			<path d="M532.42,8.86l-12.8,36.71h4.52l4.46-12.71h10.85l4.44,12.71h4.52L535.57,8.86H532.42z M537.9,28.39h-7.77l3.89-11.46
				L537.9,28.39z"/>
			<polygon points="576.46,45.56 576.46,8.86 573.09,8.86 563.27,27.76 554.36,8.86 551.01,8.86 551.01,45.56 555.5,45.56 
				555.5,20.24 561.2,32.85 565.27,32.85 572,19.95 572,45.56 			"/>
			<polygon points="603.1,41.1 584.66,41.1 584.66,29.44 603.1,29.44 603.1,24.98 584.66,24.98 584.66,13.34 603.1,13.34 
				603.1,8.88 580.2,8.88 580.2,45.54 603.1,45.54 			"/>
			<path d="M490,64.85c0.42-0.75,0.76-1.57,1.01-2.44c0.25-0.88,0.38-1.78,0.38-2.68c0-1.86-0.45-3.58-1.34-5.13
				c-0.81-1.4-1.91-2.53-3.27-3.36c-1.27-0.79-2.6-1.26-3.95-1.41l-0.36-0.04c-0.94-0.11-1.91-0.21-3.22-0.21l-11.64,0.02v36.71
				l11.66-0.02c1.08,0,2.28-0.07,3.56-0.21c1.34-0.14,2.67-0.62,3.94-1.4c1.36-0.83,2.46-1.96,3.28-3.36
				c0.89-1.57,1.34-3.31,1.34-5.17c0-0.9-0.13-1.79-0.38-2.65c-0.25-0.85-0.59-1.67-1.01-2.4c-0.39-0.72-0.88-1.38-1.45-1.94
				c-0.44-0.44-0.91-0.83-1.46-1.18c0.52-0.35,1.01-0.75,1.46-1.19C489.13,66.22,489.61,65.57,490,64.85z M483.48,64.34
				c-0.56,0.33-1.16,0.54-1.79,0.62c-0.67,0.09-1.46,0.13-2.34,0.13c-2.21-0.02-3.9-0.01-6.03,0.01v-9.74l2.8,0
				c1.19,0,2.03,0,3.23,0.03c0.86,0,1.64,0.05,2.32,0.13c0.64,0.08,1.25,0.29,1.79,0.61c0.64,0.4,1.16,0.93,1.52,1.54
				c0.21,0.38,0.37,0.8,0.49,1.26c0.12,0.45,0.18,0.9,0.18,1.33c0,0.45-0.07,0.89-0.19,1.33c-0.13,0.45-0.3,0.87-0.5,1.24
				C484.55,63.51,484.06,64.02,483.48,64.34z M481.55,70.97c0.69,0.07,1.33,0.28,1.93,0.64c0.57,0.32,1.07,0.82,1.46,1.48
				c0.21,0.39,0.38,0.81,0.51,1.25c0.13,0.44,0.19,0.88,0.19,1.32c0,0.43-0.06,0.87-0.18,1.32c-0.12,0.45-0.28,0.87-0.47,1.23
				c-0.38,0.63-0.9,1.15-1.53,1.55c-0.59,0.35-1.23,0.56-1.92,0.63c-0.75,0.08-1.5,0.12-2.22,0.12l-0.58,0.01
				c-0.9,0.02-1.65,0.04-2.64,0.04h-2.8v-9.69l6.03-0.01C480.06,70.86,480.8,70.9,481.55,70.97z"/>
			<polygon points="467.6,45.54 472.07,45.54 472.07,29.44 488.67,29.44 488.67,24.98 472.07,24.98 472.07,13.34 491.47,13.34 
				491.47,8.88 467.61,8.88 			"/>
			<path d="M513.83,26.7c0.93-0.8,1.62-1.75,1.93-2.32c0.87-1.61,1.29-3.41,1.29-5.49c0-1.82-0.45-3.53-1.33-5.05
				c-0.74-1.41-1.82-2.55-3.22-3.38c-1.24-0.75-2.53-1.21-3.85-1.35c-1.26-0.14-2.45-0.21-3.51-0.21c0,0,0,0,0,0
				c-3.45-0.07-10.25-0.03-10.32-0.03l-0.52,0l-0.02,36.66h4.48v-16.1c1.72,0,7.07,0,8.57,0l5.41,16.12l4.51-0.06l-5.81-17.2
				C512.11,27.98,513.04,27.38,513.83,26.7z M511.76,22.4c-0.57,0.93-0.98,1.48-1.66,1.86c-0.63,0.38-1.32,0.46-2.16,0.55
				c-0.96,0.11-2.1,0.17-3.06,0.17c-1.04,0.02-3.21,0.01-4.9,0.01l-1.22,0V13.32l1.12,0c1.69-0.01,3.89-0.01,4.96,0.01
				c1.03,0,1.97,0.1,2.82,0.21c0.8,0.1,1.57,0.36,2.25,0.76c0.36,0.24,0.71,0.52,1.03,0.83c0.31,0.3,0.58,0.65,0.8,1.05
				c0.26,0.47,0.46,0.99,0.61,1.53c0.15,0.54,0.22,1.09,0.22,1.61c0,0.53-0.07,1.07-0.22,1.61
				C512.21,21.47,512.01,21.97,511.76,22.4z"/>
			<polygon points="596.66,49.6 589.04,63.86 581.43,49.6 574.62,49.61 585.98,70.24 585.98,86.32 592.1,86.32 592.1,70.24 
				603.47,49.61 			"/>
		</g>
	</g>
</g>
</svg>
