<?xml version="1.0" encoding="utf-8"?>
<!-- Generator: Adobe Illustrator 25.1.0, SVG Export Plug-In . SVG Version: 6.00 Build 0)  -->
<svg version="1.1" id="Layer_1" xmlns="http://www.w3.org/2000/svg" xmlns:xlink="http://www.w3.org/1999/xlink" x="0px" y="0px"
	 viewBox="0 0 32 18.55" style="enable-background:new 0 0 32 18.55;" xml:space="preserve">
<style type="text/css">
	.st0{fill:#FFFFFF;}
</style>
<g>
	<path class="st0" d="M15.27,0.21l-3,8.6h1.06l1.05-2.98h2.54l1.04,2.98h1.06l-3.01-8.6H15.27z M16.55,4.78h-1.82l0.91-2.68
		L16.55,4.78z"/>
	<polygon class="st0" points="25.59,8.8 25.59,0.21 24.8,0.21 22.5,4.63 20.41,0.21 19.63,0.21 19.63,8.8 20.68,8.8 20.68,2.87 
		22.01,5.82 22.96,5.82 24.54,2.8 24.54,8.8 	"/>
	<polygon class="st0" points="31.83,7.76 27.51,7.76 27.51,5.03 31.83,5.03 31.83,3.98 27.51,3.98 27.51,1.26 31.83,1.26 
		31.83,0.21 26.46,0.21 26.46,8.8 31.83,8.8 	"/>
	<path class="st0" d="M5.34,13.32c0.1-0.18,0.18-0.37,0.24-0.57c0.06-0.21,0.09-0.42,0.09-0.63c0-0.44-0.11-0.84-0.31-1.2
		c-0.19-0.33-0.45-0.59-0.77-0.79c-0.3-0.18-0.61-0.29-0.92-0.33L3.57,9.8C3.35,9.77,3.12,9.75,2.82,9.75l-2.73,0v8.6l2.73,0
		c0.25,0,0.53-0.02,0.83-0.05c0.31-0.03,0.63-0.14,0.92-0.33c0.32-0.19,0.58-0.46,0.77-0.79c0.21-0.37,0.31-0.78,0.31-1.21
		c0-0.21-0.03-0.42-0.09-0.62c-0.06-0.2-0.14-0.39-0.24-0.56C5.24,14.61,5.13,14.46,5,14.33c-0.1-0.1-0.21-0.19-0.34-0.28
		c0.12-0.08,0.24-0.17,0.34-0.28C5.13,13.64,5.24,13.49,5.34,13.32z M3.81,13.2c-0.13,0.08-0.27,0.13-0.42,0.15
		c-0.16,0.02-0.34,0.03-0.55,0.03c-0.52-0.01-0.91,0-1.41,0V11.1l0.66,0c0.28,0,0.47,0,0.76,0.01c0.2,0,0.38,0.01,0.54,0.03
		c0.15,0.02,0.29,0.07,0.42,0.14c0.15,0.09,0.27,0.22,0.36,0.36c0.05,0.09,0.09,0.19,0.11,0.3c0.03,0.11,0.04,0.21,0.04,0.31
		c0,0.1-0.02,0.21-0.05,0.31c-0.03,0.11-0.07,0.2-0.12,0.29C4.06,13.01,3.94,13.13,3.81,13.2z M3.36,14.75
		c0.16,0.02,0.31,0.07,0.45,0.15c0.13,0.07,0.25,0.19,0.34,0.35c0.05,0.09,0.09,0.19,0.12,0.29c0.03,0.1,0.05,0.21,0.05,0.31
		c0,0.1-0.01,0.2-0.04,0.31c-0.03,0.11-0.07,0.2-0.11,0.29c-0.09,0.15-0.21,0.27-0.36,0.36c-0.14,0.08-0.29,0.13-0.45,0.15
		c-0.18,0.02-0.35,0.03-0.52,0.03l-0.14,0C2.49,16.99,2.31,17,2.08,17H1.43v-2.27l1.41,0C3.01,14.73,3.18,14.74,3.36,14.75z"/>
	<polygon class="st0" points="0.09,8.8 1.14,8.8 1.14,5.03 5.03,5.03 5.03,3.98 1.14,3.98 1.14,1.26 5.68,1.26 5.68,0.21 0.09,0.21 
			"/>
	<path class="st0" d="M10.92,4.39c0.22-0.19,0.38-0.41,0.45-0.54c0.2-0.38,0.3-0.8,0.3-1.29c0-0.43-0.11-0.83-0.31-1.18
		c-0.17-0.33-0.43-0.6-0.75-0.79c-0.29-0.18-0.59-0.28-0.9-0.32c-0.3-0.03-0.57-0.05-0.82-0.05c0,0,0,0,0,0
		C8.07,0.2,6.48,0.21,6.46,0.21l-0.12,0L6.34,8.8h1.05V5.03c0.4,0,1.66,0,2.01,0l1.27,3.78l1.06-0.01l-1.36-4.03
		C10.51,4.68,10.73,4.54,10.92,4.39z M10.43,3.38C10.3,3.6,10.2,3.72,10.04,3.81C9.89,3.9,9.73,3.92,9.54,3.94
		C9.31,3.97,9.04,3.98,8.82,3.98c-0.24,0.01-0.75,0-1.15,0l-0.29,0V1.25l0.26,0c0.4,0,0.91,0,1.16,0c0.24,0,0.46,0.02,0.66,0.05
		C9.66,1.33,9.84,1.39,10,1.48c0.09,0.06,0.17,0.12,0.24,0.19c0.07,0.07,0.14,0.15,0.19,0.25c0.06,0.11,0.11,0.23,0.14,0.36
		c0.03,0.13,0.05,0.25,0.05,0.38c0,0.12-0.02,0.25-0.05,0.38C10.54,3.16,10.49,3.28,10.43,3.38z"/>
	<polygon class="st0" points="30.32,9.75 28.53,13.09 26.75,9.75 25.15,9.75 27.82,14.58 27.82,18.35 29.25,18.35 29.25,14.58 
		31.91,9.75 	"/>
</g>
</svg>
